<?xml version="1.0"?>
<svg xmlns="http://www.w3.org/2000/svg" xmlns:xlink="http://www.w3.org/1999/xlink" xmlns:svgjs="http://svgjs.com/svgjs" version="1.1" width="512" height="512" x="0" y="0" viewBox="0 0 512 512" style="enable-background:new 0 0 512 512" xml:space="preserve" class=""><g><g xmlns="http://www.w3.org/2000/svg"><path d="m430.788 35.441h-70.173v58.509h-29.997v-58.509h-56.825v58.509h-29.997v-58.509h-56.814v58.509h-29.997v-58.509h-56.815v58.509h-29.997v-58.509h-70.173v97.049h430.788z" fill="#bfbfbf" data-original="#000000" style="" class=""/><path d="m156.985 0h29.997v35.441h-29.997z" fill="#bfbfbf" data-original="#000000" style="" class=""/><path d="m70.173 0h29.997v35.441h-29.997z" fill="#bfbfbf" data-original="#000000" style="" class=""/><path d="m330.618 0h29.997v35.441h-29.997z" fill="#bfbfbf" data-original="#000000" style="" class=""/><path d="m243.796 0h29.997v35.441h-29.997z" fill="#bfbfbf" data-original="#000000" style="" class=""/><path d="m415.809 290.117c5.069 0 10.069.3 14.979.88v-128.523h-430.788v299.282h298.221c-5.549-14.172-8.599-29.594-8.599-45.706 0-69.443 56.604-125.933 126.187-125.933zm-115.218-72.234h60.057v29.984h-60.057zm-170.399 190.899h-60.057v-29.984h60.057zm0-80.957h-60.057v-29.985h60.057zm0-79.958h-60.057v-29.984h60.057zm115.228 160.915h-60.057v-29.984h60.057zm0-80.957h-60.057v-29.985h60.057zm0-79.958h-60.057v-29.984h60.057z" fill="#bfbfbf" data-original="#000000" style="" class=""/><path d="m415.81 320.101c-53.124 0-96.19 42.958-96.19 95.949s43.065 95.95 96.19 95.95 96.19-42.958 96.19-95.949-43.066-95.95-96.19-95.95zm48.382 111.815h-64.809v-64.78h29.997v34.796h34.812z" fill="#bfbfbf" data-original="#000000" style="" class=""/></g></g></svg>
