<?xml version="1.0" encoding="UTF-8" standalone="no"?>
<svg
   xmlns:dc="http://purl.org/dc/elements/1.1/"
   xmlns:cc="http://creativecommons.org/ns#"
   xmlns:rdf="http://www.w3.org/1999/02/22-rdf-syntax-ns#"
   xmlns:svg="http://www.w3.org/2000/svg"
   xmlns="http://www.w3.org/2000/svg"
   viewBox="0 0 666.66669 666.66669"
   height="666.66669"
   width="666.66669"
   xml:space="preserve"
   id="svg2"
   version="1.1"><metadata
     id="metadata8"><rdf:RDF><cc:Work
         rdf:about=""><dc:format>image/svg+xml</dc:format><dc:type
           rdf:resource="http://purl.org/dc/dcmitype/StillImage" /></cc:Work></rdf:RDF></metadata><defs
     id="defs6"><clipPath
       id="clipPath32"
       clipPathUnits="userSpaceOnUse"><path
         id="path30"
         d="M 0,500 H 500 V 0 H 0 Z" /></clipPath><clipPath
       id="clipPath136"
       clipPathUnits="userSpaceOnUse"><path
         id="path134"
         d="M 271.124,421.69 H 415.275 V 330.855 H 271.124 Z" /></clipPath><clipPath
       id="clipPath176"
       clipPathUnits="userSpaceOnUse"><path
         id="path174"
         d="M 0,500 H 500 V 0 H 0 Z" /></clipPath><clipPath
       id="clipPath188"
       clipPathUnits="userSpaceOnUse"><path
         id="path186"
         d="M 58.7375,428.411 H 431.067 V 179.449 H 58.7375 Z" /></clipPath><clipPath
       id="clipPath204"
       clipPathUnits="userSpaceOnUse"><path
         id="path202"
         d="M 0,500 H 500 V 0 H 0 Z" /></clipPath><clipPath
       id="clipPath224"
       clipPathUnits="userSpaceOnUse"><path
         id="path222"
         d="M 0,500 H 500 V 0 H 0 Z" /></clipPath><clipPath
       id="clipPath232"
       clipPathUnits="userSpaceOnUse"><path
         id="path230"
         d="M 120.091,390.088 H 299.686 V 162.277 H 120.091 Z" /></clipPath><clipPath
       id="clipPath252"
       clipPathUnits="userSpaceOnUse"><path
         id="path250"
         d="m 138.372,324.722 h 33.285 v -33.263 h -33.285 z" /></clipPath><clipPath
       id="clipPath276"
       clipPathUnits="userSpaceOnUse"><path
         id="path274"
         d="m 139.877,270.929 h 33.278 v -33.264 h -33.278 z" /></clipPath><clipPath
       id="clipPath304"
       clipPathUnits="userSpaceOnUse"><path
         id="path302"
         d="m 142.645,217.134 h 33.384 V 183.87 h -33.384 z" /></clipPath><clipPath
       id="clipPath352"
       clipPathUnits="userSpaceOnUse"><path
         id="path350"
         d="m 188.113,375.463 h 35.984 v -16.701 h -35.984 z" /></clipPath><clipPath
       id="clipPath424"
       clipPathUnits="userSpaceOnUse"><path
         id="path422"
         d="M 0,500 H 500 V 0 H 0 Z" /></clipPath><clipPath
       id="clipPath448"
       clipPathUnits="userSpaceOnUse"><path
         id="path446"
         d="m 360.701,108.271 h 8.705 v -8.7693 h -8.705 z" /></clipPath><clipPath
       id="clipPath536"
       clipPathUnits="userSpaceOnUse"><path
         id="path534"
         d="m 339.681,246.88 h 9.745 v -64.46 h -9.745 z" /></clipPath><clipPath
       id="clipPath568"
       clipPathUnits="userSpaceOnUse"><path
         id="path566"
         d="m 337.007,108.271 h 7.415 v -8.7693 h -7.415 z" /></clipPath><clipPath
       id="clipPath596"
       clipPathUnits="userSpaceOnUse"><path
         id="path594"
         d="m 320.15,324.56 h 11.92 v -28.49 h -11.92 z" /></clipPath></defs><g
     transform="matrix(1.3333333,0,0,-1.3333333,0,666.66667)"
     id="g10"><path
       id="path12"
       style="fill:#ececec;fill-opacity:1;fill-rule:nonzero;stroke:none"
       d="m 0,117.352 h 500 v 0.249 H 0 Z" /><path
       id="path14"
       style="fill:#ececec;fill-opacity:1;fill-rule:nonzero;stroke:none"
       d="m 416.779,101.255 h 33.122 v 0.25 h -33.122 z" /><path
       id="path16"
       style="fill:#ececec;fill-opacity:1;fill-rule:nonzero;stroke:none"
       d="m 322.527,98.542 h 8.693 v 0.25 h -8.693 z" /><path
       id="path18"
       style="fill:#ececec;fill-opacity:1;fill-rule:nonzero;stroke:none"
       d="m 396.586,110.542 h 19.192 v 0.25 h -19.192 z" /><path
       id="path20"
       style="fill:#ececec;fill-opacity:1;fill-rule:nonzero;stroke:none"
       d="m 52.459,108.861 h 43.193 v 0.25 H 52.459 Z" /><path
       id="path22"
       style="fill:#ececec;fill-opacity:1;fill-rule:nonzero;stroke:none"
       d="m 104.556,108.861 h 6.333 v 0.25 h -6.333 z" /><path
       id="path24"
       style="fill:#ececec;fill-opacity:1;fill-rule:nonzero;stroke:none"
       d="m 131.471,104.639 h 93.676 v 0.25 h -93.676 z" /><g
       id="g26"><g
         clip-path="url(#clipPath32)"
         id="g28"><g
           transform="translate(43.915,444.7974)"
           id="g34"><path
             id="path36"
             style="fill:#ececec;fill-opacity:1;fill-rule:nonzero;stroke:none"
             d="m 0,0 c -3.01,0 -5.458,-2.448 -5.458,-5.458 v -271.431 c 0,-3.01 2.448,-5.458 5.458,-5.458 h 193.099 c 3.008,0 5.457,2.448 5.457,5.458 V -5.458 c 0,3.01 -2.449,5.458 -5.457,5.458 z M 193.099,-282.597 H 0 c -3.147,0 -5.708,2.56 -5.708,5.708 V -5.458 c 0,3.147 2.561,5.708 5.708,5.708 h 193.099 c 3.146,0 5.707,-2.561 5.707,-5.708 v -271.431 c 0,-3.148 -2.561,-5.708 -5.707,-5.708" /></g><g
           transform="translate(260.2119,444.7974)"
           id="g38"><path
             id="path40"
             style="fill:#ececec;fill-opacity:1;fill-rule:nonzero;stroke:none"
             d="m 0,0 c -3.009,0 -5.457,-2.448 -5.457,-5.458 v -271.431 c 0,-3.01 2.448,-5.458 5.457,-5.458 h 193.099 c 3.009,0 5.458,2.448 5.458,5.458 V -5.458 c 0,3.01 -2.449,5.458 -5.458,5.458 z M 193.099,-282.597 H 0 c -3.147,0 -5.707,2.56 -5.707,5.708 V -5.458 c 0,3.147 2.56,5.708 5.707,5.708 h 193.099 c 3.147,0 5.708,-2.561 5.708,-5.708 v -271.431 c 0,-3.148 -2.561,-5.708 -5.708,-5.708" /></g><path
           id="path42"
           style="fill:#e7e7e7;fill-opacity:1;fill-rule:nonzero;stroke:none"
           d="m 267.781,117.602 h 35.101 v 130.732 h -35.101 z" /><g
           transform="translate(273.6229,117.6016)"
           id="g44"><path
             id="path46"
             style="fill:#f0f0f0;fill-opacity:1;fill-rule:nonzero;stroke:none"
             d="M 0,0 H -5.842 V 11.764 H 6.125 Z" /></g><path
           id="path48"
           style="fill:#e7e7e7;fill-opacity:1;fill-rule:nonzero;stroke:none"
           d="m 410.641,117.602 h 35.101 v 130.732 h -35.101 z" /><path
           id="path50"
           style="fill:#f0f0f0;fill-opacity:1;fill-rule:nonzero;stroke:none"
           d="M 267.781,122.119 H 415.739 V 248.333 H 267.781 Z" /><path
           id="path52"
           style="fill:#e7e7e7;fill-opacity:1;fill-rule:nonzero;stroke:none"
           d="M 272.313,208.127 H 411.208 V 242.74 H 272.313 Z" /><g
           transform="translate(335.1993,231.983)"
           id="g54"><path
             id="path56"
             style="fill:#f0f0f0;fill-opacity:1;fill-rule:nonzero;stroke:none"
             d="m 0,0 h 13.121 c 5.7,0 11.148,4.27 15.068,11.809 H -15.068 C -11.148,4.27 -5.699,0 0,0" /></g><g
           transform="translate(409.8976,117.6016)"
           id="g58"><path
             id="path60"
             style="fill:#f0f0f0;fill-opacity:1;fill-rule:nonzero;stroke:none"
             d="M 0,0 H 5.841 V 11.764 H -6.125 Z" /></g><path
           id="path62"
           style="fill:#e7e7e7;fill-opacity:1;fill-rule:nonzero;stroke:none"
           d="m 272.313,167.92 h 138.895 v 34.613 H 272.313 Z" /><g
           transform="translate(335.1993,191.7762)"
           id="g64"><path
             id="path66"
             style="fill:#f0f0f0;fill-opacity:1;fill-rule:nonzero;stroke:none"
             d="m 0,0 h 13.121 c 5.7,0 11.148,4.27 15.068,11.809 H -15.068 C -11.148,4.27 -5.699,0 0,0" /></g><path
           id="path68"
           style="fill:#e7e7e7;fill-opacity:1;fill-rule:nonzero;stroke:none"
           d="m 272.313,127.713 h 138.895 v 34.613 H 272.313 Z" /><g
           transform="translate(335.1993,151.5695)"
           id="g70"><path
             id="path72"
             style="fill:#f0f0f0;fill-opacity:1;fill-rule:nonzero;stroke:none"
             d="m 0,0 h 13.121 c 5.7,0 11.148,4.27 15.068,11.809 H -15.068 C -11.148,4.27 -5.699,0 0,0" /></g><path
           id="path74"
           style="fill:#e7e7e7;fill-opacity:1;fill-rule:nonzero;stroke:none"
           d="m 77.997,277.981 h 134.04 V 413.616 H 77.997 Z" /><path
           id="path76"
           style="fill:#f0f0f0;fill-opacity:1;fill-rule:nonzero;stroke:none"
           d="M 68.685,277.981 H 209.563 V 413.616 H 68.685 Z" /><path
           id="path78"
           style="fill:#ffffff;fill-opacity:1;fill-rule:nonzero;stroke:none"
           d="M 197.761,401.814 H 80.488 V 289.783 h 117.273 z" /><g
           transform="translate(159.8473,327.7614)"
           id="g80"><path
             id="path82"
             style="fill:#f0f0f0;fill-opacity:1;fill-rule:nonzero;stroke:none"
             d="M 0,0 V 36.073 C 9.945,26.128 9.945,9.945 0,0 m -41.447,0 c -9.945,9.945 -9.945,26.128 0,36.073 z M -21.524,59.2 -43.049,37.675 C -53.878,26.846 -53.879,9.226 -43.05,-1.603 l 21.525,-21.525 c 0.442,-0.442 1.16,-0.441 1.602,0.001 L 1.602,-1.602 c 10.829,10.829 10.83,28.449 10e-4,39.278 l -21.524,21.525 c -0.442,0.442 -1.161,0.442 -1.603,-10e-4" /></g><g
           transform="translate(406.8543,295.0017)"
           id="g84"><path
             id="path86"
             style="fill:#e7e7e7;fill-opacity:1;fill-rule:nonzero;stroke:none"
             d="m 0,0 h -74.89 l -4.275,-44.224 h 74.891 z" /></g><g
           transform="translate(402.5801,250.778)"
           id="g88"><path
             id="path90"
             style="fill:#e7e7e7;fill-opacity:1;fill-rule:nonzero;stroke:none"
             d="M 0,0 -0.303,-2.445 H -75.197 L -74.894,0 Z" /></g><g
           transform="translate(404.5492,295.0017)"
           id="g92"><path
             id="path94"
             style="fill:#f0f0f0;fill-opacity:1;fill-rule:nonzero;stroke:none"
             d="m 0,0 h -74.89 l -4.275,-44.224 h 74.891 z" /></g><g
           transform="translate(398.7612,253.6588)"
           id="g96"><path
             id="path98"
             style="fill:#ffffff;fill-opacity:1;fill-rule:nonzero;stroke:none"
             d="m 0,0 3.129,38.309 c 0.045,0.546 -0.386,1.013 -0.933,1.013 h -68.85 c -0.488,0 -0.894,-0.374 -0.934,-0.86 l -3.13,-38.31 c -0.045,-0.545 0.386,-1.012 0.933,-1.012 H -0.934 C -0.446,-0.86 -0.04,-0.486 0,0" /></g><g
           transform="translate(380.7614,250.778)"
           id="g100"><path
             id="path102"
             style="fill:#f0f0f0;fill-opacity:1;fill-rule:nonzero;stroke:none"
             d="m 0,0 -0.303,-2.445 h -82.47 L -82.47,0 Z" /></g><path
           id="path104"
           style="fill:#e7e7e7;fill-opacity:1;fill-rule:nonzero;stroke:none"
           d="M 280.089,318.637 H 420.72 v 93.486 H 280.089 Z" /><path
           id="path106"
           style="fill:#f5f5f5;fill-opacity:1;fill-rule:nonzero;stroke:none"
           d="m 276.964,318.637 h 140.631 v 93.486 H 276.964 Z" /><path
           id="path108"
           style="fill:#ffffff;fill-opacity:1;fill-rule:nonzero;stroke:none"
           d="M 411.986,405.822 H 282.574 v -80.884 h 129.412 z" /><path
           id="path110"
           style="fill:#e7e7e7;fill-opacity:1;fill-rule:nonzero;stroke:none"
           d="m 284.937,405.822 h -2.363 v -80.884 h 2.363 z" /><path
           id="path112"
           style="fill:#f5f5f5;fill-opacity:1;fill-rule:nonzero;stroke:none"
           d="m 279.284,335.671 h 135.991 v 8.459 H 279.284 Z" /><g
           transform="translate(270.8484,422.5533)"
           id="g114"><path
             id="path116"
             style="fill:#e7e7e7;fill-opacity:1;fill-rule:nonzero;stroke:none"
             d="m 0,0 h 155.987 c 0.475,0 0.864,-0.389 0.864,-0.864 0,-0.475 -0.389,-0.863 -0.864,-0.863 L 0,-1.727 c -0.475,0 -0.864,0.388 -0.864,0.863 C -0.864,-0.389 -0.475,0 0,0" /></g><g
           transform="translate(267.8258,421.6898)"
           id="g118"><path
             id="path120"
             style="fill:#e7e7e7;fill-opacity:1;fill-rule:nonzero;stroke:none"
             d="m 0,0 c 0,-1.192 0.967,-2.159 2.159,-2.159 1.192,0 2.159,0.967 2.159,2.159 0,1.192 -0.967,2.159 -2.159,2.159 C 0.967,2.159 0,1.192 0,0" /></g><g
           transform="translate(419.5547,416.8534)"
           id="g122"><path
             id="path124"
             style="fill:#e7e7e7;fill-opacity:1;fill-rule:nonzero;stroke:none"
             d="M 0,0 V 0 C 0.641,0 1.166,0.525 1.166,1.166 V 3.67 C 1.166,4.312 0.641,4.836 0,4.836 -0.641,4.836 -1.166,4.312 -1.166,3.67 V 1.166 C -1.166,0.525 -0.641,0 0,0" /></g><g
           transform="translate(283.8728,416.8534)"
           id="g126"><path
             id="path128"
             style="fill:#e7e7e7;fill-opacity:1;fill-rule:nonzero;stroke:none"
             d="M 0,0 V 0 C 0.641,0 1.166,0.525 1.166,1.166 V 3.67 C 1.166,4.312 0.641,4.836 0,4.836 -0.641,4.836 -1.166,4.312 -1.166,3.67 V 1.166 C -1.166,0.525 -0.641,0 0,0" /></g><g
           id="g130"><g
             id="g132" /><g
             id="g142"><g
               style="opacity:0.39999402"
               id="g140"
               clip-path="url(#clipPath136)"><path
                 id="path138"
                 style="fill:#e1e1e1;fill-opacity:1;fill-rule:nonzero;stroke:none"
                 d="M 271.124,330.855 H 415.275 V 421.69 H 271.124 Z" /></g></g></g><g
           transform="translate(403.5076,421.6898)"
           id="g144"><path
             id="path146"
             style="fill:#e7e7e7;fill-opacity:1;fill-rule:nonzero;stroke:none"
             d="m 0,0 c 0,-1.192 0.967,-2.159 2.159,-2.159 1.192,0 2.159,0.967 2.159,2.159 0,1.192 -0.967,2.159 -2.159,2.159 C 0.967,2.159 0,1.192 0,0" /></g><path
           id="path148"
           style="fill:#f0f0f0;fill-opacity:1;fill-rule:nonzero;stroke:none"
           d="m 199.5,124.08 h 11.56 V 224.347 H 199.5 Z" /><path
           id="path150"
           style="fill:#f0f0f0;fill-opacity:1;fill-rule:nonzero;stroke:none"
           d="m 74.102,124.08 h 132.519 v -6.353 H 74.102 Z" /><path
           id="path152"
           style="fill:#f5f5f5;fill-opacity:1;fill-rule:nonzero;stroke:none"
           d="M 199.5,124.08 H 69.662 V 224.347 H 199.5 Z" /><g
           transform="translate(183.2882,179.1216)"
           id="g154"><path
             id="path156"
             style="fill:#f0f0f0;fill-opacity:1;fill-rule:nonzero;stroke:none"
             d="m 0,0 h -97.414 c -3.933,0 -7.122,3.189 -7.122,7.123 v 18.638 c 0,3.934 3.189,7.123 7.122,7.123 H 0 c 3.934,0 7.122,-3.189 7.122,-7.123 V 7.123 C 7.122,3.189 3.934,0 0,0" /></g><g
           transform="translate(183.2882,136.4219)"
           id="g158"><path
             id="path160"
             style="fill:#f0f0f0;fill-opacity:1;fill-rule:nonzero;stroke:none"
             d="m 0,0 h -97.414 c -3.933,0 -7.122,3.189 -7.122,7.123 v 18.638 c 0,3.934 3.189,7.123 7.122,7.123 H 0 c 3.934,0 7.122,-3.189 7.122,-7.123 V 7.123 C 7.122,3.189 3.934,0 0,0" /></g><g
           transform="translate(110.3893,193.3088)"
           id="g162"><path
             id="path164"
             style="fill:#f5f5f5;fill-opacity:1;fill-rule:nonzero;stroke:none"
             d="m 0,0 h 48.384 c 1.24,0 2.255,1.015 2.255,2.255 0,1.24 -1.015,2.255 -2.255,2.255 H 0 C -1.24,4.51 -2.255,3.495 -2.255,2.255 -2.255,1.015 -1.24,0 0,0" /></g><g
           transform="translate(110.3893,150.6091)"
           id="g166"><path
             id="path168"
             style="fill:#f5f5f5;fill-opacity:1;fill-rule:nonzero;stroke:none"
             d="m 0,0 h 48.384 c 1.24,0 2.255,1.015 2.255,2.255 0,1.24 -1.015,2.255 -2.255,2.255 H 0 C -1.24,4.51 -2.255,3.495 -2.255,2.255 -2.255,1.015 -1.24,0 0,0" /></g></g></g><g
       id="g170"><g
         clip-path="url(#clipPath176)"
         id="g172"><g
           transform="translate(210.979,325.9316)"
           id="g178"><path
             id="path180"
             style="fill:#007cff;fill-opacity:1;fill-rule:nonzero;stroke:none"
             d="m 0,0 c 31.684,22.995 40.247,67.173 74.778,87.127 30.366,17.548 84.593,22.191 115.339,2.563 34.282,-21.885 37.74,-65.876 17.563,-99.121 -22.201,-36.58 -65.629,-40.972 -100.917,-58.401 -61.815,-30.531 -189.225,-135.498 -247.777,-38.256 -18.168,30.172 -17.31,94.846 25.299,103.954 C -74.733,6.627 -44.605,-32.373 0,0" /></g><g
           id="g182"><g
             id="g184" /><g
             id="g196"><g
               style="opacity:0.89999402"
               id="g194"
               clip-path="url(#clipPath188)"><g
                 id="g192"
                 transform="translate(210.979,325.9316)"><path
                   id="path190"
                   style="fill:#ffffff;fill-opacity:1;fill-rule:nonzero;stroke:none"
                   d="m 0,0 c 31.684,22.995 40.247,67.173 74.778,87.127 30.366,17.548 84.593,22.191 115.339,2.563 34.282,-21.885 37.74,-65.876 17.563,-99.121 -22.201,-36.58 -65.629,-40.972 -100.917,-58.401 -61.815,-30.531 -189.225,-135.498 -247.777,-38.256 -18.168,30.172 -17.31,94.846 25.299,103.954 C -74.733,6.627 -44.605,-32.373 0,0" /></g></g></g></g></g></g><g
       id="g198"><g
         clip-path="url(#clipPath204)"
         id="g200"><g
           transform="translate(443.8894,83.762)"
           id="g206"><path
             id="path208"
             style="fill:#f5f5f5;fill-opacity:1;fill-rule:nonzero;stroke:none"
             d="m 0,0 c 0,-6.254 -86.807,-11.323 -193.889,-11.323 -107.082,0 -193.889,5.069 -193.889,11.323 0,6.253 86.807,11.323 193.889,11.323 C -86.807,11.323 0,6.253 0,0" /></g></g></g><g
       transform="translate(292.8462,398.5518)"
       id="g210"><path
         id="path212"
         style="fill:#1a2e35;fill-opacity:1;fill-rule:nonzero;stroke:none"
         d="m 0,0 h -184.796 l 14.357,-251.673 H 14.357 Z" /></g><g
       transform="translate(296.4406,398.5518)"
       id="g214"><path
         id="path216"
         style="fill:#007cff;fill-opacity:1;fill-rule:nonzero;stroke:none"
         d="m 0,0 h -184.796 l 14.357,-251.673 H 14.357 Z" /></g><g
       id="g218"><g
         clip-path="url(#clipPath224)"
         id="g220"><g
           id="g226"><g
             id="g228" /><g
             id="g240"><g
               style="opacity:0.5"
               id="g238"
               clip-path="url(#clipPath232)"><g
                 id="g236"
                 transform="translate(283.7054,390.0879)"><path
                   id="path234"
                   style="fill:#000000;fill-opacity:1;fill-rule:nonzero;stroke:none"
                   d="m 0,0 h -163.614 l 11.728,-227.811 H 15.981 Z" /></g></g></g></g><g
           transform="translate(120.0909,390.0879)"
           id="g242"><path
             id="path244"
             style="fill:#ffffff;fill-opacity:1;fill-rule:nonzero;stroke:none"
             d="M 0,0 C 12.161,-75.937 3.819,-151.874 15.98,-227.811 H 183.847 C 171.686,-151.874 180.027,-75.937 167.867,0 Z" /></g><g
           id="g246"><g
             id="g248" /><g
             id="g260"><g
               style="opacity:0.30000299"
               id="g258"
               clip-path="url(#clipPath252)"><g
                 id="g256"
                 transform="translate(154.312,324.7219)"><path
                   id="path254"
                   style="fill:#007cff;fill-opacity:1;fill-rule:nonzero;stroke:none"
                   d="m 0,0 c -9.185,0 -16.254,-7.447 -15.93,-16.631 0.325,-9.184 7.963,-16.633 17.151,-16.632 9.183,10e-4 16.439,7.444 16.113,16.632 C 17.011,-7.445 9.185,-0.001 0,0 m 0.102,-2.896 c 7.592,-0.002 14.066,-6.177 14.336,-13.773 0.13,-3.662 -1.184,-7.102 -3.692,-9.689 -2.507,-2.584 -5.906,-4.006 -9.569,-4.007 -7.596,-0.002 -13.94,6.177 -14.21,13.772 -0.13,3.664 1.156,7.1 3.628,9.687 2.474,2.585 5.846,4.009 9.507,4.01" /></g></g></g></g><g
           transform="translate(247.2242,197.08)"
           id="g262"><path
             id="path264"
             style="fill:#e1e1e1;fill-opacity:1;fill-rule:nonzero;stroke:none"
             d="m 0,0 h -53.025 c -1.714,-0.002 -2.979,-1.391 -2.815,-3.104 0.163,-1.713 1.696,-3.102 3.408,-3.103 H 0.593 c 1.714,10e-4 2.962,1.389 2.799,3.103 C 3.229,-1.39 1.713,-0.001 0,0" /></g><g
           transform="translate(275.5741,210.1321)"
           id="g266"><path
             id="path268"
             style="fill:#e1e1e1;fill-opacity:1;fill-rule:nonzero;stroke:none"
             d="m 0,0 h -82.42 c -1.712,0.001 -3.006,-1.385 -2.878,-3.104 0,0 0,0 0,0 0.127,-1.714 1.631,-3.104 3.343,-3.104 h 82.42 c 1.715,0 2.993,1.388 2.865,3.104 -10e-4,0 -10e-4,0 0,0 C 3.202,-1.392 1.714,0 0,0" /></g><g
           id="g270"><g
             id="g272" /><g
             id="g284"><g
               style="opacity:0.30000299"
               id="g282"
               clip-path="url(#clipPath276)"><g
                 id="g280"
                 transform="translate(156.0619,270.9288)"><path
                   id="path278"
                   style="fill:#007cff;fill-opacity:1;fill-rule:nonzero;stroke:none"
                   d="m 0,0 v 0 c -9.181,0.002 -16.451,-7.45 -16.178,-16.633 0.271,-9.184 8.025,-16.631 17.212,-16.631 9.184,0.001 16.325,7.445 16.052,16.631 C 16.811,-7.445 9.189,-0.001 0,0 0,0 0,0 0,0 m 0.036,-2.898 c 7.597,-10e-4 13.926,-6.175 14.153,-13.772 0.111,-3.658 -1.198,-7.106 -3.692,-9.689 -2.492,-2.587 -5.878,-4.008 -9.539,-4.008 -7.592,-10e-4 -14.016,6.18 -14.239,13.773 -0.11,3.663 1.22,7.103 3.736,9.687 2.517,2.589 5.92,4.011 9.581,4.009" /></g></g></g></g><g
           transform="translate(217.7957,311.5121)"
           id="g286"><path
             id="path288"
             style="fill:#e1e1e1;fill-opacity:1;fill-rule:nonzero;stroke:none"
             d="m 0,0 h -28.343 c -1.714,0 -3.158,1.389 -3.226,3.104 0,-10e-4 0,-10e-4 0,0 -0.072,1.715 1.261,3.103 2.974,3.103 H -0.252 C 1.464,6.206 2.914,4.818 2.982,3.104 c 0,-10e-4 0,-10e-4 0,0 C 3.051,1.388 1.715,0.002 0,0" /></g><g
           transform="translate(250.5224,311.5121)"
           id="g290"><path
             id="path292"
             style="fill:#e1e1e1;fill-opacity:1;fill-rule:nonzero;stroke:none"
             d="m 0,0 h -19.207 c -1.712,0 -3.155,1.389 -3.226,3.104 0,-10e-4 0,-10e-4 0,0 -0.069,1.715 1.26,3.103 2.974,3.103 H -0.252 C 1.464,6.206 2.911,4.818 2.982,3.104 c 0,-10e-4 0,-10e-4 0,0 C 3.051,1.388 1.714,0.002 0,0" /></g><g
           transform="translate(265.9873,298.4612)"
           id="g294"><path
             id="path296"
             style="fill:#e1e1e1;fill-opacity:1;fill-rule:nonzero;stroke:none"
             d="m 0,0 h -76.092 c -1.715,0.001 -3.145,1.389 -3.2,3.104 0,-10e-4 0,-10e-4 0,0 -0.056,1.714 1.288,3.106 3.002,3.104 H -0.198 C 1.517,6.206 2.953,4.816 3.007,3.104 c 0,-10e-4 0,-10e-4 0,0 C 3.06,1.389 1.716,0 0,0" /></g><g
           id="g298"><g
             id="g300" /><g
             id="g312"><g
               style="opacity:0.30000299"
               id="g310"
               clip-path="url(#clipPath304)"><g
                 id="g308"
                 transform="translate(158.1282,217.1344)"><path
                   id="path306"
                   style="fill:#007cff;fill-opacity:1;fill-rule:nonzero;stroke:none"
                   d="m 0,0 c -9.181,0.001 -16.202,-7.446 -15.424,-16.633 0.771,-9.183 9.093,-16.631 18.275,-16.631 9.186,-10e-4 15.76,7.446 14.989,16.631 C 17.062,-7.447 9.19,0.004 0,0 m 0.145,-2.897 c 7.598,-0.001 14.156,-6.179 14.8,-13.773 0.311,-3.66 -0.788,-7.102 -3.111,-9.688 -2.323,-2.587 -5.603,-4.008 -9.267,-4.009 -7.592,0.003 -14.458,6.177 -15.097,13.773 -0.31,3.662 0.855,7.104 3.26,9.687 2.403,2.588 5.755,4.009 9.415,4.01" /></g></g></g></g><g
           transform="translate(279.0281,250.8743)"
           id="g314"><path
             id="path316"
             style="fill:#e1e1e1;fill-opacity:1;fill-rule:nonzero;stroke:none"
             d="m 0,0 c -29.281,0 -58.561,0 -87.842,0 -1.713,-0.002 -3.06,-1.39 -3.002,-3.104 0,0 0,0 0,0 0.058,-1.713 1.497,-3.102 3.211,-3.103 29.28,-0.001 58.561,-0.001 87.841,0 1.713,0 3.055,1.386 2.997,3.103 C 3.148,-1.391 1.713,0.002 0,0" /></g><g
           transform="translate(258.1949,263.9264)"
           id="g318"><path
             id="path320"
             style="fill:#e1e1e1;fill-opacity:1;fill-rule:nonzero;stroke:none"
             d="m 0,0 h -67.386 c -1.713,-0.001 -3.068,-1.39 -3.02,-3.105 0.046,-1.713 1.477,-3.103 3.191,-3.104 22.462,0 44.925,0 67.387,0 1.713,10e-4 3.062,1.389 3.016,3.104 0,0 0,0 0,0 C 3.141,-1.387 1.714,0.001 0,0" /></g><g
           transform="translate(155.9322,298.2762)"
           id="g322"><path
             id="path324"
             style="fill:#007cff;fill-opacity:1;fill-rule:nonzero;stroke:none"
             d="m 0,0 c -0.394,0.646 -0.789,1.294 -1.184,1.94 -2.585,4.234 -7.993,8.013 -9.858,9.115 0.469,0.827 0.937,1.654 1.404,2.481 2.211,-1.307 6.692,-4.53 9.672,-8.359 4.255,5.704 10.46,11.581 18.87,17.919 0.605,-0.781 1.209,-1.561 1.812,-2.342 C 11.717,13.982 5.335,7.793 1.25,1.823 0.834,1.216 0.417,0.608 0,0" /></g><g
           transform="translate(157.4332,244.4818)"
           id="g326"><path
             id="path328"
             style="fill:#007cff;fill-opacity:1;fill-rule:nonzero;stroke:none"
             d="m 0,0 c -0.398,0.647 -0.796,1.293 -1.193,1.94 -2.6,4.232 -7.983,8.014 -9.84,9.116 0.474,0.827 0.949,1.654 1.425,2.48 2.196,-1.302 6.649,-4.527 9.629,-8.359 4.258,5.7 10.519,11.582 19.057,17.919 0.589,-0.78 1.178,-1.561 1.767,-2.342 C 11.724,13.983 5.307,7.789 1.242,1.823 0.828,1.216 0.413,0.607 0,0" /></g><g
           transform="translate(160.8556,190.5583)"
           id="g330"><path
             id="path332"
             style="fill:#007cff;fill-opacity:1;fill-rule:nonzero;stroke:none"
             d="m 0,0 c -0.44,0.647 -0.88,1.293 -1.318,1.94 -2.873,4.233 -8.458,8.014 -10.374,9.116 0.43,0.827 0.862,1.653 1.296,2.48 2.263,-1.301 6.882,-4.526 10.091,-8.358 3.917,5.699 9.878,11.581 18.162,17.918 0.62,-0.781 1.242,-1.561 1.864,-2.341 C 10.889,13.983 4.81,7.788 1.124,1.823 0.748,1.215 0.374,0.608 0,0" /></g><g
           transform="translate(224.0972,370.9799)"
           id="g334"><path
             id="path336"
             style="fill:#007cff;fill-opacity:1;fill-rule:nonzero;stroke:none"
             d="m 0,0 c -1.76,-3.837 -3.563,-7.673 -5.405,-11.51 7.523,-3.845 13.067,-11.391 13.641,-20.076 4.43,0 8.861,0 13.291,0 C 20.638,-17.987 11.863,-6.145 0,0" /></g><g
           transform="translate(173.4736,339.3936)"
           id="g338"><path
             id="path340"
             style="fill:#1a2e35;fill-opacity:1;fill-rule:nonzero;stroke:none"
             d="M 0,0 C 4.431,0 8.861,0 13.291,0 12.75,8.183 16.429,15.349 22.514,19.369 19.929,23.207 17.306,27.045 14.64,30.883 4.946,24.562 -0.857,13.099 0,0" /></g><g
           transform="translate(206.1236,375.4634)"
           id="g342"><path
             id="path344"
             style="fill:#007cff;fill-opacity:1;fill-rule:nonzero;stroke:none"
             d="m 0,0 c -6.823,0.001 -12.956,-1.896 -18.01,-5.187 2.666,-3.838 5.289,-7.676 7.874,-11.514 3.275,2.162 7.253,3.418 11.659,3.415 3.896,0.002 7.668,-0.981 11.046,-2.707 1.841,3.836 3.645,7.673 5.405,11.509 C 12.468,-1.63 6.318,-0.001 0,0" /></g><g
           id="g346"><g
             id="g348" /><g
             id="g360"><g
               style="opacity:0.5"
               id="g358"
               clip-path="url(#clipPath352)"><g
                 id="g356"
                 transform="translate(206.1236,375.4634)"><path
                   id="path354"
                   style="fill:#1a2e35;fill-opacity:1;fill-rule:nonzero;stroke:none"
                   d="m 0,0 c -6.823,0.001 -12.956,-1.896 -18.01,-5.187 2.666,-3.838 5.289,-7.676 7.874,-11.514 3.275,2.162 7.253,3.418 11.659,3.415 3.896,0.002 7.668,-0.981 11.046,-2.707 1.841,3.836 3.645,7.673 5.405,11.509 C 12.468,-1.63 6.318,-0.001 0,0" /></g></g></g></g><g
           transform="translate(208.2634,338.4509)"
           id="g362"><path
             id="path364"
             style="fill:#1a2e35;fill-opacity:1;fill-rule:nonzero;stroke:none"
             d="M 0,0 C -0.542,0.731 -0.419,1.729 0.279,2.226 0.975,2.719 1.989,2.527 2.534,1.797 3.079,1.065 2.953,0.067 2.253,-0.428 1.554,-0.921 0.542,-0.731 0,0 M 14.095,10.035 C 14.102,10.033 0.681,4.601 -0.742,3.594 -2.162,2.583 -2.411,0.562 -1.309,-0.927 c 1.105,-1.489 3.152,-1.881 4.577,-0.87 1.45,1.007 10.852,11.834 10.827,11.832" /></g><g
           transform="translate(238.2674,354.8352)"
           id="g366"><path
             id="path368"
             style="fill:#ffffff;fill-opacity:1;fill-rule:nonzero;stroke:none"
             d="m 0,0 c 0.234,-2.608 -1.709,-4.716 -4.313,-4.718 -2.606,0 -4.891,2.109 -5.123,4.718 -0.234,2.607 1.672,4.719 4.277,4.718 C -2.553,4.719 -0.23,2.603 0,0" /></g><g
           transform="translate(232.4196,355.9219)"
           id="g370"><path
             id="path372"
             style="fill:#1a2e35;fill-opacity:1;fill-rule:nonzero;stroke:none"
             d="M 0,0 C 0.038,-0.416 -0.267,-0.755 -0.683,-0.751 -1.097,-0.752 -1.466,-0.414 -1.503,0 -1.541,0.414 -1.235,0.75 -0.82,0.751 -0.408,0.754 -0.039,0.416 0,0" /></g><g
           transform="translate(235.9857,355.9219)"
           id="g374"><path
             id="path376"
             style="fill:#1a2e35;fill-opacity:1;fill-rule:nonzero;stroke:none"
             d="M 0,0 C 0.036,-0.416 -0.268,-0.755 -0.683,-0.751 -1.097,-0.752 -1.464,-0.414 -1.503,0 -1.541,0.414 -1.234,0.75 -0.82,0.751 -0.405,0.754 -0.038,0.416 0,0" /></g><g
           transform="translate(233.7708,351.9775)"
           id="g378"><path
             id="path380"
             style="fill:#1a2e35;fill-opacity:1;fill-rule:nonzero;stroke:none"
             d="m 0,0 h -0.009 c -0.976,0 -1.924,0.373 -2.669,1.051 -0.153,0.138 -0.164,0.374 -0.025,0.526 0.138,0.152 0.374,0.163 0.526,0.025 0.607,-0.553 1.378,-0.857 2.169,-0.857 0.005,0 0.005,0 0.007,0 0.777,0 1.479,0.296 1.979,0.835 C 2.117,1.731 2.353,1.739 2.504,1.599 2.655,1.459 2.664,1.224 2.524,1.073 1.882,0.381 0.985,0 0,0" /></g><g
           transform="translate(211.6161,368.8958)"
           id="g382"><path
             id="path384"
             style="fill:#ffffff;fill-opacity:1;fill-rule:nonzero;stroke:none"
             d="M 0,0 C 0.298,-2.605 -1.592,-4.719 -4.198,-4.718 -6.806,-4.717 -9.136,-2.608 -9.436,0 -9.734,2.605 -7.885,4.719 -5.281,4.718 -2.675,4.715 -0.297,2.607 0,0" /></g><g
           transform="translate(205.7406,369.9825)"
           id="g386"><path
             id="path388"
             style="fill:#1a2e35;fill-opacity:1;fill-rule:nonzero;stroke:none"
             d="M 0,0 C 0.048,-0.415 -0.25,-0.751 -0.664,-0.751 -1.08,-0.75 -1.453,-0.416 -1.503,0 -1.551,0.415 -1.254,0.751 -0.839,0.751 -0.425,0.75 -0.049,0.413 0,0" /></g><g
           transform="translate(209.3067,369.9825)"
           id="g390"><path
             id="path392"
             style="fill:#1a2e35;fill-opacity:1;fill-rule:nonzero;stroke:none"
             d="M 0,0 C 0.05,-0.415 -0.25,-0.751 -0.664,-0.751 -1.08,-0.75 -1.453,-0.416 -1.503,0 -1.551,0.415 -1.252,0.751 -0.839,0.751 -0.425,0.75 -0.049,0.413 0,0" /></g><g
           transform="translate(209.408,366.9919)"
           id="g394"><path
             id="path396"
             style="fill:#1a2e35;fill-opacity:1;fill-rule:nonzero;stroke:none"
             d="m 0,0 h -4.678 c -0.206,0 -0.373,0.167 -0.373,0.372 0,0.206 0.167,0.373 0.373,0.373 H 0 C 0.206,0.745 0.372,0.578 0.372,0.372 0.372,0.167 0.206,0 0,0" /></g><g
           transform="translate(187.8665,354.8352)"
           id="g398"><path
             id="path400"
             style="fill:#ffffff;fill-opacity:1;fill-rule:nonzero;stroke:none"
             d="m 0,0 c 0.235,-2.608 -1.709,-4.716 -4.313,-4.718 -2.605,0 -4.89,2.109 -5.123,4.718 -0.23,2.607 1.67,4.719 4.277,4.718 C -2.553,4.719 -0.232,2.603 0,0" /></g><g
           transform="translate(182.0185,355.9219)"
           id="g402"><path
             id="path404"
             style="fill:#1a2e35;fill-opacity:1;fill-rule:nonzero;stroke:none"
             d="M 0,0 C 0.04,-0.416 -0.267,-0.755 -0.683,-0.751 -1.098,-0.752 -1.464,-0.414 -1.503,0 -1.541,0.414 -1.236,0.75 -0.82,0.751 -0.407,0.754 -0.036,0.416 0,0" /></g><g
           transform="translate(185.5849,355.9219)"
           id="g406"><path
             id="path408"
             style="fill:#1a2e35;fill-opacity:1;fill-rule:nonzero;stroke:none"
             d="M 0,0 C 0.037,-0.416 -0.268,-0.755 -0.683,-0.751 -1.099,-0.752 -1.466,-0.414 -1.503,0 -1.541,0.414 -1.234,0.75 -0.82,0.751 -0.405,0.754 -0.038,0.416 0,0" /></g><g
           transform="translate(181.0244,351.9775)"
           id="g410"><path
             id="path412"
             style="fill:#1a2e35;fill-opacity:1;fill-rule:nonzero;stroke:none"
             d="M 0,0 C -0.091,0 -0.182,0.033 -0.254,0.1 -0.405,0.24 -0.413,0.476 -0.272,0.626 0.375,1.321 1.268,1.693 2.258,1.699 3.239,1.698 4.188,1.325 4.93,0.647 5.082,0.509 5.092,0.273 4.953,0.121 4.815,-0.031 4.579,-0.041 4.427,0.097 3.821,0.652 3.017,0.966 2.247,0.954 1.476,0.954 0.775,0.657 0.272,0.118 0.199,0.04 0.1,0 0,0" /></g><g
           transform="translate(204.0388,398.5508)"
           id="g414"><path
             id="path416"
             style="fill:#1a2e35;fill-opacity:1;fill-rule:nonzero;stroke:none"
             d="m 0,0 c -2.45,0 -4.565,1.993 -4.705,4.451 -0.14,2.459 1.747,4.452 4.197,4.452 2.459,0 4.565,-1.993 4.705,-4.452 C 4.338,1.993 2.459,0 0,0 M 52.706,-9.106 C 49.584,-2.544 42.299,1.806 34.448,1.806 H 18.457 c -2.391,0 -4.619,1.145 -5.55,2.9 -2.231,4.18 -7.548,7.164 -13.584,7.164 -6.029,0 -11.005,-2.984 -12.759,-7.164 -0.731,-1.755 -2.827,-2.9 -5.218,-2.9 h -15.991 c -7.851,0 -14.64,-4.35 -17.013,-10.912 -0.088,-0.238 -0.117,-0.483 -0.103,-0.729 0.057,-1.001 0.914,-1.891 1.999,-1.891 h 100.87 c 1.348,0 2.186,1.374 1.598,2.62" /></g></g></g><g
       id="g418"><g
         clip-path="url(#clipPath424)"
         id="g420"><g
           transform="translate(359.0983,92.3108)"
           id="g426"><path
             id="path428"
             style="fill:#007cff;fill-opacity:1;fill-rule:nonzero;stroke:none"
             d="M 0,0 C -0.122,0 -0.234,-0.012 -0.332,-0.04 -0.488,-0.083 -0.59,-0.163 -0.645,-0.283 -0.745,-0.5 -0.688,-0.606 -0.637,-0.668 -0.242,-1.143 1.617,-1.154 2.961,-0.961 2.241,-0.611 0.859,0 0,0 m 1.324,-1.425 c -0.943,0 -1.868,0.13 -2.22,0.553 -0.124,0.149 -0.236,0.401 -0.071,0.761 0.093,0.202 0.263,0.339 0.506,0.407 1.185,0.333 3.917,-1.13 4.032,-1.193 C 3.638,-0.933 3.68,-1.004 3.676,-1.076 3.673,-1.147 3.624,-1.204 3.555,-1.219 3.096,-1.312 2.202,-1.425 1.324,-1.425" /></g><g
           transform="translate(360.4941,94.0669)"
           id="g430"><path
             id="path432"
             style="fill:#007cff;fill-opacity:1;fill-rule:nonzero;stroke:none"
             d="M 0,0 C -0.034,0 -0.069,-0.002 -0.104,-0.005 -0.413,-0.037 -0.42,-0.16 -0.422,-0.201 -0.446,-0.699 0.887,-1.948 1.852,-2.492 1.693,-1.914 1.299,-0.729 0.63,-0.226 0.427,-0.074 0.221,0 0,0 m 2.125,-2.978 c -0.024,0 -0.049,0.005 -0.073,0.015 -0.931,0.398 -2.865,1.987 -2.823,2.817 0.009,0.196 0.12,0.438 0.593,0.487 C 0.173,0.377 0.509,0.277 0.82,0.042 1.841,-0.725 2.26,-2.704 2.277,-2.787 2.29,-2.849 2.269,-2.909 2.223,-2.945 2.195,-2.967 2.161,-2.978 2.125,-2.978" /></g><g
           transform="translate(370.6778,91.2629)"
           id="g434"><path
             id="path436"
             style="fill:#ffc4be;fill-opacity:1;fill-rule:nonzero;stroke:none"
             d="m 0,0 h -7.346 l -2.633,17.012 h 7.346 z" /></g><g
           transform="translate(363.2849,92.1135)"
           id="g438"><path
             id="path440"
             style="fill:#1a2e35;fill-opacity:1;fill-rule:nonzero;stroke:none"
             d="m 0,0 h 8.023 c 0.3,0 0.583,-0.208 0.681,-0.502 l 2.181,-6.53 c 0.226,-0.676 -0.216,-1.318 -0.911,-1.306 -2.899,0.049 -7.1,0.218 -10.737,0.218 -4.254,0 -3.873,-0.232 -8.861,-0.232 -3.016,0 -4.194,3.05 -2.962,3.326 5.607,1.257 6.256,1.391 10.88,4.454 C -1.203,-0.24 -0.634,0 0,0" /></g><g
           id="g442"><g
             id="g444" /><g
             id="g456"><g
               style="opacity:0.19999701"
               id="g454"
               clip-path="url(#clipPath448)"><g
                 id="g452"
                 transform="translate(360.7006,108.271)"><path
                   id="path450"
                   style="fill:#000000;fill-opacity:1;fill-rule:nonzero;stroke:none"
                   d="M 0,0 1.356,-8.769 H 8.705 L 7.349,0 Z" /></g></g></g></g><g
           transform="translate(369.8425,274.5479)"
           id="g458"><path
             id="path460"
             style="fill:#ffc4be;fill-opacity:1;fill-rule:nonzero;stroke:none"
             d="m 0,0 -4.986,-5.052 7.661,-2.707 c 0,0 2.969,4.122 0.897,6.94 z" /></g><g
           transform="translate(363.1622,262.4366)"
           id="g462"><path
             id="path464"
             style="fill:#ffc4be;fill-opacity:1;fill-rule:nonzero;stroke:none"
             d="M 0,0 7.644,-1.118 9.355,4.353 1.694,7.059 Z" /></g><g
           transform="translate(373.1785,336.728)"
           id="g466"><path
             id="path468"
             style="fill:#1a2e35;fill-opacity:1;fill-rule:nonzero;stroke:none"
             d="m 0,0 c 0.65,-1.394 1.168,-2.587 1.692,-3.884 0.522,-1.272 1.019,-2.549 1.501,-3.833 0.951,-2.572 1.802,-5.187 2.587,-7.84 0.798,-2.647 1.445,-5.374 1.986,-8.152 l 0.379,-2.1 0.306,-2.142 c 0.111,-0.707 0.176,-1.443 0.242,-2.176 0.06,-0.759 0.156,-1.389 0.163,-2.316 l 0.027,-1.295 -0.046,-1.148 -0.059,-1.136 -0.104,-1.07 C 8.546,-38.532 8.352,-39.883 8.168,-41.251 7.769,-43.953 7.314,-46.589 6.806,-49.208 5.745,-54.436 4.586,-59.55 3.185,-64.694 l -9.111,1.794 c 0.575,5.087 1.18,10.244 1.656,15.322 0.236,2.538 0.477,5.067 0.62,7.547 0.058,1.226 0.129,2.467 0.129,3.63 l 0.011,0.88 -0.022,0.817 -0.017,0.806 -0.065,0.656 c -0.009,0.378 -0.144,1.035 -0.224,1.571 -0.088,0.56 -0.171,1.118 -0.305,1.692 l -0.362,1.708 -0.434,1.722 c -0.623,2.299 -1.323,4.61 -2.123,6.923 -0.797,2.31 -1.687,4.609 -2.624,6.893 -0.466,1.142 -0.945,2.281 -1.443,3.406 -0.488,1.104 -1.028,2.292 -1.486,3.255 z" /></g><g
           transform="translate(338.652,278.1302)"
           id="g470"><path
             id="path472"
             style="fill:#007cff;fill-opacity:1;fill-rule:nonzero;stroke:none"
             d="m 0,0 c 0,0 1.219,-56.237 4.522,-78.64 3.435,-23.302 15.955,-98.29 15.955,-98.29 h 12.445 c 0,0 -4.468,71.371 -5.886,94.3 C 25.491,-57.634 25.829,0 25.829,0 Z" /></g><g
           transform="translate(356.1803,106.157)"
           id="g474"><path
             id="path476"
             style="fill:#1a2e35;fill-opacity:1;fill-rule:nonzero;stroke:none"
             d="m 0,0 c -0.057,0 1.28,-5.167 1.28,-5.167 h 15.138 l -0.106,4.611 z" /></g><g
           transform="translate(335.8489,369.3484)"
           id="g478"><path
             id="path480"
             style="fill:#1a2e35;fill-opacity:1;fill-rule:nonzero;stroke:none"
             d="m 0,0 c -0.022,-0.622 -0.369,-1.126 -0.776,-1.126 -0.407,0 -0.719,0.504 -0.697,1.126 0.022,0.622 0.37,1.126 0.776,1.126 C -0.29,1.126 0.022,0.622 0,0" /></g><g
           transform="translate(335.5366,368.2219)"
           id="g482"><path
             id="path484"
             style="fill:#ff857f;fill-opacity:1;fill-rule:nonzero;stroke:none"
             d="m 0,0 c 0,0 -1.541,-3.589 -3.16,-5.321 1.064,-1.027 2.952,-0.558 2.952,-0.558 z" /></g><g
           transform="translate(338.1753,372.7958)"
           id="g486"><path
             id="path488"
             style="fill:#1a2e35;fill-opacity:1;fill-rule:nonzero;stroke:none"
             d="M 0,0 C -0.074,0 -0.148,0.022 -0.211,0.069 -1.499,1.021 -2.777,0.551 -2.79,0.546 -2.98,0.473 -3.189,0.567 -3.255,0.755 -3.321,0.943 -3.22,1.155 -3.029,1.228 -2.962,1.253 -1.361,1.844 0.237,0.662 0.397,0.544 0.426,0.316 0.302,0.152 0.227,0.053 0.113,0 0,0" /></g><g
           transform="translate(355.3019,362.475)"
           id="g490"><path
             id="path492"
             style="fill:#ffc4be;fill-opacity:1;fill-rule:nonzero;stroke:none"
             d="m 0,0 c -1.243,-5.374 -2.643,-15.222 0.991,-18.808 0,0 -1.662,-5.452 -11.648,-5.452 -10.981,0 -5.055,5.452 -5.055,5.452 6.043,1.431 6.046,5.877 5.149,10.053 z" /></g><g
           transform="translate(360.1737,341.1454)"
           id="g494"><path
             id="path496"
             style="fill:#007cff;fill-opacity:1;fill-rule:nonzero;stroke:none"
             d="m 0,0 c 1.079,2.197 2.271,4.71 0.017,5.498 -2.479,0.866 -16.188,1.75 -20.983,0.123 -4.795,-1.626 -3.609,-6.081 -3.609,-6.081 z" /></g><g
           transform="translate(370.686,341.5573)"
           id="g498"><path
             id="path500"
             style="fill:#1a2e35;fill-opacity:1;fill-rule:nonzero;stroke:none"
             d="m 0,0 c 6.33,-2.918 9.55,-25.057 9.55,-25.057 l -12.75,-4 c 0,0 -3.657,9.201 -5.531,18.012 C -10.693,-1.813 -6.472,2.983 0,0" /></g><g
           transform="translate(292.3253,307.1136)"
           id="g502"><path
             id="path504"
             style="fill:#ffc4be;fill-opacity:1;fill-rule:nonzero;stroke:none"
             d="m 0,0 -5.877,5.055 -5.291,-7.699 c 0,0 4.753,-3.809 9.958,-2.246 z" /></g><g
           transform="translate(278.7047,314.6158)"
           id="g506"><path
             id="path508"
             style="fill:#ffc4be;fill-opacity:1;fill-rule:nonzero;stroke:none"
             d="m 0,0 -0.816,-7.608 3.269,-2.538 5.29,7.699 z" /></g><g
           transform="translate(356.6462,370.6672)"
           id="g510"><path
             id="path512"
             style="fill:#ffc4be;fill-opacity:1;fill-rule:nonzero;stroke:none"
             d="m 0,0 c -0.739,-7.641 -0.784,-12.137 -4.781,-16.058 -6.014,-5.9 -15.321,-2.4 -16.875,5.226 -1.399,6.865 0.045,18.207 7.631,21.248 C -6.551,13.412 0.739,7.641 0,0" /></g><g
           transform="translate(340.9513,368.2219)"
           id="g514"><path
             id="path516"
             style="fill:#1a2e35;fill-opacity:1;fill-rule:nonzero;stroke:none"
             d="m 0,0 c -0.673,5.278 -0.562,7.278 2.261,8.445 -2.928,0.583 -5.469,0.666 -6.678,2.375 -1.208,1.708 -1.5,6.083 4.375,8.083 -0.541,-1.042 1.167,-3.083 6.584,-1.208 5.416,1.875 13.289,2.083 13.978,-3.417 2.855,1 7.647,-7.834 2.035,-14.278 -4.705,-5.404 -7.847,-9.128 -8.772,-11.991 -0.188,-0.583 -0.816,-0.863 -1.37,-0.604 -1.958,0.914 -5.443,0.134 -6.986,-0.288 -0.457,-0.125 -0.933,0.089 -1.139,0.515 C 3.288,-10.302 0.556,-4.359 0,0" /></g><g
           transform="translate(360.4808,381.8318)"
           id="g518"><path
             id="path520"
             style="fill:#1a2e35;fill-opacity:1;fill-rule:nonzero;stroke:none"
             d="M 0,0 C 0,0 2.316,3.272 6.765,0.839 6.765,0.839 2.964,1.06 0,0" /></g><g
           transform="translate(360.8636,381.1252)"
           id="g522"><path
             id="path524"
             style="fill:#1a2e35;fill-opacity:1;fill-rule:nonzero;stroke:none"
             d="M 0,0 C 0,0 3.226,1.98 0.709,5.773 0.709,5.773 1.003,2.53 0,0" /></g><g
           transform="translate(344.7391,367.9991)"
           id="g526"><path
             id="path528"
             style="fill:#ffc4be;fill-opacity:1;fill-rule:nonzero;stroke:none"
             d="M 0,0 C -0.33,-1.977 -1.444,-3.794 -2.675,-4.954 -4.526,-6.7 -6.129,-5.462 -6.183,-3.209 -6.231,-1.181 -5.327,2.17 -3.195,3.072 -1.096,3.96 0.378,2.261 0,0" /></g><g
           id="g530"><g
             id="g532" /><g
             id="g544"><g
               style="opacity:0.30000299"
               id="g542"
               clip-path="url(#clipPath536)"><g
                 id="g540"
                 transform="translate(339.6813,246.8799)"><path
                   id="path538"
                   style="fill:#000000;fill-opacity:1;fill-rule:nonzero;stroke:none"
                   d="M 0,0 C 0.72,-16.78 1.85,-36.26 3.49,-47.39 4.12,-51.63 5.04,-57.57 6.14,-64.46 10.56,-40.34 13.2,-9.26 0,0" /></g></g></g></g><g
           transform="translate(333.0569,92.3108)"
           id="g546"><path
             id="path548"
             style="fill:#007cff;fill-opacity:1;fill-rule:nonzero;stroke:none"
             d="M 0,0 C -0.122,0 -0.236,-0.012 -0.338,-0.04 -0.5,-0.083 -0.614,-0.163 -0.687,-0.283 -0.818,-0.5 -0.777,-0.606 -0.735,-0.668 -0.41,-1.143 1.447,-1.154 2.82,-0.961 2.151,-0.611 0.859,0 0,0 m 1.114,-1.425 c -0.942,0 -1.848,0.13 -2.138,0.553 -0.102,0.149 -0.177,0.401 0.041,0.761 0.122,0.202 0.313,0.339 0.566,0.407 1.233,0.333 3.75,-1.13 3.857,-1.193 C 3.501,-0.933 3.532,-1.004 3.518,-1.076 3.504,-1.147 3.447,-1.204 3.375,-1.219 2.903,-1.312 1.993,-1.425 1.114,-1.425" /></g><g
           transform="translate(334.7109,94.0669)"
           id="g550"><path
             id="path552"
             style="fill:#007cff;fill-opacity:1;fill-rule:nonzero;stroke:none"
             d="M 0,0 C -0.034,0 -0.069,-0.002 -0.105,-0.005 -0.419,-0.037 -0.443,-0.16 -0.451,-0.201 -0.549,-0.699 0.6,-1.948 1.486,-2.492 1.412,-1.914 1.192,-0.729 0.596,-0.226 0.417,-0.074 0.221,0 0,0 m 1.687,-2.978 c -0.024,0 -0.048,0.005 -0.07,0.015 -0.873,0.398 -2.573,1.987 -2.41,2.817 0.039,0.196 0.185,0.438 0.665,0.487 C 0.228,0.377 0.55,0.277 0.827,0.042 1.734,-0.725 1.862,-2.704 1.867,-2.787 1.871,-2.849 1.841,-2.909 1.79,-2.945 1.759,-2.967 1.723,-2.978 1.687,-2.978" /></g><g
           transform="translate(344.4823,91.2629)"
           id="g554"><path
             id="path556"
             style="fill:#ffc4be;fill-opacity:1;fill-rule:nonzero;stroke:none"
             d="m 0,0 h -7.346 l -0.131,17.012 h 7.346 z" /></g><g
           transform="translate(337.2145,92.1135)"
           id="g558"><path
             id="path560"
             style="fill:#1a2e35;fill-opacity:1;fill-rule:nonzero;stroke:none"
             d="m 0,0 h 8.023 c 0.3,0 0.553,-0.208 0.607,-0.502 l 1.221,-6.53 C 9.978,-7.708 9.441,-8.35 8.748,-8.338 5.856,-8.289 1.68,-8.12 -1.958,-8.12 c -4.253,0 -7.934,-0.232 -12.922,-0.232 -3.016,0 -3.745,3.05 -2.473,3.326 5.791,1.257 10.489,1.391 15.563,4.454 C -1.238,-0.24 -0.634,0 0,0" /></g><g
           id="g562"><g
             id="g564" /><g
             id="g576"><g
               style="opacity:0.19999701"
               id="g574"
               clip-path="url(#clipPath568)"><g
                 id="g572"
                 transform="translate(337.0065,108.271)"><path
                   id="path570"
                   style="fill:#000000;fill-opacity:1;fill-rule:nonzero;stroke:none"
                   d="m 0,0 0.066,-8.769 h 7.35 L 7.349,0 Z" /></g></g></g></g><g
           transform="translate(325.541,278.1302)"
           id="g578"><path
             id="path580"
             style="fill:#007cff;fill-opacity:1;fill-rule:nonzero;stroke:none"
             d="m 0,0 c 0,0 -2.951,-54.927 -2.943,-77.33 0.008,-23.302 11.797,-99.6 11.797,-99.6 h 12.445 c 0,0 -3.241,74.937 -1.879,97.822 C 20.904,-54.159 28.126,0 28.126,0 Z" /></g><g
           transform="translate(332.1753,106.157)"
           id="g582"><path
             id="path584"
             style="fill:#1a2e35;fill-opacity:1;fill-rule:nonzero;stroke:none"
             d="m 0,0 c -0.057,0 0.52,-5.167 0.52,-5.167 h 15.138 l 0.572,4.611 z" /></g><g
           transform="translate(328.2178,341.6277)"
           id="g586"><path
             id="path588"
             style="fill:#1a2e35;fill-opacity:1;fill-rule:nonzero;stroke:none"
             d="m 0,0 c 0,0 -12.522,-31.629 -7.068,-86.294 h 45.721 c 0.484,6.031 -4.304,58.252 2.517,86.673 0,0 -6.687,1.351 -13.095,1.661 C 23.063,2.281 15.8,2.442 11.372,2.039 5.534,1.508 0,0 0,0" /></g><g
           id="g590"><g
             id="g592" /><g
             id="g604"><g
               style="opacity:0.19999701"
               id="g602"
               clip-path="url(#clipPath596)"><g
                 id="g600"
                 transform="translate(321.75,313.04)"><path
                   id="path598"
                   style="fill:#000000;fill-opacity:1;fill-rule:nonzero;stroke:none"
                   d="m 0,0 c -0.68,-5.04 -1.24,-10.71 -1.6,-16.97 8.88,8.16 11.92,28.49 11.92,28.49 z" /></g></g></g></g><g
           transform="translate(332.9253,326.5679)"
           id="g606"><path
             id="path608"
             style="fill:#1a2e35;fill-opacity:1;fill-rule:nonzero;stroke:none"
             d="m 0,0 c -1.794,-4.68 -3.616,-9.185 -5.615,-13.716 -1.968,-4.525 -4.074,-9.008 -6.396,-13.477 l -0.888,-1.677 -0.452,-0.838 c -0.19,-0.335 -0.171,-0.363 -0.695,-1.228 -0.844,-1.368 -2.212,-2.626 -3.612,-3.36 -1.398,-0.743 -2.766,-1.059 -3.909,-1.183 -2.311,-0.225 -4.036,0.099 -5.603,0.454 -1.555,0.376 -2.934,0.856 -4.239,1.378 -2.607,1.048 -4.922,2.301 -7.169,3.603 -1.123,0.649 -2.208,1.341 -3.28,2.048 -1.086,0.72 -2.089,1.41 -3.22,2.23 l 5.406,8.275 c 3.884,-2.063 8.238,-4.101 12.145,-5.267 0.971,-0.291 1.914,-0.511 2.729,-0.622 0.798,-0.12 1.511,-0.079 1.606,10e-4 0.056,0.027 -0.132,0.06 -0.466,-0.107 -0.347,-0.146 -0.8,-0.552 -1.019,-0.885 -0.207,-0.349 0.065,0.174 0.151,0.376 l 0.365,0.782 0.721,1.575 c 1.897,4.238 3.652,8.632 5.366,13.052 1.684,4.415 3.37,8.929 4.904,13.334 z" /></g><g
           transform="translate(337.9046,338.3125)"
           id="g610"><path
             id="path612"
             style="fill:#1a2e35;fill-opacity:1;fill-rule:nonzero;stroke:none"
             d="m 0,0 c 2.334,-6.539 -14.223,-32.868 -14.223,-32.868 l -9.824,9.722 c 0,0 2.515,8.278 5.827,18.231 C -14.961,4.878 -2.231,6.25 0,0" /></g></g></g></g></svg>