<?xml version="1.0" encoding="utf-8"?>
<!-- Generator: Adobe Illustrator 23.0.6, SVG Export Plug-In . SVG Version: 6.00 Build 0)  -->
<svg version="1.1" id="Layer_1" xmlns:svgjs="http://svgjs.com/svgjs"
	 xmlns="http://www.w3.org/2000/svg" xmlns:xlink="http://www.w3.org/1999/xlink" x="0px" y="0px" viewBox="0 0 512 512"
	 style="enable-background:new 0 0 512 512;" xml:space="preserve">
<style type="text/css">
	.st0{fill:#A2A2A2;}
</style>
<g>
	<g>
		<g>
			<path class="st0" d="M444.2,273.6c-1.8-3.9-5.8-6.3-10-6.3H334v-245C334,10,324,0,311.7,0H200.3c-12.3,0-22.3,10-22.3,22.3v245
				H77.8c-4.3,0-8.2,2.4-10.1,6.3c-1.8,3.9-1.3,8.4,1.3,11.8L247.3,508c4.2,5.3,13.2,5.3,17.4,0l178.2-222.7
				C445.5,282,446.1,277.4,444.2,273.6z M411,289.5L256,483.2L101,289.5h88.2c6.1,0,11.1-5,11.1-11.1V22.3h111.3v256.1
				c0,6.1,5,11.1,11.1,11.1H411z"/>
		</g>
	</g>
</g>
</svg>
