<?xml version="1.0"?>
<svg xmlns="http://www.w3.org/2000/svg" xmlns:xlink="http://www.w3.org/1999/xlink" xmlns:svgjs="http://svgjs.com/svgjs" version="1.1" width="512" height="512" x="0" y="0" viewBox="0 0 520 520" style="enable-background:new 0 0 512 512" xml:space="preserve" class=""><g><g xmlns="http://www.w3.org/2000/svg"><path d="m450.82 129.612-120-125c-2.828-2.946-6.736-4.612-10.82-4.612h-210c-24.813 0-45 20.187-45 45v430c0 24.813 20.187 45 45 45h300c24.813 0 45-20.187 45-45v-335c0-3.872-1.497-7.595-4.18-10.388zm-72.003 218.317-88.389 88.389c-17.545 17.545-40.592 26.318-63.64 26.318-23.047 0-46.094-8.773-63.639-26.318-35.092-35.091-35.092-92.188-.001-127.279l53.033-53.033c25.343-25.344 66.581-25.344 91.924 0 12.277 12.276 19.038 28.599 19.038 45.961s-6.761 33.685-19.038 45.962l-45.962 45.962c-7.555 7.555-17.6 11.716-28.284 11.716s-20.729-4.161-28.284-11.715c-15.596-15.597-15.596-40.973 0-56.569l38.891-38.891c5.857-5.858 15.355-5.858 21.213 0s5.858 15.355 0 21.213l-38.891 38.891c-3.898 3.899-3.898 10.244 0 14.143 1.889 1.889 4.4 2.929 7.071 2.929s5.183-1.04 7.071-2.929l45.962-45.962c6.61-6.611 10.251-15.4 10.251-24.749s-3.641-18.138-10.251-24.748c-13.646-13.647-35.852-13.647-49.498 0l-53.033 53.033c-23.394 23.394-23.394 61.459 0 84.853 23.395 23.393 61.459 23.395 84.854 0l88.389-88.389c5.857-5.858 15.355-5.858 21.213 0 5.859 5.857 5.859 15.354 0 21.212zm1.183-162.929h-90c-8.284 0-15-6.716-15-15v-90c0-8.284 6.716-15 15-15s15 6.716 15 15v75h75c8.284 0 15 6.716 15 15s-6.716 15-15 15z" fill="#0071bc" data-original="#000000" style="" class=""/></g></g></svg>
