<?xml version="1.0" encoding="UTF-8" standalone="no"?>
<svg
   xmlns:dc="http://purl.org/dc/elements/1.1/"
   xmlns:cc="http://creativecommons.org/ns#"
   xmlns:rdf="http://www.w3.org/1999/02/22-rdf-syntax-ns#"
   xmlns:svg="http://www.w3.org/2000/svg"
   xmlns="http://www.w3.org/2000/svg"
   viewBox="0 0 1200 1200"
   height="1200"
   width="1200"
   xml:space="preserve"
   id="svg2"
   version="1.1"><metadata
     id="metadata8"><rdf:RDF><cc:Work
         rdf:about=""><dc:format>image/svg+xml</dc:format><dc:type
           rdf:resource="http://purl.org/dc/dcmitype/StillImage" /></cc:Work></rdf:RDF></metadata><defs
     id="defs6"><clipPath
       id="clipPath30"
       clipPathUnits="userSpaceOnUse"><path
         id="path28"
         d="m 6201.02,3910.85 -1.27,0.18 -1981.48,390.99 -5.27,1.09 -5.82,1.19 -381.15,252.03 557.43,235.67 c 18.12,3.13 36.74,7.98 56.59,14.42 l 176.11,-148.03 749.09,316.75 c -128.85,23.81 -265.24,43.8 -407.8,59.52 -26.38,2.95 -53.09,5.72 -79.87,8.29 -0.92,0.09 -1.83,0.18 -2.74,0.28 27.71,-2.64 55.33,-5.52 82.61,-8.57 142.56,-15.72 278.95,-35.71 407.8,-59.52 340.29,-62.87 627.42,-152.1 834.5,-259.14 1.72,-0.91 3.36,-1.73 4.81,-2.55 223.35,-116.39 352.29,-253.6 352.29,-400.43 0,-146.82 -128.9,-284.01 -352.2,-400.4 -0.02,-0.01 -0.06,-0.03 -0.09,-0.05 -1.08,-0.63 -2.26,-1.27 -3.54,-1.72 m -2529.76,747.82 -176.45,116.69 2.86,267.21 c 218.87,21.54 451.21,33.16 691.88,33.16 9.63,0 19.18,0 28.72,-0.18 9.49,-0.03 18.95,-0.08 28.42,-0.15 l 17.46,-195.85 -592.9,-220.88 m 772.16,287.66 -12.2,125.42 c 103.64,-3.36 205.3,-8.87 304.53,-16.46 34.25,-2.55 68.15,-5.45 101.77,-8.54 v 0 0 l -0.1,-0.05 c -33.64,3.08 -67.48,6.02 -101.65,8.54 l -292.35,-108.91 m -1226.89,13.06 -60.37,39.92 c 19.4,3.04 38.92,5.99 58.61,8.86 l 1.76,-48.78 m 1648.35,84.8 c -1.82,0.16 -3.65,0.32 -5.46,0.5 -6.2,0.59 -12.4,1.2 -18.6,1.76 8.02,-0.72 16.04,-1.49 24.06,-2.26" /></clipPath><linearGradient
       id="linearGradient38"
       spreadMethod="pad"
       gradientTransform="matrix(-478.232,-2589.12,-2589.12,478.232,5137.76,6167.4)"
       gradientUnits="userSpaceOnUse"
       y2="0"
       x2="1"
       y1="0"
       x1="0"><stop
         id="stop32"
         offset="0"
         style="stop-opacity:1;stop-color:#ed1f29" /><stop
         id="stop34"
         offset="0.942581"
         style="stop-opacity:1;stop-color:#ef3831" /><stop
         id="stop36"
         offset="1"
         style="stop-opacity:1;stop-color:#ef3831" /></linearGradient><clipPath
       id="clipPath48"
       clipPathUnits="userSpaceOnUse"><path
         id="path46"
         d="m 2680.76,1437.3 h -865.05 v 986.88 l 13.47,-75.89 487.82,-385.74 363.76,86.34 V 1437.3 m -865.05,1176.57 v 986.53 h 2.6 v 0 l 2338.29,-0.33 -0.06,-956.2 -1475.78,-18.91 v -0.03 l -865.05,-11.06 m 2340.83,986.24 -0.39,0.29 h 0.39 v -0.29" /></clipPath><linearGradient
       id="linearGradient56"
       spreadMethod="pad"
       gradientTransform="matrix(1e-7,-2095.73,-2095.73,-1e-7,2986.13,3852.17)"
       gradientUnits="userSpaceOnUse"
       y2="0"
       x2="1"
       y1="0"
       x1="0"><stop
         id="stop50"
         offset="0"
         style="stop-opacity:1;stop-color:#e9641a" /><stop
         id="stop52"
         offset="0.976225"
         style="stop-opacity:1;stop-color:#f0e40e" /><stop
         id="stop54"
         offset="1"
         style="stop-opacity:1;stop-color:#f0e40e" /></linearGradient><clipPath
       id="clipPath80"
       clipPathUnits="userSpaceOnUse"><path
         id="path78"
         d="m 3826.03,4556.33 -0.03,0.02 -154.74,102.32 592.89,220.88 7.45,-83.64 c 22.62,-5.45 43.89,-8.06 65.01,-8.06 15.54,0.01 31,1.42 46.85,4.15 l -557.43,-235.67" /></clipPath><linearGradient
       id="linearGradient88"
       spreadMethod="pad"
       gradientTransform="matrix(-478.232,-2589.12,-2589.12,478.232,5137.76,6167.4)"
       gradientUnits="userSpaceOnUse"
       y2="0"
       x2="1"
       y1="0"
       x1="0"><stop
         id="stop82"
         offset="0"
         style="stop-opacity:1;stop-color:#b41d23" /><stop
         id="stop84"
         offset="0.942581"
         style="stop-opacity:1;stop-color:#b42623" /><stop
         id="stop86"
         offset="1"
         style="stop-opacity:1;stop-color:#b42623" /></linearGradient><clipPath
       id="clipPath102"
       clipPathUnits="userSpaceOnUse"><path
         id="path100"
         d="m 4616.16,4658.39 -176.11,148.03 c 5.38,1.74 10.85,3.61 16.43,5.59 l -13.07,134.32 292.35,108.91 c 34.17,-2.52 68.01,-5.46 101.65,-8.54 l 0.1,0.05 v 0 c 1.1,-0.1 2.2,-0.2 3.3,-0.3 6.2,-0.56 12.4,-1.17 18.6,-1.76 1.81,-0.18 3.64,-0.34 5.46,-0.5 2.15,-0.21 4.29,-0.42 6.44,-0.62 1.18,-0.11 2.36,-0.23 3.53,-0.34 0.91,-0.1 1.82,-0.19 2.74,-0.28 26.78,-2.57 53.49,-5.34 79.87,-8.29 142.56,-15.72 278.95,-35.71 407.8,-59.52 l -749.09,-316.75" /></clipPath><linearGradient
       id="linearGradient110"
       spreadMethod="pad"
       gradientTransform="matrix(-478.232,-2589.12,-2589.12,478.232,5137.76,6167.4)"
       gradientUnits="userSpaceOnUse"
       y2="0"
       x2="1"
       y1="0"
       x1="0"><stop
         id="stop104"
         offset="0"
         style="stop-opacity:1;stop-color:#b41d23" /><stop
         id="stop106"
         offset="0.942581"
         style="stop-opacity:1;stop-color:#b42623" /><stop
         id="stop108"
         offset="1"
         style="stop-opacity:1;stop-color:#b42623" /></linearGradient></defs><g
     transform="matrix(1.3333333,0,0,-1.3333333,0,1200)"
     id="g10"><g
       transform="scale(0.1)"
       id="g12"><path
         id="path14"
         style="fill:#9ca4ca;fill-opacity:1;fill-rule:nonzero;stroke:none"
         d="m 6238.07,1054.9 -1.3,0.47 c 181.81,92.53 295.33,198.37 320.08,311.52 v 1328.97 c 33.23,-5.48 66.01,-11.21 98.32,-17.18 340.28,-62.88 627.41,-152.11 834.49,-259.15 1.73,-0.9 3.37,-1.72 4.82,-2.54 223.35,-116.4 352.28,-253.61 352.28,-400.44 0,-146.84 -128.93,-284.05 -352.28,-400.44 -1.09,-0.64 -2.27,-1.27 -3.54,-1.73 l -1.28,0.18 -1251.59,-559.66" /><path
         id="path16"
         style="fill:#da1e25;fill-opacity:1;fill-rule:nonzero;stroke:none"
         d="m 4218.25,5075.61 -6.76,-4262.712 v -50.617 c -7.71,-0.109 -20.82,50.508 -28.64,50.508 -370.52,0 -721.17,27.481 -1033.46,76.41 l 6.76,4110.111 c 312.29,48.93 662.94,76.41 1033.46,76.41 9.61,0 19.12,0 28.64,-0.11" /><path
         id="path18"
         style="fill:#af1c27;fill-opacity:1;fill-rule:nonzero;stroke:none"
         d="m 6300.17,3929.08 -18.62,-2767.42 c -33.92,-22.3 -69.42,-71.89 -109.69,-92.81 C 5758.65,853.469 5010.25,812.09 4168.51,809.559 V 4988.74 c 222.98,17.65 2131.66,-1059.66 2131.66,-1059.66" /><path
         id="path20"
         style="fill:#c0234a;fill-opacity:1;fill-rule:nonzero;stroke:none"
         d="M 6556.85,4313.02 V 1366.89 c -26.17,-119.67 -151.66,-231.17 -352.2,-327.39 v 3673.95 c 223.26,-116.39 352.2,-253.51 352.2,-400.43" /><path
         id="path22"
         style="fill:#ed1c24;fill-opacity:1;fill-rule:nonzero;stroke:none"
         d="m 6556.85,4313.02 c 0,-146.84 -128.94,-284.05 -352.29,-400.45 -1.08,-0.63 -2.26,-1.27 -3.54,-1.72 l -1.27,0.18 -1981.48,390.99 -5.27,1.09 -5.82,1.19 -381.18,252.05 -154.74,102.32 -515.11,340.64 c 312.21,48.89 662.95,76.42 1033.4,76.42 9.63,0 19.18,0 28.72,-0.18 177.91,-0.64 351.1,-7.54 517.47,-20.26 34.25,-2.55 68.15,-5.45 101.77,-8.54 11.26,-1.01 22.53,-2.1 33.8,-3.18 28.89,-2.73 57.7,-5.73 86.14,-8.91 142.56,-15.72 278.95,-35.71 407.8,-59.52 340.29,-62.87 627.42,-152.1 834.5,-259.14 1.72,-0.91 3.36,-1.73 4.81,-2.55 223.35,-116.39 352.29,-253.6 352.29,-400.43" /><g
         id="g24"><g
           clip-path="url(#clipPath30)"
           id="g26"><path
             id="path40"
             style="fill:url(#linearGradient38);fill-opacity:1;fill-rule:nonzero;stroke:none"
             d="m 6201.02,3910.85 -1.27,0.18 -1981.48,390.99 -5.27,1.09 -5.82,1.19 -381.15,252.03 557.43,235.67 c 18.12,3.13 36.74,7.98 56.59,14.42 l 176.11,-148.03 749.09,316.75 c -128.85,23.81 -265.24,43.8 -407.8,59.52 -26.38,2.95 -53.09,5.72 -79.87,8.29 -0.92,0.09 -1.83,0.18 -2.74,0.28 27.71,-2.64 55.33,-5.52 82.61,-8.57 142.56,-15.72 278.95,-35.71 407.8,-59.52 340.29,-62.87 627.42,-152.1 834.5,-259.14 1.72,-0.91 3.36,-1.73 4.81,-2.55 223.35,-116.39 352.29,-253.6 352.29,-400.43 0,-146.82 -128.9,-284.01 -352.2,-400.4 -0.02,-0.01 -0.06,-0.03 -0.09,-0.05 -1.08,-0.63 -2.26,-1.27 -3.54,-1.72 m -2529.76,747.82 -176.45,116.69 2.86,267.21 c 218.87,21.54 451.21,33.16 691.88,33.16 9.63,0 19.18,0 28.72,-0.18 9.49,-0.03 18.95,-0.08 28.42,-0.15 l 17.46,-195.85 -592.9,-220.88 m 772.16,287.66 -12.2,125.42 c 103.64,-3.36 205.3,-8.87 304.53,-16.46 34.25,-2.55 68.15,-5.45 101.77,-8.54 v 0 0 l -0.1,-0.05 c -33.64,3.08 -67.48,6.02 -101.65,8.54 l -292.35,-108.91 m -1226.89,13.06 -60.37,39.92 c 19.4,3.04 38.92,5.99 58.61,8.86 l 1.76,-48.78 m 1648.35,84.8 c -1.82,0.16 -3.65,0.32 -5.46,0.5 -6.2,0.59 -12.4,1.2 -18.6,1.76 8.02,-0.72 16.04,-1.49 24.06,-2.26" /></g></g><g
         id="g42"><g
           clip-path="url(#clipPath48)"
           id="g44"><path
             id="path58"
             style="fill:url(#linearGradient56);fill-opacity:1;fill-rule:nonzero;stroke:none"
             d="m 2680.76,1437.3 h -865.05 v 986.88 l 13.47,-75.89 487.82,-385.74 363.76,86.34 V 1437.3 m -865.05,1176.57 v 986.53 h 2.6 v 0 l 2338.29,-0.33 -0.06,-956.2 -1475.78,-18.91 v -0.03 l -865.05,-11.06 m 2340.83,986.24 -0.39,0.29 h 0.39 v -0.29" /></g></g><path
         id="path60"
         style="fill:#f8a20e;fill-opacity:1;fill-rule:nonzero;stroke:none"
         d="m 4156.6,3600.07 -2338.29,0.33 c -7.07,23.78 -10.56,47.88 -10.56,72.18 0,299.18 534.53,558.1 1312.66,683.02 l 3.07,-1.38 1033.12,-754.15" /><path
         id="path62"
         style="fill:#e7d20b;fill-opacity:1;fill-rule:nonzero;stroke:none"
         d="M 2680.76,2624.96 V 799.531 L 4173.5,757.699 V 2644.09 l -1492.74,-19.13" /><path
         id="path64"
         style="fill:#f7f23a;fill-opacity:1;fill-rule:nonzero;stroke:none"
         d="M 4173.39,2644.01 2680.76,2048.89 2317,1962.55 l -487.82,385.74 -30.02,169.09 -0.84,96.27 2375.07,30.36" /><path
         id="path66"
         style="fill:#f0e50d;fill-opacity:1;fill-rule:nonzero;stroke:none"
         d="M 2680.76,2048.89 V 800.18 c -505.58,130.621 -841.12,326.88 -882.44,548.6 v 1264.87 c 25.15,-211.89 318.63,-401.59 774.22,-534.85 35.09,-10.25 71.23,-20.29 108.22,-29.91" /><path
         id="path68"
         style="fill:#86bd27;fill-opacity:1;fill-rule:nonzero;stroke:none"
         d="m 6212.2,1750.33 -137.39,-473.76 -1896.98,-232.53 -1469.28,382.81 0.45,0.18 1442.39,605.16 2060.81,-281.86" /><path
         id="path70"
         style="fill:#5b7f2b;fill-opacity:1;fill-rule:nonzero;stroke:none"
         d="m 6212.17,1750.33 v -699.29 c -24.94,-15.22 -51.36,-30.12 -79.26,-44.6 C 5720.54,791.48 4986.05,647.551 4146.52,644.379 h -5.28 c -7.71,-0.109 -15.53,-0.109 -23.36,-0.109 -370.51,0 -721.16,27.48 -1033.45,76.41 -132.63,20.711 -258.28,45.34 -375.59,73.34 v 633.03 c 95.74,-21.13 196.46,-39.95 301.61,-56.43 312.29,-48.93 662.94,-76.41 1033.46,-76.41 7.82,0 15.64,0 23.36,0.11 h 5.28 c 839.53,3.17 1574.01,147.1 1986.38,362.06 40.26,20.92 77.47,42.58 111.39,64.89 14.58,9.51 28.53,19.23 41.85,29.06" /><path
         id="path72"
         style="fill:#971a1f;fill-opacity:1;fill-rule:nonzero;stroke:none"
         d="m 3811.79,3851.78 -162.54,118.64 9.85,2 v 681.69 l 12.15,4.56 h 0.01 l 154.74,-102.32 0.03,-0.02 -0.03,-0.01 v -700.5 l -14.21,-4.04" /><g
         id="g74"><g
           clip-path="url(#clipPath80)"
           id="g76"><path
             id="path90"
             style="fill:url(#linearGradient88);fill-opacity:1;fill-rule:nonzero;stroke:none"
             d="m 3826.03,4556.33 -0.03,0.02 -154.74,102.32 592.89,220.88 7.45,-83.64 c 22.62,-5.45 43.89,-8.06 65.01,-8.06 15.54,0.01 31,1.42 46.85,4.15 l -557.43,-235.67" /></g></g><path
         id="path92"
         style="fill:#b15d1e;fill-opacity:1;fill-rule:nonzero;stroke:none"
         d="m 3415.48,3739.07 -53.23,154.79 c 42.18,1.34 83.68,12.04 123.44,32.19 l 0.12,11.11 163.44,33.26 162.54,-118.64 -396.31,-112.71" /><path
         id="path94"
         style="fill:#b19190;fill-opacity:1;fill-rule:nonzero;stroke:none"
         d="m 4874.84,5043.23 c -1.17,0.11 -2.35,0.23 -3.53,0.34 -2.15,0.2 -4.29,0.41 -6.44,0.62 2.14,-0.19 4.28,-0.38 6.39,-0.59 1.21,-0.11 2.39,-0.24 3.58,-0.37 m -34.03,3.22 c -1.1,0.1 -2.2,0.2 -3.3,0.3 1.1,-0.1 2.2,-0.2 3.3,-0.3" /><g
         id="g96"><g
           clip-path="url(#clipPath102)"
           id="g98"><path
             id="path112"
             style="fill:url(#linearGradient110);fill-opacity:1;fill-rule:nonzero;stroke:none"
             d="m 4616.16,4658.39 -176.11,148.03 c 5.38,1.74 10.85,3.61 16.43,5.59 l -13.07,134.32 292.35,108.91 c 34.17,-2.52 68.01,-5.46 101.65,-8.54 l 0.1,0.05 v 0 c 1.1,-0.1 2.2,-0.2 3.3,-0.3 6.2,-0.56 12.4,-1.17 18.6,-1.76 1.81,-0.18 3.64,-0.34 5.46,-0.5 2.15,-0.21 4.29,-0.42 6.44,-0.62 1.18,-0.11 2.36,-0.23 3.53,-0.34 0.91,-0.1 1.82,-0.19 2.74,-0.28 26.78,-2.57 53.49,-5.34 79.87,-8.29 142.56,-15.72 278.95,-35.71 407.8,-59.52 l -749.09,-316.75" /></g></g><path
         id="path114"
         style="fill:#100f0d;fill-opacity:1;fill-rule:nonzero;stroke:none"
         d="m 3298.27,3797.01 c -0.66,4.5 0.44,-4.62 0,0 0.44,-9.92 2.29,-5.58 3.67,-14.97 37.72,-60.38 159.5,-55.18 189.21,3.4 -0.51,4.64 -0.68,4.63 -1.32,9.26 -30.97,-57.39 -154.15,-57.57 -191.56,2.31" /><path
         id="path116"
         style="fill:#40201f;fill-opacity:1;fill-rule:nonzero;stroke:none"
         d="m 3313.46,3950.98 c -14.52,-61.55 -22.45,-104.72 -15.19,-153.97 37.72,-60.38 162.71,-59.49 192.42,-0.91 -6.04,55.28 -21.74,109.83 -47.59,163.61 l -129.64,-8.73" /><path
         id="path118"
         style="fill:#40201f;fill-opacity:1;fill-rule:nonzero;stroke:none"
         d="m 4453.24,4832.12 c 2.84,-54.62 46.03,-82.51 147.59,-108.38 13.59,-3.68 21.77,-13.34 24.45,-29.06 l 1.65,-24.48 c -5.23,-10.45 -13.73,-14 -20.59,-15.01 -160.22,-23.41 -175.21,0.65 -194.59,6.48 -11.85,3.57 -31.14,15.37 -33.19,24.19 l -20.56,-17.09 -80.23,13.3 c -12.29,57.55 -16.4,77.77 -6.17,113.84 l 181.64,36.21" /><path
         id="path120"
         style="fill:#100f0d;fill-opacity:1;fill-rule:nonzero;stroke:none"
         d="m 4605.14,4672.76 c -160.22,-23.42 -175.21,0.65 -194.58,6.48 -11.86,3.56 -31.15,15.37 -33.2,24.18 l -20.55,-17.08 -80.24,13.3 c -5.27,24.66 -9.02,42.45 -10.79,57.59 0.22,-19.02 4.6,-40.03 11.92,-74.28 l 80.23,-13.3 20.56,17.09 c 2.04,-8.82 21.33,-20.62 33.19,-24.19 19.37,-5.83 34.36,-29.89 194.58,-6.48 6.86,1.01 15.36,4.55 20.6,15.01 l -1.12,16.69 c -5.24,-10.46 -13.74,-14.01 -20.6,-15.01" /><path
         id="path122"
         style="fill:#f8a479;fill-opacity:1;fill-rule:nonzero;stroke:none"
         d="m 3198.13,6984.02 c -32.39,65.25 -61.64,79.06 -87.76,41.42 -22.25,-44.61 22.59,-113.6 67.31,-120.32 l 20.45,78.9" /><path
         id="path124"
         style="fill:#f8a479;fill-opacity:1;fill-rule:nonzero;stroke:none"
         d="m 3513.72,7012.53 c 26.15,68 54.97,84.23 86.46,48.69 28.27,-42.86 -10.39,-115.62 -56.11,-126.02 l -30.35,77.33" /><path
         id="path126"
         style="fill:#ed6d58;fill-opacity:1;fill-rule:nonzero;stroke:none"
         d="m 3475.51,6501.56 0.58,295.87 -215,-6.95 24.01,-274.44 190.41,-14.48" /><path
         id="path128"
         style="fill:#f8a479;fill-opacity:1;fill-rule:nonzero;stroke:none"
         d="m 3375.22,6701.63 v 0 c -103.94,-7.03 -194.24,64.99 -200.66,160.03 l -15.41,227.93 c -6.43,95.04 73.36,178.55 177.3,185.58 103.94,7.03 194.24,-64.99 200.67,-160.03 l 15.4,-227.93 c 6.44,-95.04 -73.35,-178.55 -177.3,-185.58" /><path
         id="path130"
         style="fill:#f8a479;fill-opacity:1;fill-rule:nonzero;stroke:none"
         d="m 3333.65,6640.26 v 0 c -20.84,-1.83 -41.19,-0.02 -60.47,4.8 l 11.28,-129.02 190.41,-14.48 0.45,227.39 c -29.48,-48.72 -80.93,-83.36 -141.67,-88.69" /><path
         id="path132"
         style="fill:#632327;fill-opacity:1;fill-rule:nonzero;stroke:none"
         d="m 3195.78,7336.61 c 68.46,30.83 98.92,-21.72 75.77,-50.85 0,0 -53.16,-34.44 -25.38,-6.95 36.87,36.49 2.51,62.06 -50.39,57.8" /><path
         id="path134"
         style="fill:#ffffff;fill-opacity:1;fill-rule:nonzero;stroke:none"
         d="m 3442.66,7013.81 -14.21,-1.71 c -16.93,-2.04 -32.45,10.14 -34.49,27.07 -2.04,16.93 10.14,32.45 27.08,34.49 l 14.2,1.71 c 16.93,2.04 32.45,-10.14 34.49,-27.07 2.04,-16.93 -10.15,-32.45 -27.07,-34.49" /><path
         id="path136"
         style="fill:#ffffff;fill-opacity:1;fill-rule:nonzero;stroke:none"
         d="m 3287.11,7003.34 -14.2,-1.71 c -16.93,-2.04 -32.46,10.14 -34.49,27.07 -2.04,16.93 10.14,32.45 27.07,34.49 l 14.2,1.71 c 16.93,2.05 32.45,-10.14 34.49,-27.07 2.04,-16.92 -10.14,-32.44 -27.07,-34.49" /><path
         id="path138"
         style="fill:#632327;fill-opacity:1;fill-rule:nonzero;stroke:none"
         d="m 3380.25,7090.81 c 24.27,16.64 60.42,17.02 104.94,5.96 6.2,0.35 10.88,7.66 10.4,16.23 -0.49,8.58 -5.97,15.31 -12.18,14.95 -36.79,7.76 -71.83,6.07 -104.93,-5.96 -6.2,-0.35 -10.88,-7.65 -10.39,-16.23 0.48,-8.57 5.96,-15.3 12.16,-14.95" /><path
         id="path140"
         style="fill:#632327;fill-opacity:1;fill-rule:nonzero;stroke:none"
         d="m 3315.08,7087.13 c -26.53,12.86 -62.44,7.89 -104.95,-9.65 -6.2,-0.57 -11.92,5.96 -12.71,14.52 -0.79,8.55 3.65,16.02 9.86,16.59 35.34,13.11 70.34,16.63 104.94,9.64 6.21,0.57 11.93,-5.96 12.71,-14.51 0.79,-8.56 -3.64,-16.02 -9.85,-16.59" /><path
         id="path142"
         style="fill:#e5705c;fill-opacity:1;fill-rule:nonzero;stroke:none"
         d="m 3308.92,7060.87 c -25.41,3.76 -49.08,-0.78 -71.31,-12.11 -3.88,-0.65 -7.6,1.98 -8.25,5.86 -0.66,3.88 1.97,7.59 5.85,8.25 16.77,10.59 37.03,17.92 71.32,12.11 3.88,0.66 7.59,-1.97 8.25,-5.85 0.66,-3.89 -1.98,-7.6 -5.86,-8.26" /><path
         id="path144"
         style="fill:#e5705c;fill-opacity:1;fill-rule:nonzero;stroke:none"
         d="m 3468.55,7067.66 c -24.41,8.01 -48.5,7.55 -72.33,0.15 -3.93,0.01 -7.15,3.23 -7.14,7.17 0.01,3.93 3.23,7.15 7.17,7.14 18.32,7.6 39.53,11.39 72.33,-0.15 3.94,-0.01 7.15,-3.24 7.15,-7.17 -0.01,-3.94 -3.24,-7.15 -7.18,-7.14" /><path
         id="path146"
         style="fill:#f5785e;fill-opacity:1;fill-rule:nonzero;stroke:none"
         d="m 3303.77,6875.54 c 43.32,-5.46 85.85,-3.46 127.49,6.72 9.51,2.33 17.51,-7.43 13.2,-16.22 -42.58,-86.86 -120.93,-59.35 -151.98,-7.96 -5,8.28 1.69,18.67 11.29,17.46" /><path
         id="path148"
         style="fill:#ffffff;fill-opacity:1;fill-rule:nonzero;stroke:none"
         d="m 3317.62,6868.93 c 34.59,-4.73 68.5,-3.16 101.68,5.35 5.73,1.47 10.71,-4.49 8.24,-9.87 -32.5,-70.67 -95,-47.16 -117.37,-6.08 -2.88,5.26 1.51,11.42 7.45,10.6" /><path
         id="path150"
         style="fill:#632327;fill-opacity:1;fill-rule:nonzero;stroke:none"
         d="m 3230.06,7251.53 c 33.42,-61.03 56.77,-137.7 226.75,-85.67 -120.35,-19.92 -190.53,49.04 -226.75,85.67" /><path
         id="path152"
         style="fill:#f1785d;fill-opacity:1;fill-rule:nonzero;stroke:none"
         d="m 3317.21,7036.46 c 1.96,-19.12 0.69,-37.82 -0.9,-56.91 -1.3,-15.49 -6.81,-38.42 0.49,-53.07 13.36,-26.78 62.3,-14.89 84.84,-10.61 23.68,4.49 13.65,40.64 -9.97,36.16 -10.45,-1.99 -38.81,-9.24 -48.27,-2.13 2.87,-3.74 5.74,-7.47 8.62,-11.21 -3.02,15.44 1.26,33.5 2.51,49.02 1.31,16.38 1.86,32.37 0.18,48.75 -2.43,23.77 -39.96,24.02 -37.5,0" /><path
         id="path154"
         style="fill:#f1785d;fill-opacity:1;fill-rule:nonzero;stroke:none"
         d="m 3375.45,6759.05 c 24.13,0 24.17,37.5 0,37.5 -24.13,0 -24.17,-37.5 0,-37.5" /><path
         id="path156"
         style="fill:#382623;fill-opacity:1;fill-rule:nonzero;stroke:none"
         d="m 3295.19,7037.93 c 1.04,-11.81 -7.7,-22.22 -19.51,-23.26 -11.81,-1.03 -22.22,7.7 -23.26,19.51 -1.03,11.81 7.7,22.22 19.51,23.26 11.81,1.03 22.22,-7.7 23.26,-19.51" /><path
         id="path158"
         style="fill:#382623;fill-opacity:1;fill-rule:nonzero;stroke:none"
         d="m 3457.27,7051.01 c 1.04,-11.81 -7.69,-22.22 -19.5,-23.26 -11.81,-1.03 -22.23,7.7 -23.26,19.51 -1.04,11.81 7.69,22.22 19.5,23.26 11.81,1.03 22.23,-7.7 23.26,-19.51" /><path
         id="path160"
         style="fill:#ffffff;fill-opacity:1;fill-rule:nonzero;stroke:none"
         d="m 3287.92,7042.72 c 0.39,-4.43 -2.89,-8.35 -7.33,-8.74 -4.44,-0.39 -8.36,2.89 -8.74,7.33 -0.39,4.44 2.89,8.36 7.33,8.75 4.44,0.39 8.35,-2.9 8.74,-7.34" /><path
         id="path162"
         style="fill:#ffffff;fill-opacity:1;fill-rule:nonzero;stroke:none"
         d="m 3449.83,7054.6 c 0.39,-4.44 -2.89,-8.35 -7.33,-8.74 -4.44,-0.39 -8.35,2.89 -8.74,7.33 -0.39,4.44 2.89,8.35 7.33,8.74 4.44,0.39 8.36,-2.89 8.74,-7.33" /><path
         id="path164"
         style="fill:#632327;fill-opacity:1;fill-rule:nonzero;stroke:none"
         d="m 3241.62,7234.19 c 43.91,-73.86 180.11,-71.95 278.63,-57.52 l 15.99,-138.22 12.16,0.82 c 0,0 -9.97,40.71 20.49,40.32 l -6.45,77.13 c 7.83,87.89 -103.27,268.46 -297.64,175.32 -85.21,5.48 -177.76,-105.82 -148.56,-220.69 l 10.74,-69.19 c 39.55,5.75 34.19,-35.2 34.19,-35.2 l 11.33,0.86 -2.63,118.42 c 46.35,26.72 60.84,55.83 71.75,107.95" /><path
         id="path166"
         style="fill:#ffffff;fill-opacity:1;fill-rule:nonzero;stroke:none"
         d="m 3758.5,5585.54 c -57.73,495.98 -50.86,750.1 -99.94,915.87 l -426.63,91.16 -161.82,-176.77 c 122.06,-83.35 150.81,-700.02 134.61,-840.69 214.93,-21.39 386.26,-95.65 553.78,10.43" /><path
         id="path168"
         style="fill:#4f404e;fill-opacity:1;fill-rule:nonzero;stroke:none"
         d="m 3765.62,5707.85 516.89,-77.27 c 63.39,-10.89 105.04,-46.26 106.4,-123.96 l 67.57,-694.61 c -68.55,-24.32 -121.42,-31.38 -184.88,-16.1 l -54.53,611.71 -600.4,-0.93 c -26.7,-4.19 -116.58,-113.34 -116.58,-139.24 l -14.4,-1341.4 c -73.39,-37.19 -152.71,-42.19 -231.22,-15.56 l -58.93,1628.97 424.36,64.77 145.72,103.62" /><path
         id="path170"
         style="fill:#392f37;fill-opacity:1;fill-rule:nonzero;stroke:none"
         d="m 3345.42,3892.99 c -29.08,1.11 -58.42,6.61 -87.63,16.52 l -17.13,475.63 -13.76,626.81 -66.83,605.23 134.52,2.72 50.83,-1726.91" /><path
         id="path172"
         style="fill:#392f37;fill-opacity:1;fill-rule:nonzero;stroke:none"
         d="m 4255.39,5448.06 -483.29,78.45 -161.91,-116.58 h -9.72 l 579.65,-25.91 91.48,-588.11 c 27.31,-3.15 17.63,-6.09 45.07,-7.27 l -61.28,659.42" /><path
         id="path174"
         style="fill:#352c33;fill-opacity:1;fill-rule:nonzero;stroke:none"
         d="m 3239.34,4445.64 -19.7,632.06 7.26,-65.75 12.44,-566.31 m 87.32,84.54 -16.06,545.54 h 0.01 l 16.05,-545.53" /><path
         id="path176"
         style="fill:#272124;fill-opacity:1;fill-rule:nonzero;stroke:none"
         d="m 3244.78,4270.88 -5.44,174.76 -12.44,566.31 -7.26,65.74 v 0.01 l 90.97,-1.98 16.05,-545.54 -81.88,-259.3" /><path
         id="path178"
         style="fill:#e3e2e0;fill-opacity:1;fill-rule:nonzero;stroke:none"
         d="m 3491.68,6463.08 c 21.31,48.53 31.91,98.26 31.99,149.16 l -48.51,36.55 c 7.24,-49.53 -39.07,-85.77 -73.44,-92.6 l 89.96,-93.11" /><path
         id="path180"
         style="fill:#e3e2e0;fill-opacity:1;fill-rule:nonzero;stroke:none"
         d="m 3326.39,6445.23 c -45.84,45.24 -75.18,105.21 -93.8,174.74 l 39.91,40.11 c -0.61,-47.07 91.42,-98.38 129.18,-104.3 l -75.29,-110.55" /><path
         id="path182"
         style="fill:#ef2d2e;fill-opacity:1;fill-rule:nonzero;stroke:none"
         d="m 3401.48,6558.19 -46.45,-74.06 46.35,-53.97 28.34,-732.42 90.88,-74.09 69.08,101.47 c 0,0 -114.42,600.16 -138.17,711.34 l 8.34,60.93 -58.37,60.8" /><path
         id="path184"
         style="fill:#392f37;fill-opacity:1;fill-rule:nonzero;stroke:none"
         d="m 3080.96,6369.59 c 30.58,-343.17 -8.58,-757.17 0.29,-1007.61 l 334.39,-23.78 c 23.5,4.03 48.1,18.9 50.83,43.48 l -13.27,725.7 -88.79,189.46 -108.23,181.73 -175.22,-108.98" /><path
         id="path186"
         style="fill:#ababaa;fill-opacity:1;fill-rule:nonzero;stroke:none"
         d="m 3081.25,5361.98 v 0 c -8.87,250.44 27.43,664.15 -3.14,1007.32 l 21.66,13.48 c 0.22,-0.35 0.45,-0.72 0.67,-1.07 l -19.48,-12.12 c 30.58,-343.17 -8.58,-757.17 0.29,-1007.61 v 0" /><path
         id="path188"
         style="fill:#abaaa9;fill-opacity:1;fill-rule:nonzero;stroke:none"
         d="m 3100.44,6381.71 c -0.22,0.35 -0.45,0.72 -0.67,1.07 l 40.98,25.48 c 0.04,-0.48 0.08,-0.93 0.12,-1.41 l -40.43,-25.14" /><path
         id="path190"
         style="fill:#272124;fill-opacity:1;fill-rule:nonzero;stroke:none"
         d="m 3148.72,5357.47 -67.47,4.51 c -8.87,250.44 30.29,664.44 -0.29,1007.61 l 19.48,12.12 40.43,25.14 c 30.89,-336.87 -1.51,-802.89 7.85,-1049.38" /><path
         id="path192"
         style="fill:#f8a479;fill-opacity:1;fill-rule:nonzero;stroke:none"
         d="m 4185.18,7202.7 21.24,74.8 -29.94,77.44 23.89,109.41 c 30.93,-9.87 27.02,-60.83 17.93,-82.26 l -1.7,-3.54 5.53,36.33 124.86,-54.03 -20.83,-81.86 -39.45,-52.08 -24.26,-92.56 -88.36,46.35 11.09,22" /><path
         id="path194"
         style="fill:#f5785e;fill-opacity:1;fill-rule:nonzero;stroke:none"
         d="m 4311.17,7344.98 c -3.18,-10.87 -13.81,-15.9 -23.61,-11.16 -8.6,4.15 -13.81,14.5 -12.8,24.32 l -3.1,-10.57 c -3.19,-10.87 2.23,-23.64 12.02,-28.37 9.8,-4.74 20.43,0.28 23.61,11.15 l 16.87,57.57 c 0.39,1.32 0.64,2.68 0.78,4.05 l -13.77,-46.99" /><path
         id="path196"
         style="fill:#f5785e;fill-opacity:1;fill-rule:nonzero;stroke:none"
         d="m 4279.15,7357.08 c -3.37,-11.51 -14.61,-16.82 -24.98,-11.81 l -0.51,0.24 c -9.17,4.43 -14.69,15.52 -13.5,25.98 l -3.1,-10.58 c -3.37,-11.5 2.35,-25.01 12.73,-30.02 l 0.5,-0.24 c 10.37,-5.01 21.61,0.3 24.98,11.81 l 19.05,64.98 c 0.38,1.33 0.62,2.68 0.78,4.04 l -15.95,-54.4" /><path
         id="path198"
         style="fill:#f5785e;fill-opacity:1;fill-rule:nonzero;stroke:none"
         d="m 4254.17,7381.43 c -3.38,-11.51 -14.62,-16.82 -24.99,-11.81 l -0.5,0.24 c -9.18,4.43 -14.69,15.51 -13.51,25.98 l -3.1,-10.58 c -3.37,-11.5 2.36,-25.01 12.72,-30.02 l 0.51,-0.24 c 10.37,-5.01 21.61,0.31 24.98,11.81 l 19.05,64.99 c 0.39,1.32 0.63,2.68 0.78,4.04 l -15.94,-54.41" /><path
         id="path200"
         style="fill:#f5785e;fill-opacity:1;fill-rule:nonzero;stroke:none"
         d="m 4337.32,7324.17 c -3.67,-10.07 -14.16,-14.04 -23.31,-8.83 -7,4 -11.24,12.25 -11.22,20.42 l -2.63,-7.23 c -3.67,-10.07 0.81,-22.59 9.97,-27.8 9.15,-5.22 19.65,-1.25 23.32,8.82 l 16.31,44.76 c 0.86,2.37 1.24,4.88 1.24,7.4 l -13.68,-37.54" /><path
         id="path202"
         style="fill:#4f404e;fill-opacity:1;fill-rule:nonzero;stroke:none"
         d="m 5469.02,6030.32 -1945.35,2168.48 22.54,20.37 1945.35,-2168.48 -22.54,-20.37" /><path
         id="path204"
         style="fill:#9d1e22;fill-opacity:1;fill-rule:nonzero;stroke:none"
         d="m 4096.88,8004.11 -75.03,74.82 62.25,55.24 104.15,1.92 28.44,-31.69 -4.49,-24.49 -65.56,-27.24 -33.7,-27.35 -16.06,-21.21" /><path
         id="path206"
         style="fill:#f0382f;fill-opacity:1;fill-rule:nonzero;stroke:none"
         d="m 3572.94,8143.33 c 0,0 318.39,273.51 429.68,173.08 111.3,-100.42 190.72,-200.74 190.72,-200.74 0,0 -50.47,18.84 -151.83,-25.66 -64.61,-28.36 -255.98,-183.58 -255.98,-183.58 l -212.59,236.9" /><path
         id="path208"
         style="fill:#dd1f25;fill-opacity:1;fill-rule:nonzero;stroke:none"
         d="m 4031.02,8290.17 362.01,157.54 -124.86,-228.12 341.09,-24.65 -443.91,-194.1 c -76.97,-29.26 -103.32,28.12 -21.68,58.09 111.48,36.53 36.4,59.55 49.67,56.75 l -162.32,174.49" /><path
         id="path210"
         style="fill:#f8a479;fill-opacity:1;fill-rule:nonzero;stroke:none"
         d="m 4328.26,7394.99 -16.87,-57.56 c -3.18,-10.87 -13.81,-15.9 -23.61,-11.16 -9.8,4.73 -15.21,17.5 -12.02,28.37 l 16.87,57.56 c 3.18,10.87 13.81,15.89 23.61,11.16 9.8,-4.73 15.21,-17.5 12.02,-28.37" /><path
         id="path212"
         style="fill:#f8a479;fill-opacity:1;fill-rule:nonzero;stroke:none"
         d="m 4297.96,7421.33 -19.04,-64.99 c -3.37,-11.51 -14.27,-16.99 -24.22,-12.18 l -0.48,0.23 c -9.95,4.81 -15.33,18.15 -11.96,29.65 l 19.04,64.99 c 3.37,11.5 14.27,16.99 24.22,12.18 l 0.48,-0.23 c 9.95,-4.81 15.34,-18.15 11.96,-29.65" /><path
         id="path214"
         style="fill:#f8a479;fill-opacity:1;fill-rule:nonzero;stroke:none"
         d="m 4269.96,7441.93 -18.37,-62.65 c -3.25,-11.09 -14.09,-16.21 -24.08,-11.38 l -0.49,0.23 c -9.99,4.83 -15.52,17.86 -12.26,28.95 l 18.36,62.65 c 3.24,11.09 14.08,16.21 24.08,11.38 l 0.49,-0.24 c 9.99,-4.82 15.51,-17.85 12.27,-28.94" /><path
         id="path216"
         style="fill:#f8a479;fill-opacity:1;fill-rule:nonzero;stroke:none"
         d="m 4320.25,7386.56 -16.31,-44.76 c -3.68,-10.07 0.81,-22.59 9.96,-27.81 9.16,-5.22 19.65,-1.24 23.32,8.83 l 16.31,44.76 c 3.67,10.07 -0.81,22.59 -9.97,27.81 -9.15,5.22 -19.64,1.24 -23.31,-8.83" /><path
         id="path218"
         style="fill:#e3e2e0;fill-opacity:1;fill-rule:nonzero;stroke:none"
         d="m 4273.1,7121.72 c 7.26,37.66 14.83,73.49 24.74,106.49 l -118.04,27.39 -26.17,-102.54 119.47,-31.34" /><path
         id="path220"
         style="fill:#392f37;fill-opacity:1;fill-rule:nonzero;stroke:none"
         d="m 3541.04,6623.49 c 191.57,50.89 387.52,145.85 431.33,201.95 74.38,127.38 164.1,245.35 194.35,421.98 l 131.12,-37.87 c -43.65,-235.39 -35.13,-244.28 -107.28,-424.16 -1.4,-18.79 -24.69,-85.22 -81.21,-125.46 -229.33,-177.75 -479.47,-310.99 -459.11,-330.34 l -109.2,293.9" /><path
         id="path222"
         style="fill:#392f37;fill-opacity:1;fill-rule:nonzero;stroke:none"
         d="m 3515.74,6624.92 20.35,-155.67 -8.17,-178.24 -24.15,-177.37 66.89,-680.14 c 2.05,-23.1 9.33,-39 33.62,-39.58 18.48,-0.45 27.36,13.73 27.36,13.73 0,0 175.21,50.73 156.24,164.19 -35.21,210.49 -27.02,493.31 -43.11,707.58 l 1.43,306 -230.46,39.5" /><path
         id="path224"
         style="fill:#4f404e;fill-opacity:1;fill-rule:nonzero;stroke:none"
         d="m 3475.19,6661.38 91.3,-21.86 2.21,-80.49 -43.21,8.73 38.89,-36.86 -48.1,-568.3 -19.34,188.15 c 0,0 22.56,391.5 -21.75,510.63" /><path
         id="path226"
         style="fill:#5a2927;fill-opacity:1;fill-rule:nonzero;stroke:none"
         d="m 2881.92,5082.85 c 4.42,61.1 44.65,107.38 89.86,103.38 45.2,-3.99 78.27,-56.75 73.85,-117.85 -1.38,-19.19 -6.31,-36.9 -13.81,-52.07 15.69,18.04 26.18,42.27 28.16,69.62 4.41,61.09 -35.05,114.42 -88.15,119.11 -53.1,4.7 -99.73,-41.02 -104.15,-102.12 -2.24,-30.92 6.81,-59.83 23.14,-81.48 -7.1,18.08 -10.5,39.18 -8.9,61.41" /><path
         id="path228"
         style="fill:#4a2423;fill-opacity:1;fill-rule:nonzero;stroke:none"
         d="m 2586.03,4798.19 24.57,339.62 -42.79,-547.51 167.1,-14.77 79.58,202.47 -228.46,20.19" /><path
         id="path230"
         style="fill:#40201f;fill-opacity:1;fill-rule:nonzero;stroke:none"
         d="m 2980.16,4719.14 -121.94,10.77 3.15,43.67 121.95,-10.78 z m -245.25,-143.61 517.36,-45.34 13.84,207.89 -451.62,39.92 -79.58,-202.47" /><path
         id="path232"
         style="fill:#7a322d;fill-opacity:1;fill-rule:nonzero;stroke:none"
         d="m 3266.11,4738.08 24.56,339.62 -24.56,-339.62" /><path
         id="path234"
         style="fill:#7a322d;fill-opacity:1;fill-rule:nonzero;stroke:none"
         d="m 2586.03,4798.19 228.46,-20.19 165.61,327.15 -369.5,32.66 -24.57,-339.62" /><path
         id="path236"
         style="fill:#662b2a;fill-opacity:1;fill-rule:nonzero;stroke:none"
         d="m 3290.7,5077.68 -24.61,-339.63 -451.61,39.97 165.6,327.12 310.62,-27.46" /><path
         id="path238"
         style="fill:#afcfe2;fill-opacity:1;fill-rule:nonzero;stroke:none"
         d="m 2853.02,4730.42 132.42,-13.05 3.05,47.63 -132.42,13.05 -3.05,-47.63" /><path
         id="path240"
         style="fill:#f8a479;fill-opacity:1;fill-rule:nonzero;stroke:none"
         d="m 2980.39,5417.93 10.86,-87.41 64.25,-58.74 23.21,-123.46 c -35.86,-9.09 -54.05,44.01 -54.09,70.88 l 0.19,4.56 10.16,-39.53 -150.96,-22.56 -14.35,94.18 17.62,75.93 -15.51,106.91 110.36,7.91 -1.74,-28.67" /><path
         id="path242"
         style="fill:#f8a479;fill-opacity:1;fill-rule:nonzero;stroke:none"
         d="m 2921.15,5140.48 -7.82,67.58 c -1.48,12.76 7.18,24.25 19.25,25.53 12.06,1.28 23.14,-8.11 24.62,-20.87 l 7.82,-67.59 c 1.47,-12.76 -7.18,-24.25 -19.25,-25.53 -12.06,-1.28 -23.14,8.11 -24.62,20.88" /><path
         id="path244"
         style="fill:#f8a479;fill-opacity:1;fill-rule:nonzero;stroke:none"
         d="m 2958.27,5140.42 -8.83,76.3 c -1.57,13.51 7.18,25.62 19.42,26.92 l 0.6,0.06 c 12.24,1.3 23.55,-8.68 25.11,-22.19 l 8.83,-76.3 c 1.57,-13.5 -7.17,-25.62 -19.43,-26.92 l -0.59,-0.06 c -12.25,-1.3 -23.55,8.68 -25.11,22.19" /><path
         id="path246"
         style="fill:#f8a479;fill-opacity:1;fill-rule:nonzero;stroke:none"
         d="m 2996.14,5149.67 -8.83,76.3 c -1.56,13.51 7.6,25.67 20.37,27.02 l 0.62,0.07 c 12.76,1.35 24.49,-8.59 26.05,-22.09 l 8.83,-76.3 c 1.57,-13.51 -7.59,-25.67 -20.36,-27.02 l -0.62,-0.07 c -12.77,-1.35 -24.49,8.58 -26.06,22.09" /><path
         id="path248"
         style="fill:#f8a479;fill-opacity:1;fill-rule:nonzero;stroke:none"
         d="m 2927.29,5142.17 -2.82,54.5 c -0.63,12.27 -10.66,21.98 -22.27,21.58 -11.61,-0.4 -20.6,-10.77 -19.96,-23.04 l 2.81,-54.5 c 0.64,-12.27 10.66,-21.98 22.28,-21.57 11.61,0.4 20.59,10.76 19.96,23.03" /><path
         id="path250"
         style="fill:#e3e2e0;fill-opacity:1;fill-rule:nonzero;stroke:none"
         d="m 3024.77,5471.4 c 0,-66.6 -8.1,-96.4 -9.52,-133.2 l -139.6,6.52 0.75,117.38 148.37,9.3" /><path
         id="path252"
         style="fill:#392f37;fill-opacity:1;fill-rule:nonzero;stroke:none"
         d="m 3271.05,6654.98 c -40.38,-10.46 -105.19,-39.51 -256.58,-153.42 -59.97,-187.41 -139.5,-404.84 -152.6,-591.01 -12.18,-165.37 -7.47,-374.46 -3.18,-533.58 l 183.05,11.64 25.06,488.51 74.37,460.79 144.96,22.58 -15.08,294.49" /><path
         id="path254"
         style="fill:#4f404e;fill-opacity:1;fill-rule:nonzero;stroke:none"
         d="m 3272.5,6660.08 -87.31,-35.16 38,-92.97 45.6,23.98 -30.21,-59.37 214.79,-456.05 -1.28,104.44 c 0,0 -189.7,506.84 -179.59,515.13" /><path
         id="path256"
         style="fill:#991a23;fill-opacity:1;fill-rule:nonzero;stroke:none"
         d="m 4351,2004.89 -177.5,24.28 v 614.44 L 4351,2004.89" /><path
         id="path258"
         style="fill:#c8bc16;fill-opacity:1;fill-rule:nonzero;stroke:none"
         d="m 4173.5,2029.17 -22.11,3.02 h 22.11 v -3.02 m 0,3.02 -0.11,611.82 0.11,-0.4 v -611.42" /><path
         id="path260"
         style="fill:#74aa2c;fill-opacity:1;fill-rule:nonzero;stroke:none"
         d="m 3403.03,1322.61 c -132.47,11.99 -260.31,27.53 -382.3,46.4 -0.02,0.01 0,0 -0.02,0.01 -0.48,0.07 -0.96,0.15 -1.44,0.22 -0.06,0.01 -0.13,0.02 -0.19,0.03 -0.55,0.09 -1.12,0.17 -1.67,0.26 -0.45,0.07 -0.92,0.14 -1.38,0.21 -0.09,0.02 -0.18,0.03 -0.28,0.05 -0.49,0.08 -0.95,0.15 -1.44,0.22 -0.12,0.02 -0.26,0.04 -0.38,0.06 -0.48,0.08 -0.95,0.15 -1.42,0.22 -0.12,0.02 -0.22,0.04 -0.33,0.06 -0.57,0.08 -1.15,0.18 -1.73,0.27 v 0 c -105.08,16.47 -205.73,35.27 -301.43,56.4 l -0.02,0.01 1442.39,605.16 22.11,-3.02 177.5,-24.28 v 0 l -947.97,-682.28" /><path
         id="path262"
         style="fill:#507129;fill-opacity:1;fill-rule:nonzero;stroke:none"
         d="m 3020.73,1369.01 c 0,0.01 -0.01,0.01 -0.02,0.01 0.02,-0.01 0,0 0.02,-0.01 m -1.46,0.23 c -0.06,0.01 -0.13,0.02 -0.19,0.03 0.06,-0.01 0.13,-0.02 0.19,-0.03 m -1.86,0.29 c -0.46,0.07 -0.92,0.14 -1.38,0.21 0.46,-0.07 0.93,-0.14 1.38,-0.21 m -1.66,0.26 c -0.48,0.07 -0.96,0.15 -1.44,0.22 0.49,-0.07 0.95,-0.14 1.44,-0.22 m -1.82,0.28 c -0.48,0.08 -0.95,0.15 -1.42,0.22 0.47,-0.07 0.94,-0.14 1.42,-0.22 m -1.75,0.28 c -0.57,0.09 -1.15,0.18 -1.73,0.27 v 0 0 c 0.58,-0.09 1.16,-0.19 1.73,-0.27" /></g></g></svg>