<?xml version="1.0"?>
<svg xmlns="http://www.w3.org/2000/svg" xmlns:xlink="http://www.w3.org/1999/xlink" xmlns:svgjs="http://svgjs.com/svgjs" version="1.1" width="512" height="512" x="0" y="0" viewBox="0 0 96.992 96.992" style="enable-background:new 0 0 512 512" xml:space="preserve" class=""><g>
<g xmlns="http://www.w3.org/2000/svg">
	<path d="M82.297,16.976L66.028,0.732C65.559,0.263,64.924,0,64.26,0H16.463c-1.381,0-2.5,1.119-2.5,2.5v91.992   c0,1.381,1.119,2.5,2.5,2.5h64.066c1.381,0,2.5-1.119,2.5-2.5V18.744C83.029,18.081,82.766,17.445,82.297,16.976z M44.758,84.355   c0,0.828-0.672,1.5-1.5,1.5H21.246c-0.828,0-1.5-0.672-1.5-1.5v-4.39c0-0.829,0.672-1.5,1.5-1.5h22.012c0.828,0,1.5,0.671,1.5,1.5   V84.355z M44.758,69.355c0,0.828-0.672,1.5-1.5,1.5H21.246c-0.828,0-1.5-0.672-1.5-1.5v-4.39c0-0.829,0.672-1.5,1.5-1.5h22.012   c0.828,0,1.5,0.671,1.5,1.5V69.355z M44.758,54.355c0,0.828-0.672,1.5-1.5,1.5H21.246c-0.828,0-1.5-0.672-1.5-1.5v-4.39   c0-0.829,0.672-1.5,1.5-1.5h22.012c0.828,0,1.5,0.671,1.5,1.5V54.355z M44.758,39.355c0,0.829-0.672,1.5-1.5,1.5H21.246   c-0.828,0-1.5-0.671-1.5-1.5v-4.389c0-0.829,0.672-1.5,1.5-1.5h22.012c0.828,0,1.5,0.671,1.5,1.5V39.355z M21.246,22.255   c-0.828,0-1.5-0.671-1.5-1.5v-7.389c0-0.829,0.672-1.5,1.5-1.5h28.012c0.828,0,1.5,0.671,1.5,1.5v7.389c0,0.829-0.672,1.5-1.5,1.5   H21.246z M74.758,84.355c0,0.828-0.672,1.5-1.5,1.5H51.246c-0.828,0-1.5-0.672-1.5-1.5v-4.39c0-0.829,0.672-1.5,1.5-1.5h22.012   c0.828,0,1.5,0.671,1.5,1.5V84.355z M74.758,69.355c0,0.828-0.672,1.5-1.5,1.5H51.246c-0.828,0-1.5-0.672-1.5-1.5v-4.39   c0-0.829,0.672-1.5,1.5-1.5h22.012c0.828,0,1.5,0.671,1.5,1.5V69.355z M74.758,54.355c0,0.828-0.672,1.5-1.5,1.5H51.246   c-0.828,0-1.5-0.672-1.5-1.5v-4.39c0-0.829,0.672-1.5,1.5-1.5h22.012c0.828,0,1.5,0.671,1.5,1.5V54.355z M74.758,39.355   c0,0.829-0.672,1.5-1.5,1.5H51.246c-0.828,0-1.5-0.671-1.5-1.5v-4.389c0-0.829,0.672-1.5,1.5-1.5h22.012c0.828,0,1.5,0.671,1.5,1.5   V39.355z M62.051,22.343c-0.337,0-0.658-0.134-0.896-0.372c-0.237-0.238-0.372-0.561-0.372-0.897l0.002-15.126L77.18,22.344   L62.051,22.343L62.051,22.343z" fill="#0071bc" data-original="#000000" style="" class=""/>
</g>
<g xmlns="http://www.w3.org/2000/svg">
</g>
<g xmlns="http://www.w3.org/2000/svg">
</g>
<g xmlns="http://www.w3.org/2000/svg">
</g>
<g xmlns="http://www.w3.org/2000/svg">
</g>
<g xmlns="http://www.w3.org/2000/svg">
</g>
<g xmlns="http://www.w3.org/2000/svg">
</g>
<g xmlns="http://www.w3.org/2000/svg">
</g>
<g xmlns="http://www.w3.org/2000/svg">
</g>
<g xmlns="http://www.w3.org/2000/svg">
</g>
<g xmlns="http://www.w3.org/2000/svg">
</g>
<g xmlns="http://www.w3.org/2000/svg">
</g>
<g xmlns="http://www.w3.org/2000/svg">
</g>
<g xmlns="http://www.w3.org/2000/svg">
</g>
<g xmlns="http://www.w3.org/2000/svg">
</g>
<g xmlns="http://www.w3.org/2000/svg">
</g>
</g></svg>
