<?xml version="1.0" encoding="UTF-8" standalone="no"?>
<svg
   xmlns:dc="http://purl.org/dc/elements/1.1/"
   xmlns:cc="http://creativecommons.org/ns#"
   xmlns:rdf="http://www.w3.org/1999/02/22-rdf-syntax-ns#"
   xmlns:svg="http://www.w3.org/2000/svg"
   xmlns="http://www.w3.org/2000/svg"
   viewBox="0 0 666.66669 666.66669"
   height="666.66669"
   width="666.66669"
   xml:space="preserve"
   id="svg2"
   version="1.1"><metadata
     id="metadata8"><rdf:RDF><cc:Work
         rdf:about=""><dc:format>image/svg+xml</dc:format><dc:type
           rdf:resource="http://purl.org/dc/dcmitype/StillImage" /></cc:Work></rdf:RDF></metadata><defs
     id="defs6"><clipPath
       id="clipPath18"
       clipPathUnits="userSpaceOnUse"><path
         id="path16"
         d="M 0,500 H 500 V 0 H 0 Z" /></clipPath><clipPath
       id="clipPath30"
       clipPathUnits="userSpaceOnUse"><path
         id="path28"
         d="M 0,500 H 500 V 0 H 0 Z" /></clipPath><clipPath
       id="clipPath46"
       clipPathUnits="userSpaceOnUse"><path
         id="path44"
         d="M 0,500 H 500 V 0 H 0 Z" /></clipPath><clipPath
       id="clipPath58"
       clipPathUnits="userSpaceOnUse"><path
         id="path56"
         d="M 155.803,245.484 H 256.555 V 140.237 H 155.803 Z" /></clipPath><clipPath
       id="clipPath74"
       clipPathUnits="userSpaceOnUse"><path
         id="path72"
         d="m 155.797,216.927 h 14.658 v -62.246 h -14.658 z" /></clipPath><clipPath
       id="clipPath94"
       clipPathUnits="userSpaceOnUse"><path
         id="path92"
         d="m 160.012,238.493 h 96.543 v -93.399 h -96.543 z" /></clipPath><clipPath
       id="clipPath110"
       clipPathUnits="userSpaceOnUse"><path
         id="path108"
         d="m 160.012,238.493 h 71.586 v -78.964 h -71.586 z" /></clipPath><clipPath
       id="clipPath130"
       clipPathUnits="userSpaceOnUse"><path
         id="path128"
         d="m 203.754,175.942 h 52.794 v -35.67 h -52.794 z" /></clipPath><clipPath
       id="clipPath154"
       clipPathUnits="userSpaceOnUse"><path
         id="path152"
         d="M 66.1103,465.695 H 310.801 V 127.305 H 66.1103 Z" /></clipPath><clipPath
       id="clipPath174"
       clipPathUnits="userSpaceOnUse"><path
         id="path172"
         d="M 57.9509,147.869 H 69.8175 V 122.171 H 57.9509 Z" /></clipPath><clipPath
       id="clipPath194"
       clipPathUnits="userSpaceOnUse"><path
         id="path192"
         d="M 66.1103,284.457 H 310.801 V 122.67 H 66.1103 Z" /></clipPath><clipPath
       id="clipPath222"
       clipPathUnits="userSpaceOnUse"><path
         id="path220"
         d="m 57.9509,330.321 h 9.4372 V 143.15 h -9.4372 z" /></clipPath><clipPath
       id="clipPath238"
       clipPathUnits="userSpaceOnUse"><path
         id="path236"
         d="M 59.2335,470.892 H 310.756 V 325.619 H 59.2335 Z" /></clipPath><clipPath
       id="clipPath254"
       clipPathUnits="userSpaceOnUse"><path
         id="path252"
         d="M 0,500 H 500 V 0 H 0 Z" /></clipPath><clipPath
       id="clipPath282"
       clipPathUnits="userSpaceOnUse"><path
         id="path280"
         d="M 96.4672,440.048 H 327.206 V 306.584 H 96.4672 Z" /></clipPath><clipPath
       id="clipPath298"
       clipPathUnits="userSpaceOnUse"><path
         id="path296"
         d="m 95.5379,308.826 h 4.8101 v -15.223 h -4.8101 z" /></clipPath><clipPath
       id="clipPath318"
       clipPathUnits="userSpaceOnUse"><path
         id="path316"
         d="m 146.309,321.11 h 145.5 v -84.004 h -145.5 z" /></clipPath><clipPath
       id="clipPath414"
       clipPathUnits="userSpaceOnUse"><path
         id="path412"
         d="m 197.133,344.522 h 35.17 V 319.02 h -35.17 z" /></clipPath><clipPath
       id="clipPath430"
       clipPathUnits="userSpaceOnUse"><path
         id="path428"
         d="m 194.454,310.217 h 11.641 v -15.51 h -11.641 z" /></clipPath><clipPath
       id="clipPath446"
       clipPathUnits="userSpaceOnUse"><path
         id="path444"
         d="m 194.454,322.795 h 9.185 v -16.352 h -9.185 z" /></clipPath><clipPath
       id="clipPath470"
       clipPathUnits="userSpaceOnUse"><path
         id="path468"
         d="M 0,500 H 500 V 0 H 0 Z" /></clipPath><clipPath
       id="clipPath482"
       clipPathUnits="userSpaceOnUse"><path
         id="path480"
         d="m 432.154,181.441 h 37.645 v -38.113 h -37.645 z" /></clipPath><clipPath
       id="clipPath514"
       clipPathUnits="userSpaceOnUse"><path
         id="path512"
         d="M 0,500 H 500 V 0 H 0 Z" /></clipPath><clipPath
       id="clipPath530"
       clipPathUnits="userSpaceOnUse"><path
         id="path528"
         d="M 0,500 H 500 V 0 H 0 Z" /></clipPath><clipPath
       id="clipPath632"
       clipPathUnits="userSpaceOnUse"><path
         id="path630"
         d="m 317.314,252.347 h 8.747 v -6.623 h -8.747 z" /></clipPath><clipPath
       id="clipPath652"
       clipPathUnits="userSpaceOnUse"><path
         id="path650"
         d="m 334.361,244.132 h 11.5 v -8.25 h -11.5 z" /></clipPath><clipPath
       id="clipPath676"
       clipPathUnits="userSpaceOnUse"><path
         id="path674"
         d="m 381.306,225.527 h 8.954 v -14.718 h -8.954 z" /></clipPath><clipPath
       id="clipPath692"
       clipPathUnits="userSpaceOnUse"><path
         id="path690"
         d="m 365.515,259.102 h 37.246 v -66.511 h -37.246 z" /></clipPath><clipPath
       id="clipPath712"
       clipPathUnits="userSpaceOnUse"><path
         id="path710"
         d="m 389.006,216.695 h 13.755 v -24.104 h -13.755 z" /></clipPath><clipPath
       id="clipPath728"
       clipPathUnits="userSpaceOnUse"><path
         id="path726"
         d="m 302.26,269.828 h 56.018 V 236.046 H 302.26 Z" /></clipPath><clipPath
       id="clipPath744"
       clipPathUnits="userSpaceOnUse"><path
         id="path742"
         d="m 302.26,268.995 h 56.018 V 236.046 H 302.26 Z" /></clipPath><clipPath
       id="clipPath760"
       clipPathUnits="userSpaceOnUse"><path
         id="path758"
         d="m 360.109,250.61 h 33.613 v -54.641 h -33.613 z" /></clipPath><clipPath
       id="clipPath776"
       clipPathUnits="userSpaceOnUse"><path
         id="path774"
         d="m 302.26,278.021 h 57.776 V 242.194 H 302.26 Z" /></clipPath></defs><g
     transform="matrix(1.3333333,0,0,-1.3333333,0,666.66667)"
     id="g10"><g
       id="g12"><g
         clip-path="url(#clipPath18)"
         id="g14"><g
           transform="translate(415.6484,246.1626)"
           id="g20"><path
             id="path22"
             style="fill:#f0f0f0;fill-opacity:1;fill-rule:nonzero;stroke:none"
             d="m 0,0 c 92.011,-53.122 92.011,-139.25 -0.001,-192.374 -92.011,-53.122 -241.19,-53.123 -333.2,0 -92.011,53.123 -92.01,139.251 0.001,192.374 92.011,53.122 241.19,53.123 333.2,0" /></g></g></g><g
       id="g24"><g
         clip-path="url(#clipPath30)"
         id="g26"><g
           transform="translate(384.3633,102.7759)"
           id="g32"><path
             id="path34"
             style="fill:#e1e1e1;fill-opacity:1;fill-rule:nonzero;stroke:none"
             d="M 0,0 C -15.45,8.92 -15.45,23.382 0,32.302 15.449,41.221 40.498,41.221 55.947,32.301 71.397,23.381 71.397,8.92 55.947,0 40.498,-8.92 15.449,-8.92 0,0" /></g><g
           transform="translate(70.1187,101.5381)"
           id="g36"><path
             id="path38"
             style="fill:#e1e1e1;fill-opacity:1;fill-rule:nonzero;stroke:none"
             d="m 0,0 -40.64,23.464 c -2.292,1.323 -2.292,3.468 0,4.79 l 236.389,136.48 c 2.291,1.323 6.005,1.323 8.297,0 l 40.642,-23.463 c 2.291,-1.323 2.291,-3.468 0,-4.791 L 8.297,0 C 6.006,-1.323 2.292,-1.323 0,0" /></g></g></g><g
       id="g40"><g
         clip-path="url(#clipPath46)"
         id="g42"><g
           transform="translate(216.2002,143.356)"
           id="g48"><path
             id="path50"
             style="fill:#00dfbf;fill-opacity:1;fill-rule:nonzero;stroke:none"
             d="m 0,0 34.938,20.201 c 3.6,2.079 5.401,4.804 5.401,7.529 0.001,2.726 0.015,4.86 0.015,4.86 L 4.105,53.03 c -1.92,1.109 -3.478,3.805 -3.478,6.024 v 43.074 L -60.395,66.866 -60.397,23.792 c 0,-2.218 1.556,-4.915 3.477,-6.024 L -26.084,0 C -18.881,-4.159 -7.203,-4.158 0,0" /></g><g
           id="g52"><g
             id="g54" /><g
             id="g66"><g
               style="opacity:0.60000598"
               id="g64"
               clip-path="url(#clipPath58)"><g
                 id="g62"
                 transform="translate(216.2002,143.356)"><path
                   id="path60"
                   style="fill:#000000;fill-opacity:1;fill-rule:nonzero;stroke:none"
                   d="m 0,0 34.938,20.201 c 3.6,2.079 5.401,4.804 5.401,7.529 0.001,2.726 0.015,4.86 0.015,4.86 L 4.105,53.03 c -1.92,1.109 -3.478,3.805 -3.478,6.024 v 43.074 L -60.395,66.866 -60.397,23.792 c 0,-2.218 1.556,-4.915 3.477,-6.024 L -26.084,0 C -18.881,-4.159 -7.203,-4.158 0,0" /></g></g></g></g><g
           id="g68"><g
             id="g70" /><g
             id="g82"><g
               style="opacity:0.30000299"
               id="g80"
               clip-path="url(#clipPath74)"><g
                 id="g78"
                 transform="translate(170.4546,159.5205)"><path
                   id="path76"
                   style="fill:#000000;fill-opacity:1;fill-rule:nonzero;stroke:none"
                   d="m 0,0 v -4.839 l -11.184,6.445 c -1.907,1.104 -3.474,3.795 -3.474,6.024 V 50.7 l 11.626,6.706 c 0.241,-2.951 0.502,-6.003 0.743,-8.975 l -8.152,-4.719 V 10.06 c 0,-2.229 1.546,-4.92 3.474,-6.024 z" /></g></g></g></g><g
           transform="translate(160.0122,169.5723)"
           id="g84"><path
             id="path86"
             style="fill:#00dfbf;fill-opacity:1;fill-rule:nonzero;stroke:none"
             d="m 0,0 c 0,-2.218 1.557,-4.915 3.478,-6.024 l 26.621,-15.334 c 7.203,-4.159 18.882,-4.16 26.086,-0.003 l 34.954,20.198 c 7.204,4.158 7.205,10.899 0.002,15.057 L 64.502,29.24 c -1.92,1.109 -3.478,3.805 -3.478,6.023 V 68.92 L 0,33.658 Z" /></g><g
           id="g88"><g
             id="g90" /><g
             id="g102"><g
               style="opacity:0.30000299"
               id="g100"
               clip-path="url(#clipPath94)"><g
                 id="g98"
                 transform="translate(160.0122,169.5723)"><path
                   id="path96"
                   style="fill:#000000;fill-opacity:1;fill-rule:nonzero;stroke:none"
                   d="m 0,0 c 0,-2.218 1.557,-4.915 3.478,-6.024 l 26.621,-15.334 c 7.203,-4.159 18.882,-4.16 26.086,-0.003 l 34.954,20.198 c 7.204,4.158 7.205,10.899 0.002,15.057 L 64.502,29.24 c -1.92,1.109 -3.478,3.805 -3.478,6.023 V 68.92 L 0,33.658 Z" /></g></g></g></g><g
           id="g104"><g
             id="g106" /><g
             id="g118"><g
               style="opacity:0.5"
               id="g116"
               clip-path="url(#clipPath110)"><g
                 id="g114"
                 transform="translate(231.5981,194.7173)"><path
                   id="path112"
                   style="fill:#000000;fill-opacity:1;fill-rule:nonzero;stroke:none"
                   d="m 0,0 v 0.005 l -7.083,4.09 c -1.921,1.109 -3.479,3.805 -3.479,6.023 V 43.775 L -71.586,8.513 v -33.658 c 0,-2.218 1.557,-4.915 3.478,-6.024 l 6.961,-4.019 z" /></g></g></g></g><g
           transform="translate(256.5479,175.9424)"
           id="g120"><path
             id="path122"
             style="fill:#00dfbf;fill-opacity:1;fill-rule:nonzero;stroke:none"
             d="m 0,0 v -4.859 c 0,-2.731 -1.808,-5.442 -5.401,-7.53 l -34.943,-20.19 c -3.454,-2.007 -7.932,-3.011 -12.449,-3.092 v 4.839 c 4.517,0.061 8.995,1.105 12.449,3.093 L -5.401,-7.53 C -1.808,-5.462 0,-2.731 0,0" /></g><g
           id="g124"><g
             id="g126" /><g
             id="g138"><g
               style="opacity:0.5"
               id="g136"
               clip-path="url(#clipPath130)"><g
                 id="g134"
                 transform="translate(256.5479,175.9424)"><path
                   id="path132"
                   style="fill:#000000;fill-opacity:1;fill-rule:nonzero;stroke:none"
                   d="m 0,0 v -4.859 c 0,-2.731 -1.808,-5.442 -5.401,-7.53 l -34.943,-20.19 c -3.454,-2.007 -7.932,-3.011 -12.449,-3.092 v 4.839 c 4.517,0.061 8.995,1.105 12.449,3.093 L -5.401,-7.53 C -1.808,-5.462 0,-2.731 0,0" /></g></g></g></g><g
           transform="translate(62.0308,127.7373)"
           id="g140"><path
             id="path142"
             style="fill:#00dfbf;fill-opacity:1;fill-rule:nonzero;stroke:none"
             d="m 0,0 c 2.252,-1.3 6.024,-1.23 8.425,0.156 30.002,17.321 206,118.931 235.997,136.25 2.401,1.386 4.346,4.756 4.346,7.529 v 190.914 c 0,2.772 -1.825,6.073 -4.077,7.374 -2.253,1.3 -6.024,1.23 -8.426,-0.156 L 0.272,205.817 c -2.401,-1.386 -4.347,-4.757 -4.347,-7.53 L -4.078,7.374 C -4.078,4.602 -2.252,1.3 0,0" /></g><g
           transform="translate(70.4575,127.8984)"
           id="g144"><path
             id="path146"
             style="fill:#00dfbf;fill-opacity:1;fill-rule:nonzero;stroke:none"
             d="m 0,0 235.996,136.249 c 2.401,1.386 4.347,4.757 4.347,7.53 v 190.914 c 0,2.772 -1.946,3.896 -4.347,2.51 L 0.003,200.953 c -2.401,-1.387 -4.347,-4.758 -4.347,-7.53 L -4.347,2.51 C -4.347,-0.262 -2.401,-1.386 0,0" /></g><g
           id="g148"><g
             id="g150" /><g
             id="g162"><g
               style="opacity:0.5"
               id="g160"
               clip-path="url(#clipPath154)"><g
                 id="g158"
                 transform="translate(70.4575,127.8984)"><path
                   id="path156"
                   style="fill:#000000;fill-opacity:1;fill-rule:nonzero;stroke:none"
                   d="m 0,0 235.996,136.249 c 2.401,1.386 4.347,4.757 4.347,7.53 v 190.914 c 0,2.772 -1.946,3.896 -4.347,2.51 L 0.003,200.953 c -2.401,-1.387 -4.347,-4.758 -4.347,-7.53 L -4.347,2.51 C -4.347,-0.262 -2.401,-1.386 0,0" /></g></g></g></g><g
           transform="translate(69.8174,122.936)"
           id="g164"><path
             id="path166"
             style="fill:#00dfbf;fill-opacity:1;fill-rule:nonzero;stroke:none"
             d="m 0,0 c -2.409,-1.064 -5.742,-1.024 -7.791,0.161 -2.249,1.305 -4.076,4.598 -4.076,7.389 v 17.383 l 8.153,-4.719 V 2.831 C -3.714,0.301 -2.108,-0.843 0,0" /></g><g
           id="g168"><g
             id="g170" /><g
             id="g182"><g
               style="opacity:0.5"
               id="g180"
               clip-path="url(#clipPath174)"><g
                 id="g178"
                 transform="translate(69.8174,122.936)"><path
                   id="path176"
                   style="fill:#000000;fill-opacity:1;fill-rule:nonzero;stroke:none"
                   d="m 0,0 c -2.409,-1.064 -5.742,-1.024 -7.791,0.161 -2.249,1.305 -4.076,4.598 -4.076,7.389 v 17.383 l 8.153,-4.719 V 2.831 C -3.714,0.301 -2.108,-0.843 0,0" /></g></g></g></g><g
           transform="translate(66.103,143.1504)"
           id="g184"><path
             id="path186"
             style="fill:#00dfbf;fill-opacity:1;fill-rule:nonzero;stroke:none"
             d="m 0,0 0.007,-17.376 c 0,-2.772 1.947,-3.896 4.347,-2.51 L 240.35,116.363 c 2.401,1.386 4.348,4.757 4.348,7.53 v 17.414 z" /></g><g
           id="g188"><g
             id="g190" /><g
             id="g202"><g
               style="opacity:0.30000299"
               id="g200"
               clip-path="url(#clipPath194)"><g
                 id="g198"
                 transform="translate(66.1104,143.187)"><path
                   id="path196"
                   style="fill:#000000;fill-opacity:1;fill-rule:nonzero;stroke:none"
                   d="m 0,0 v -17.413 c 0,-2.772 1.946,-3.896 4.347,-2.51 l 235.996,136.249 c 2.401,1.386 4.347,4.757 4.347,7.53 v 17.414 z" /></g></g></g></g><g
           transform="translate(74.2642,164.959)"
           id="g204"><path
             id="path206"
             style="fill:#00dfbf;fill-opacity:1;fill-rule:nonzero;stroke:none"
             d="m 0,0 0.002,153.655 c 0,1.664 1.168,3.687 2.608,4.518 l 223.156,128.84 c 1.442,0.831 2.609,0.157 2.609,-1.506 l 0.007,-153.659 c 0,-1.663 -1.168,-3.686 -2.608,-4.518 L 2.608,-1.506 C 1.168,-2.337 0,-1.663 0,0" /></g><g
           transform="translate(74.2642,164.959)"
           id="g208"><path
             id="path210"
             style="fill:#1a2e35;fill-opacity:1;fill-rule:nonzero;stroke:none"
             d="m 0,0 0.002,153.655 c 0,1.664 1.168,3.687 2.608,4.518 l 223.156,128.84 c 1.442,0.831 2.609,0.157 2.609,-1.506 l 0.007,-153.659 c 0,-1.663 -1.168,-3.686 -2.608,-4.518 L 2.608,-1.506 C 1.168,-2.337 0,-1.663 0,0" /></g><g
           transform="translate(188.4521,208.2734)"
           id="g212"><path
             id="path214"
             style="fill:#00dfbf;fill-opacity:1;fill-rule:nonzero;stroke:none"
             d="m 0,0 c -2.253,-1.301 -4.079,-4.464 -4.079,-7.065 0,-2.601 1.827,-3.655 4.079,-2.354 2.253,1.3 4.08,4.463 4.08,7.065 C 4.079,0.247 2.253,1.301 0,0" /></g><g
           id="g216"><g
             id="g218" /><g
             id="g230"><g
               style="opacity:0.69999701"
               id="g228"
               clip-path="url(#clipPath222)"><g
                 id="g226"
                 transform="translate(67.3882,325.6221)"><path
                   id="path224"
                   style="fill:#000000;fill-opacity:1;fill-rule:nonzero;stroke:none"
                   d="m 0,0 c -0.783,-1.365 -1.265,-2.911 -1.285,-4.297 v -178.175 l -8.153,4.719 0.005,178.155 c 0,1.386 0.498,2.931 1.281,4.297 z" /></g></g></g></g><g
           id="g232"><g
             id="g234" /><g
             id="g246"><g
               style="opacity:0.30000299"
               id="g244"
               clip-path="url(#clipPath238)"><g
                 id="g242"
                 transform="translate(310.7559,463.3057)"><path
                   id="path240"
                   style="fill:#000000;fill-opacity:1;fill-rule:nonzero;stroke:none"
                   d="m 0,0 c -0.309,2.241 -2.117,3.053 -4.308,1.799 l -235.988,-136.257 c -1.193,-0.689 -2.272,-1.861 -3.074,-3.229 l -8.152,4.709 c 0.791,1.347 1.871,2.54 3.074,3.228 L -12.46,6.498 c 2.406,1.387 6.168,1.459 8.43,0.154 C -1.974,5.469 -0.277,2.601 0,0" /></g></g></g></g></g></g><g
       id="g248"><g
         clip-path="url(#clipPath254)"
         id="g250"><g
           transform="translate(323.4922,439.8135)"
           id="g256"><path
             id="path258"
             style="fill:#00dfbf;fill-opacity:1;fill-rule:nonzero;stroke:none"
             d="m 0,0 c -0.568,0.341 -1.344,0.329 -2.218,-0.176 l -222.687,-128.587 c -1.683,-0.971 -3.047,-3.332 -3.047,-5.275 l 0.002,-152.718 c 0,-1.184 0.507,-2.23 1.284,-2.647 0.499,-0.268 3.115,-1.791 3.892,-2.208 0.499,-0.268 1.107,-0.277 1.765,0.101 L 1.672,-162.873 c 1.683,0.969 3.049,3.33 3.049,5.272 v 153.46 c 0,1.001 -0.364,1.696 -0.945,2.001 C 3.229,-1.854 0.561,-0.337 0,0" /></g><g
           transform="translate(101.4771,148.5093)"
           id="g260"><path
             id="path262"
             style="fill:#fafafa;fill-opacity:1;fill-rule:nonzero;stroke:none"
             d="m 0,0 c -0.851,0 -1.542,1.05 -1.542,2.34 v 152.719 c 0,1.75 1.28,3.968 2.795,4.843 l 222.686,128.587 c 0.395,0.228 0.779,0.349 1.11,0.349 0.743,0 1.187,-0.626 1.187,-1.675 V 133.704 c 0,-1.75 -1.281,-3.966 -2.798,-4.839 L 0.756,0.228 C 0.494,0.077 0.24,0 0,0" /></g><g
           transform="translate(326.5273,437.8472)"
           id="g264"><path
             id="path266"
             style="fill:#e1e1e1;fill-opacity:1;fill-rule:nonzero;stroke:none"
             d="m 0,0 c -0.41,0 -0.872,-0.134 -1.361,-0.416 l -222.686,-128.586 c -1.682,-0.972 -3.046,-3.334 -3.046,-5.277 v -152.719 c 0,-1.536 0.853,-2.84 2.043,-2.84 0.315,0 0.654,0.091 1.006,0.295 l 222.681,128.637 c 1.683,0.969 3.049,3.329 3.049,5.272 V -2.175 C 1.686,-0.797 0.999,0 0,0 m 0,-1 v 0 c 0.596,0 0.686,-0.736 0.686,-1.175 v -153.459 c 0,-1.594 -1.167,-3.611 -2.55,-4.407 l -222.678,-128.636 c -0.187,-0.107 -0.357,-0.161 -0.508,-0.161 -0.555,0 -1.043,0.86 -1.043,1.84 v 152.719 c 0,1.593 1.166,3.613 2.546,4.41 L -0.861,-1.282 C -0.457,-1.049 -0.17,-1 0,-1" /></g><g
           transform="translate(96.8218,150.4116)"
           id="g268"><path
             id="path270"
             style="fill:#f0f0f0;fill-opacity:1;fill-rule:nonzero;stroke:none"
             d="m 0,0 c 0.33,-0.175 2.699,-1.526 3.737,-2.118 -0.7,0.499 -1.07,1.357 -1.121,2.558 v 142.751 l -3.9,2.282 V 2.644 C -1.284,1.466 -0.776,0.412 0,0" /></g><g
           transform="translate(328.2109,435.6953)"
           id="g272"><path
             id="path274"
             style="fill:#00dfbf;fill-opacity:1;fill-rule:nonzero;stroke:none"
             d="M 0,0 C -0.013,1.924 -1.369,2.703 -3.045,1.736 L -225.73,-126.851 c -1.683,-0.971 -3.046,-3.334 -3.046,-5.276 l 0.003,-9.965 L 0,-9.999 Z" /></g><g
           id="g276"><g
             id="g278" /><g
             id="g290"><g
               style="opacity:0.39999402"
               id="g288"
               clip-path="url(#clipPath282)"><g
                 id="g286"
                 transform="translate(325.165,437.4321)"><path
                   id="path284"
                   style="fill:#ffffff;fill-opacity:1;fill-rule:nonzero;stroke:none"
                   d="m 0,0 -222.681,-128.586 c -0.834,-0.489 -1.6,-1.313 -2.146,-2.262 l -3.871,2.242 c 0.546,0.939 1.296,1.755 2.12,2.225 L -3.891,2.206 c 0.872,0.507 1.649,0.515 2.214,0.18 C -1.131,2.05 1.399,0.613 2.041,0.269 1.504,0.527 0.786,0.45 0,0" /></g></g></g></g><g
           id="g292"><g
             id="g294" /><g
             id="g306"><g
               style="opacity:0.14999402"
               id="g304"
               clip-path="url(#clipPath298)"><g
                 id="g302"
                 transform="translate(95.5381,295.875)"><path
                   id="path300"
                   style="fill:#000000;fill-opacity:1;fill-rule:nonzero;stroke:none"
                   d="m 0,0 0.002,9.905 c 0,0.987 0.362,2.079 0.927,3.046 L 4.81,10.719 C 4.244,9.761 3.899,8.678 3.899,7.691 v -9.963 z" /></g></g></g></g><g
           transform="translate(281.25,320.5767)"
           id="g308"><path
             id="path310"
             style="fill:#00dfbf;fill-opacity:1;fill-rule:nonzero;stroke:none"
             d="m 0,0 -133.375,-77.003 c -1.229,-0.71 -2.225,-2.436 -2.225,-3.856 v -38.236 c 0,-1.419 0.997,-3.144 2.227,-3.851 l 3.897,-2.242 c 1.23,-0.708 3.224,-0.707 4.454,0.002 L 8.333,-48.193 c 1.23,0.71 2.227,2.436 2.228,3.856 l 0.015,38.246 c 10e-4,1.42 -0.996,3.144 -2.226,3.852 L 4.453,0.003 C 3.223,0.711 1.229,0.71 0,0" /></g><g
           id="g312"><g
             id="g314" /><g
             id="g326"><g
               style="opacity:0.5"
               id="g324"
               clip-path="url(#clipPath318)"><g
                 id="g322"
                 transform="translate(291.8086,314.8467)"><path
                   id="path320"
                   style="fill:#ffffff;fill-opacity:1;fill-rule:nonzero;stroke:none"
                   d="m 0,0 c -0.153,1.151 -1.089,1.573 -2.21,0.925 l -133.369,-77.001 c -0.616,-0.349 -1.171,-0.966 -1.572,-1.665 l -8.349,4.822 c 0.402,0.689 0.957,1.295 1.563,1.645 L -10.558,5.727 c 1.224,0.709 3.218,0.719 4.452,0.01 L -2.21,3.496 C -1.079,2.848 -0.144,1.336 0,0" /></g></g></g></g><g
           transform="translate(155.8496,195.2129)"
           id="g328"><path
             id="path330"
             style="fill:#1a2e35;fill-opacity:1;fill-rule:nonzero;stroke:none"
             d="m 0,0 c -1.234,-0.524 -2.961,-0.463 -4.071,0.175 l -3.896,2.241 c -1.234,0.709 -2.231,2.437 -2.231,3.855 v 38.233 c 0,0.72 0.257,1.512 0.657,2.21 l 8.349,-4.821 c -0.412,-0.699 -0.659,-1.48 -0.659,-2.19 V 1.46 C -1.851,0.185 -1.049,-0.401 0,0" /></g><g
           transform="translate(156.2275,238.7676)"
           id="g332"><path
             id="path334"
             style="fill:#00dfbf;fill-opacity:1;fill-rule:nonzero;stroke:none"
             d="m 0,0 133.374,77.003 c 1.23,0.71 2.226,0.135 2.225,-1.285 l -0.016,-38.247 c -0.001,-1.419 -0.998,-3.145 -2.228,-3.855 L 0,-43.376 c -1.229,-0.71 -2.226,-0.135 -2.226,1.285 V -3.855 C -2.226,-2.436 -1.229,-0.71 0,0" /></g><g
           transform="translate(245.8945,300.1616)"
           id="g336"><path
             id="path338"
             style="fill:#375a64;fill-opacity:1;fill-rule:nonzero;stroke:none"
             d="m 0,0 -98.023,-56.589 c -0.606,-0.35 -1.161,-0.956 -1.562,-1.645 l 8.348,-4.822 c 0.401,0.699 0.956,1.316 1.572,1.665 L 8.333,-4.812 Z" /></g><g
           transform="translate(254.2275,295.3477)"
           id="g340"><path
             id="path342"
             style="fill:#2b454e;fill-opacity:1;fill-rule:nonzero;stroke:none"
             d="m 0,0 -98,-56.58 c -1.229,-0.71 -2.226,-2.436 -2.226,-3.856 v -38.235 c 0,-1.42 0.997,-1.995 2.226,-1.286 l 98,56.581 z" /></g><g
           transform="translate(178.8286,243.4248)"
           id="g344"><path
             id="path346"
             style="fill:#00dfbf;fill-opacity:1;fill-rule:nonzero;stroke:none"
             d="m 0,0 50.567,29.196 c 2.097,1.211 3.796,0.351 3.796,-1.921 0,-2.271 -1.7,-5.094 -3.797,-6.305 L 0.003,-8.223 C -2.093,-9.434 -3.794,-8.574 -3.795,-6.303 -3.796,-4.033 -2.097,-1.21 0,0" /></g><g
           transform="translate(189.1909,233.7627)"
           id="g348"><path
             id="path350"
             style="fill:#fafafa;fill-opacity:1;fill-rule:nonzero;stroke:none"
             d="m 0,0 c 0.058,0.033 0.106,0.024 0.147,-0.026 0.043,-0.05 0.064,-0.125 0.064,-0.227 v -5.695 c 0,-0.574 -0.047,-1.118 -0.142,-1.636 -0.092,-0.516 -0.233,-0.996 -0.421,-1.437 -0.187,-0.442 -0.422,-0.834 -0.702,-1.177 -0.282,-0.343 -0.608,-0.621 -0.977,-0.834 -0.375,-0.217 -0.702,-0.315 -0.981,-0.297 -0.279,0.02 -0.512,0.143 -0.698,0.368 -0.188,0.225 -0.328,0.544 -0.419,0.954 -0.091,0.409 -0.137,0.901 -0.137,1.475 v 5.695 c 0,0.102 0.021,0.2 0.063,0.299 0.042,0.099 0.091,0.164 0.148,0.197 l 0.634,0.365 c 0.057,0.034 0.106,0.025 0.148,-0.025 0.042,-0.05 0.063,-0.125 0.063,-0.227 v -5.625 c 0,-0.379 0.028,-0.687 0.086,-0.922 0.056,-0.237 0.137,-0.409 0.241,-0.52 0.104,-0.112 0.23,-0.164 0.375,-0.16 0.146,0.007 0.305,0.06 0.477,0.158 0.172,0.1 0.331,0.231 0.48,0.396 0.149,0.165 0.275,0.361 0.38,0.594 0.104,0.231 0.185,0.498 0.246,0.801 0.06,0.303 0.089,0.645 0.089,1.024 v 5.625 c 0,0.102 0.021,0.2 0.062,0.299 0.042,0.098 0.091,0.164 0.149,0.198 z" /></g><g
           transform="translate(193.1123,228.3755)"
           id="g352"><path
             id="path354"
             style="fill:#fafafa;fill-opacity:1;fill-rule:nonzero;stroke:none"
             d="m 0,0 c 0,0.1 -0.018,0.173 -0.055,0.218 -0.036,0.044 -0.1,0.067 -0.191,0.07 C -0.337,0.291 -0.458,0.277 -0.609,0.245 -0.761,0.213 -0.954,0.175 -1.187,0.132 -1.417,0.092 -1.606,0.1 -1.758,0.15 -1.909,0.203 -2.03,0.295 -2.121,0.428 -2.212,0.56 -2.276,0.733 -2.313,0.95 c -0.036,0.215 -0.054,0.461 -0.054,0.737 0,0.279 0.036,0.573 0.109,0.884 0.073,0.31 0.178,0.609 0.317,0.898 0.138,0.288 0.306,0.554 0.504,0.798 0.197,0.243 0.424,0.439 0.679,0.586 C -0.503,5 -0.275,5.082 -0.074,5.094 0.126,5.109 0.296,5.073 0.438,4.987 0.578,4.901 0.687,4.772 0.765,4.6 0.843,4.427 0.888,4.233 0.899,4.018 0.904,3.918 0.884,3.819 0.839,3.72 0.795,3.62 0.744,3.554 0.687,3.521 L 0.085,3.174 C 0.008,3.129 -0.051,3.12 -0.09,3.148 -0.129,3.176 -0.171,3.21 -0.219,3.249 -0.266,3.285 -0.328,3.307 -0.406,3.313 -0.484,3.319 -0.601,3.277 -0.758,3.187 -0.915,3.096 -1.052,2.976 -1.171,2.823 -1.292,2.67 -1.352,2.487 -1.352,2.274 -1.352,2.172 -1.337,2.096 -1.308,2.042 -1.28,1.99 -1.226,1.958 -1.146,1.95 -1.064,1.939 -0.952,1.948 -0.808,1.97 -0.666,1.992 -0.479,2.028 -0.25,2.076 0.213,2.168 0.541,2.082 0.73,1.817 0.92,1.552 1.016,1.14 1.016,0.586 1.016,0.307 0.977,0.015 0.899,-0.294 0.82,-0.604 0.707,-0.905 0.559,-1.199 0.41,-1.493 0.228,-1.765 0.011,-2.015 c -0.216,-0.25 -0.46,-0.453 -0.73,-0.609 -0.277,-0.159 -0.519,-0.241 -0.731,-0.248 -0.21,-0.005 -0.389,0.042 -0.533,0.143 -0.147,0.101 -0.259,0.244 -0.337,0.431 -0.078,0.186 -0.12,0.388 -0.125,0.607 -0.006,0.1 0.015,0.199 0.059,0.298 0.044,0.1 0.094,0.166 0.152,0.2 l 0.602,0.347 c 0.078,0.045 0.136,0.047 0.175,0.005 0.039,-0.044 0.084,-0.091 0.133,-0.146 0.049,-0.055 0.118,-0.089 0.207,-0.103 0.088,-0.014 0.221,0.031 0.398,0.133 0.079,0.045 0.159,0.102 0.242,0.168 0.083,0.066 0.161,0.14 0.231,0.223 0.07,0.082 0.129,0.171 0.176,0.268 C -0.023,-0.202 0,-0.103 0,0" /></g><g
           transform="translate(197.0649,234.2827)"
           id="g356"><path
             id="path358"
             style="fill:#fafafa;fill-opacity:1;fill-rule:nonzero;stroke:none"
             d="m 0,0 c -0.151,-0.088 -0.28,-0.203 -0.386,-0.342 -0.108,-0.142 -0.197,-0.295 -0.27,-0.461 -0.074,-0.168 -0.129,-0.339 -0.168,-0.514 -0.039,-0.176 -0.064,-0.336 -0.075,-0.48 l 1.766,1.019 C 0.856,-0.646 0.836,-0.512 0.808,-0.374 0.78,-0.238 0.733,-0.126 0.668,-0.038 0.603,0.048 0.516,0.1 0.41,0.117 0.302,0.134 0.166,0.095 0,0 m -1.915,-3.188 c 0,0.518 0.045,1.03 0.133,1.541 0.09,0.508 0.217,0.98 0.384,1.415 0.166,0.434 0.368,0.816 0.605,1.148 C -0.556,1.247 -0.292,1.496 0,1.665 0.291,1.833 0.555,1.892 0.793,1.839 1.029,1.785 1.231,1.646 1.398,1.423 1.564,1.201 1.694,0.899 1.785,0.523 1.875,0.145 1.922,-0.281 1.922,-0.753 V -1.377 C 1.922,-1.48 1.9,-1.58 1.858,-1.677 1.817,-1.775 1.768,-1.841 1.71,-1.875 l -2.609,-1.506 c 0,-0.213 0.025,-0.386 0.075,-0.518 0.049,-0.135 0.116,-0.233 0.199,-0.296 0.083,-0.063 0.179,-0.091 0.289,-0.083 0.109,0.007 0.222,0.045 0.336,0.111 0.166,0.096 0.301,0.203 0.406,0.325 0.104,0.119 0.189,0.245 0.258,0.377 0.057,0.107 0.104,0.185 0.14,0.234 0.036,0.049 0.087,0.09 0.149,0.127 l 0.625,0.361 C 1.635,-2.711 1.686,-2.718 1.73,-2.765 1.774,-2.814 1.794,-2.892 1.788,-2.996 1.783,-3.128 1.743,-3.318 1.667,-3.566 1.592,-3.813 1.479,-4.077 1.327,-4.359 1.177,-4.642 0.99,-4.916 0.769,-5.182 0.548,-5.448 0.291,-5.666 0,-5.833 c -0.292,-0.169 -0.556,-0.231 -0.793,-0.189 -0.237,0.044 -0.439,0.185 -0.605,0.422 -0.167,0.237 -0.294,0.559 -0.384,0.967 -0.088,0.406 -0.133,0.888 -0.133,1.445" /></g><g
           transform="translate(202.127,237.0654)"
           id="g360"><path
             id="path362"
             style="fill:#fafafa;fill-opacity:1;fill-rule:nonzero;stroke:none"
             d="M 0,0 C -0.312,-0.181 -0.537,-0.434 -0.676,-0.758 -0.814,-1.084 -0.882,-1.524 -0.882,-2.079 V -5.69 c 0,-0.102 -0.021,-0.202 -0.063,-0.299 -0.042,-0.099 -0.091,-0.165 -0.149,-0.197 l -0.593,-0.343 c -0.057,-0.033 -0.107,-0.025 -0.148,0.026 -0.042,0.049 -0.063,0.125 -0.063,0.227 v 6.472 c 0,0.101 0.021,0.201 0.063,0.299 0.041,0.098 0.091,0.164 0.148,0.198 l 0.593,0.341 c 0.058,0.034 0.107,0.025 0.149,-0.025 0.042,-0.049 0.063,-0.125 0.063,-0.227 v -0.32 c 0.135,0.301 0.279,0.555 0.433,0.765 0.153,0.209 0.355,0.385 0.606,0.53 L 0.508,1.96 C 0.565,1.992 0.614,1.984 0.657,1.934 0.698,1.885 0.719,1.808 0.719,1.707 V 0.79 C 0.719,0.688 0.698,0.588 0.657,0.49 0.614,0.392 0.565,0.326 0.508,0.293 Z" /></g><g
           transform="translate(209.5874,237.5537)"
           id="g364"><path
             id="path366"
             style="fill:#fafafa;fill-opacity:1;fill-rule:nonzero;stroke:none"
             d="M 0,0 C 0.057,0.033 0.106,0.024 0.148,-0.026 0.19,-0.076 0.211,-0.152 0.211,-0.253 V -1.24 C 0.211,-1.341 0.19,-1.442 0.148,-1.54 0.106,-1.638 0.057,-1.703 0,-1.736 l -3.421,-1.976 c -0.058,-0.033 -0.107,-0.024 -0.149,0.026 -0.041,0.049 -0.062,0.126 -0.062,0.227 v 8.973 c 0,0.101 0.021,0.2 0.062,0.298 0.042,0.099 0.091,0.164 0.149,0.197 l 0.632,0.366 c 0.057,0.033 0.107,0.024 0.148,-0.026 0.043,-0.05 0.064,-0.125 0.064,-0.227 v -7.61 z" /></g><g
           transform="translate(213.603,242.3716)"
           id="g368"><path
             id="path370"
             style="fill:#fafafa;fill-opacity:1;fill-rule:nonzero;stroke:none"
             d="m 0,0 c -0.016,0.278 -0.054,0.494 -0.114,0.649 -0.06,0.155 -0.134,0.264 -0.223,0.324 -0.088,0.06 -0.184,0.08 -0.288,0.062 C -0.729,1.017 -0.837,0.976 -0.946,0.913 -1.055,0.85 -1.162,0.767 -1.266,0.665 -1.37,0.563 -1.467,0.431 -1.555,0.269 -1.644,0.106 -1.719,-0.087 -1.778,-0.312 -1.837,-0.535 -1.875,-0.796 -1.891,-1.091 -1.896,-1.17 -1.9,-1.264 -1.902,-1.376 c -0.003,-0.113 -0.005,-0.229 -0.005,-0.35 0,-0.12 0.002,-0.237 0.005,-0.351 0.002,-0.115 0.006,-0.203 0.011,-0.265 0.016,-0.277 0.054,-0.494 0.113,-0.649 0.059,-0.155 0.134,-0.263 0.223,-0.323 0.088,-0.061 0.185,-0.082 0.289,-0.062 0.104,0.018 0.211,0.06 0.32,0.122 0.109,0.063 0.217,0.145 0.321,0.247 0.104,0.102 0.2,0.233 0.288,0.396 0.089,0.162 0.163,0.356 0.223,0.58 0.06,0.225 0.098,0.485 0.114,0.781 0.004,0.066 0.007,0.159 0.007,0.275 v 0.355 0.346 C 0.007,-0.162 0.004,-0.071 0,0 M -0.946,2.578 C -0.66,2.744 -0.4,2.815 -0.168,2.791 0.063,2.768 0.264,2.667 0.433,2.486 0.603,2.306 0.738,2.061 0.838,1.748 0.941,1.437 1,1.072 1.015,0.656 1.02,0.575 1.023,0.471 1.023,0.34 V -0.047 -0.431 C 1.023,-0.555 1.02,-0.661 1.015,-0.747 0.994,-1.185 0.935,-1.618 0.835,-2.045 0.736,-2.473 0.603,-2.873 0.433,-3.243 0.264,-3.613 0.063,-3.945 -0.168,-4.236 -0.4,-4.527 -0.66,-4.755 -0.946,-4.92 c -0.287,-0.165 -0.546,-0.237 -0.778,-0.213 -0.231,0.024 -0.431,0.122 -0.6,0.299 -0.17,0.174 -0.304,0.419 -0.403,0.732 -0.099,0.313 -0.159,0.677 -0.18,1.091 -0.005,0.08 -0.009,0.183 -0.011,0.305 -0.002,0.125 -0.004,0.249 -0.004,0.38 0,0.13 0.002,0.261 0.004,0.391 0.002,0.131 0.006,0.239 0.011,0.326 0.016,0.435 0.075,0.867 0.176,1.297 0.102,0.428 0.237,0.831 0.407,1.207 0.169,0.375 0.369,0.707 0.6,0.999 0.232,0.292 0.491,0.519 0.778,0.684" /></g><g
           transform="translate(216.7427,243.9487)"
           id="g372"><path
             id="path374"
             style="fill:#fafafa;fill-opacity:1;fill-rule:nonzero;stroke:none"
             d="m 0,0 c -0.016,-0.269 -0.016,-0.528 0,-0.779 0.031,-0.582 0.135,-0.956 0.313,-1.117 0.176,-0.162 0.393,-0.168 0.647,-0.021 0.256,0.147 0.471,0.405 0.645,0.774 0.175,0.369 0.275,0.811 0.301,1.327 0.011,0.144 0.016,0.323 0.016,0.537 0,0.213 -0.005,0.385 -0.016,0.518 C 1.88,1.706 1.78,2.027 1.605,2.205 1.431,2.381 1.216,2.396 0.96,2.249 0.706,2.102 0.489,1.844 0.313,1.478 0.135,1.112 0.031,0.618 0,0 m 0.937,-4.847 c 0.11,0.062 0.221,0.158 0.337,0.284 0.114,0.126 0.218,0.28 0.311,0.465 0.095,0.182 0.171,0.391 0.231,0.625 0.06,0.234 0.09,0.485 0.09,0.754 v 0.514 C 1.864,-2.312 1.81,-2.434 1.742,-2.57 1.674,-2.707 1.592,-2.845 1.496,-2.984 1.399,-3.123 1.287,-3.257 1.161,-3.385 1.033,-3.516 0.887,-3.626 0.727,-3.719 0.466,-3.869 0.23,-3.916 0.02,-3.857 c -0.212,0.058 -0.391,0.196 -0.539,0.411 -0.149,0.215 -0.266,0.494 -0.352,0.839 -0.086,0.344 -0.134,0.726 -0.145,1.145 -0.005,0.137 -0.007,0.296 -0.007,0.482 0,0.185 0.002,0.348 0.007,0.49 0.011,0.432 0.059,0.869 0.145,1.313 0.086,0.443 0.203,0.858 0.352,1.244 0.148,0.387 0.327,0.732 0.539,1.034 C 0.23,3.403 0.466,3.628 0.727,3.779 0.887,3.872 1.033,3.93 1.161,3.946 1.287,3.964 1.399,3.959 1.496,3.933 1.592,3.905 1.674,3.861 1.742,3.803 1.81,3.745 1.864,3.687 1.906,3.627 v 0.32 c 0,0.102 0.02,0.201 0.063,0.3 0.041,0.098 0.09,0.163 0.148,0.196 L 2.71,4.787 C 2.768,4.819 2.818,4.811 2.859,4.761 2.901,4.711 2.922,4.635 2.922,4.534 V -1.98 C 2.922,-3.1 2.746,-4.046 2.395,-4.819 2.043,-5.592 1.557,-6.156 0.937,-6.514 0.671,-6.667 0.425,-6.747 0.199,-6.753 c -0.226,-0.006 -0.423,0.047 -0.59,0.159 -0.166,0.113 -0.299,0.272 -0.398,0.479 -0.099,0.207 -0.154,0.447 -0.164,0.718 -0.006,0.098 0.014,0.197 0.059,0.297 0.043,0.1 0.095,0.166 0.152,0.2 l 0.531,0.306 c 0.073,0.042 0.134,0.034 0.187,-0.024 0.052,-0.057 0.097,-0.112 0.133,-0.167 0.068,-0.118 0.16,-0.194 0.277,-0.228 0.118,-0.035 0.301,0.021 0.551,0.166" /></g><g
           transform="translate(222.1489,243.4448)"
           id="g376"><path
             id="path378"
             style="fill:#fafafa;fill-opacity:1;fill-rule:nonzero;stroke:none"
             d="m 0,0 c 0,-0.103 -0.021,-0.203 -0.063,-0.299 -0.041,-0.099 -0.092,-0.165 -0.149,-0.198 l -0.592,-0.342 c -0.057,-0.034 -0.108,-0.024 -0.149,0.026 -0.042,0.048 -0.063,0.124 -0.063,0.227 v 6.471 c 0,0.102 0.021,0.203 0.063,0.299 0.041,0.099 0.092,0.165 0.149,0.198 l 0.592,0.343 C -0.155,6.757 -0.104,6.749 -0.063,6.698 -0.021,6.65 0,6.574 0,6.471 Z M -0.173,9.385 C -0.116,9.419 -0.065,9.41 -0.024,9.361 0.018,9.311 0.039,9.234 0.039,9.133 V 8.05 C 0.039,7.947 0.018,7.848 -0.024,7.75 -0.065,7.651 -0.116,7.586 -0.173,7.552 L -0.843,7.164 C -0.9,7.132 -0.951,7.14 -0.992,7.19 -1.034,7.24 -1.055,7.316 -1.055,7.418 v 1.083 c 0,0.102 0.021,0.202 0.063,0.301 0.041,0.097 0.092,0.163 0.149,0.195 z" /></g><g
           transform="translate(227.4287,246.4927)"
           id="g380"><path
             id="path382"
             style="fill:#fafafa;fill-opacity:1;fill-rule:nonzero;stroke:none"
             d="M 0,0 C 0,-0.102 -0.021,-0.202 -0.062,-0.299 -0.104,-0.397 -0.153,-0.463 -0.21,-0.496 l -0.594,-0.343 c -0.057,-0.033 -0.107,-0.024 -0.149,0.026 -0.042,0.049 -0.062,0.126 -0.062,0.227 v 3.527 c 0,0.556 -0.072,0.958 -0.219,1.207 -0.145,0.249 -0.37,0.288 -0.672,0.113 C -2.182,4.102 -2.398,3.809 -2.558,3.384 -2.717,2.96 -2.796,2.469 -2.796,1.914 v -3.528 c 0,-0.102 -0.021,-0.202 -0.062,-0.3 C -2.9,-2.012 -2.95,-2.078 -3.007,-2.11 L -3.6,-2.454 c -0.058,-0.032 -0.108,-0.024 -0.149,0.026 -0.042,0.05 -0.063,0.126 -0.063,0.227 v 6.473 c 0,0.101 0.021,0.202 0.063,0.299 0.041,0.098 0.091,0.164 0.149,0.198 L -3.007,5.11 C -2.95,5.145 -2.9,5.135 -2.858,5.085 -2.817,5.036 -2.796,4.959 -2.796,4.858 v -0.32 c 0.135,0.319 0.294,0.609 0.477,0.872 0.181,0.263 0.398,0.466 0.649,0.611 0.316,0.184 0.583,0.25 0.795,0.196 0.214,-0.052 0.386,-0.189 0.516,-0.41 0.13,-0.221 0.222,-0.514 0.277,-0.874 C -0.027,4.57 0,4.171 0,3.737 Z" /></g><g
           transform="translate(277.875,275.5977)"
           id="g384"><path
             id="path386"
             style="fill:#375a64;fill-opacity:1;fill-rule:nonzero;stroke:none"
             d="m 0,0 -9.714,-5.608 1.505,13.624 c -1.161,0.614 -1.901,2.126 -1.901,4.296 0,3.869 2.351,8.364 5.254,10.039 2.901,1.675 5.253,-0.103 5.253,-3.972 0,-2.171 -0.741,-4.537 -1.902,-6.493 z" /></g><g
           transform="translate(277.875,275.5977)"
           id="g388"><path
             id="path390"
             style="fill:#2b454e;fill-opacity:1;fill-rule:nonzero;stroke:none"
             d="M 0,0 -8.549,4.936 -9.714,-5.608 Z" /></g><g
           transform="translate(273.0186,297.9487)"
           id="g392"><path
             id="path394"
             style="fill:#2b454e;fill-opacity:1;fill-rule:nonzero;stroke:none"
             d="m 0,0 c -1.898,-1.096 -3.557,-3.4 -4.48,-5.945 l 7.832,-4.522 v 0.002 c 1.162,1.956 1.902,4.322 1.902,6.493 C 5.254,-0.104 2.901,1.675 0,0" /></g><g
           transform="translate(225.7964,343.2959)"
           id="g396"><path
             id="path398"
             style="fill:#00dfbf;fill-opacity:1;fill-rule:nonzero;stroke:none"
             d="m 0,0 c -3.322,1.923 -7.913,1.65 -12.985,-1.279 -10.14,-5.854 -18.358,-20.092 -18.357,-31.799 10e-4,-5.875 2.072,-9.994 5.416,-11.902 0.871,-0.497 5.593,-3.244 6.469,-3.751 3.322,-1.92 7.91,-1.646 12.98,1.281 10.138,5.854 18.356,20.091 18.356,31.8 0,5.851 -2.053,9.96 -5.373,11.878" /></g><g
           transform="translate(219.3169,338.2451)"
           id="g400"><path
             id="path402"
             style="fill:#00dfbf;fill-opacity:1;fill-rule:nonzero;stroke:none"
             d="m 0,0 c -10.138,-5.857 -18.357,-20.092 -18.356,-31.799 0.001,-11.708 8.221,-16.454 18.359,-10.6 10.138,5.854 18.366,20.091 18.356,31.799 C 18.349,1.107 10.129,5.853 0,0" /></g><g
           transform="translate(229.4536,312.269)"
           id="g404"><path
             id="path406"
             style="fill:#00dfbf;fill-opacity:1;fill-rule:nonzero;stroke:none"
             d="m 0,0 v -1.336 c -2.614,-4.462 -6.192,-8.347 -10.135,-10.618 -3.951,-2.278 -7.522,-2.527 -10.136,-1.074 v 2.768 c 0,5.345 3.629,11.633 8.259,14.313 l 2.665,1.533 c 2.366,1.366 4.659,1.541 6.463,0.497 C -1.044,5.024 0,2.811 0,0" /></g><g
           id="g408"><g
             id="g410" /><g
             id="g422"><g
               style="opacity:0.39999402"
               id="g420"
               clip-path="url(#clipPath414)"><g
                 id="g418"
                 transform="translate(225.7959,343.2954)"><path
                   id="path416"
                   style="fill:#ffffff;fill-opacity:1;fill-rule:nonzero;stroke:none"
                   d="m 0,0 6.507,-3.771 c -3.324,1.923 -7.914,1.652 -12.985,-1.278 -6.638,-3.838 -12.454,-11.267 -15.679,-19.226 l -6.506,3.774 c 3.224,7.959 9.037,15.389 15.679,19.223 C -7.91,1.649 -3.321,1.924 0,0" /></g></g></g></g><g
           id="g424"><g
             id="g426" /><g
             id="g438"><g
               style="opacity:0.19999701"
               id="g436"
               clip-path="url(#clipPath430)"><g
                 id="g434"
                 transform="translate(206.0952,294.7075)"><path
                   id="path432"
                   style="fill:#000000;fill-opacity:1;fill-rule:nonzero;stroke:none"
                   d="m 0,0 c -1.146,0.662 -5.422,3.151 -6.226,3.61 -3.343,1.907 -5.415,6.026 -5.415,11.9 l 6.506,-3.775 C -5.131,6.029 -3.176,1.975 0,0" /></g></g></g></g><g
           id="g440"><g
             id="g442" /><g
             id="g454"><g
               style="opacity:0.10000598"
               id="g452"
               clip-path="url(#clipPath446)"><g
                 id="g450"
                 transform="translate(197.1328,322.7944)"><path
                   id="path448"
                   style="fill:#000000;fill-opacity:1;fill-rule:nonzero;stroke:none"
                   d="M 0,0 6.506,-3.774 C 4.806,-7.97 3.828,-12.311 3.828,-16.349 v -0.003 l -6.507,3.775 c 0,4.04 0.981,8.385 2.679,12.577" /></g></g></g></g><g
           transform="translate(217.0103,318.479)"
           id="g456"><path
             id="path458"
             style="fill:#ffffff;fill-opacity:1;fill-rule:nonzero;stroke:none"
             d="m 0,0 c -0.635,0 -1.229,0.153 -1.766,0.461 -1.237,0.714 -1.918,2.13 -1.918,3.983 0,3.392 2.303,7.381 5.244,9.079 v 0.003 c 1.598,0.927 3.161,1.042 4.406,0.328 C 7.204,13.139 7.885,11.724 7.885,9.871 7.885,6.478 5.582,2.489 2.644,0.791 1.732,0.266 0.833,0 0,0" /></g><g
           transform="translate(226.5693,318.3516)"
           id="g460"><path
             id="path462"
             style="fill:#ffffff;fill-opacity:1;fill-rule:nonzero;stroke:none"
             d="M 0,0 C -1.804,1.044 -4.097,0.869 -6.462,-0.497 L -9.128,-2.03 c -4.63,-2.68 -8.259,-8.967 -8.259,-14.313 v -2.767 c 2.615,-1.453 6.185,-1.205 10.136,1.073 3.943,2.271 7.522,6.156 10.135,10.618 v 1.336 C 2.884,-3.271 1.84,-1.059 0,0" /></g></g></g><g
       id="g464"><g
         clip-path="url(#clipPath470)"
         id="g466"><g
           transform="translate(432.1543,145.3521)"
           id="g472"><path
             id="path474"
             style="fill:#00dfbf;fill-opacity:1;fill-rule:nonzero;stroke:none"
             d="m 0,0 c 0,0 1.328,11.679 7.138,20.743 5.809,9.064 13.792,14.721 21.24,15.311 7.447,0.589 13.463,-6.264 5.494,-10.97 C 25.902,20.378 11.744,15.577 5.229,-2.024 Z" /></g><g
           id="g476"><g
             id="g478" /><g
             id="g490"><g
               style="opacity:0.10000598"
               id="g488"
               clip-path="url(#clipPath482)"><g
                 id="g486"
                 transform="translate(432.1543,145.3521)"><path
                   id="path484"
                   style="fill:#000000;fill-opacity:1;fill-rule:nonzero;stroke:none"
                   d="m 0,0 c 0,0 1.328,11.679 7.138,20.743 5.809,9.064 13.792,14.721 21.24,15.311 7.447,0.589 13.463,-6.264 5.494,-10.97 C 25.902,20.378 11.744,15.577 5.229,-2.024 Z" /></g></g></g></g><g
           transform="translate(434.3379,148.3853)"
           id="g492"><path
             id="path494"
             style="fill:#ffffff;fill-opacity:1;fill-rule:nonzero;stroke:none"
             d="m 0,0 c -0.026,0.005 -0.053,0.012 -0.078,0.023 -0.204,0.082 -0.303,0.314 -0.219,0.518 7.859,19.357 22.822,27.44 29.637,29.009 0.213,0.051 0.427,-0.085 0.477,-0.299 0.049,-0.214 -0.085,-0.427 -0.298,-0.477 C 22.844,27.237 8.176,19.295 0.439,0.242 0.367,0.063 0.182,-0.033 0,0" /></g><g
           transform="translate(474.124,148.1562)"
           id="g496"><path
             id="path498"
             style="fill:#00dfbf;fill-opacity:1;fill-rule:nonzero;stroke:none"
             d="m 0,0 c -0.675,-1.52 -2.334,-2.312 -3.879,-2.935 -1.536,-0.616 -3.22,-1.289 -4.054,-2.727 -1.681,-2.903 1.079,-6.986 -0.725,-9.814 -0.758,-1.185 -2.166,-1.81 -3.551,-2.058 -1.151,-0.215 -2.322,-0.214 -3.489,-0.312 -0.562,0.012 -1.117,0.053 -1.659,0.129 -1.601,0.233 -3.338,0.308 -4.805,-0.512 -2.308,-1.297 -3.017,-4.211 -4.418,-6.458 -1.681,-2.69 -4.651,-4.452 -7.774,-4.876 -1.038,-0.138 -2.966,-0.324 -4.023,0.265 -0.083,0.046 -0.15,0.089 -0.218,0.139 -0.007,10e-4 -0.013,0.01 -0.019,0.019 -0.145,0.163 -0.327,0.372 -0.406,0.485 -0.019,0.019 -0.03,0.044 -0.041,0.069 -0.409,1.505 0.259,3.072 0.286,4.628 0.003,0.098 0.004,0.189 -0.002,0.282 -0.065,1.807 -0.116,3.605 -0.158,5.409 -0.084,3.318 -0.122,6.643 -0.099,9.965 0.023,2.157 -0.237,4.518 0.676,6.551 1.011,2.234 3.524,2.284 4.474,4.477 0.38,0.873 0.582,1.81 0.95,2.694 1.099,2.592 3.762,4.455 6.58,4.593 4.387,0.223 8.325,-3.329 12.707,-3.006 1.134,0.089 2.241,0.434 3.359,0.64 C -6.734,8.312 -2.627,7.3 -0.629,4.293 0.207,3.037 0.61,1.38 0,0" /></g><g
           transform="translate(434.7041,126.481)"
           id="g500"><path
             id="path502"
             style="fill:#ffffff;fill-opacity:1;fill-rule:nonzero;stroke:none"
             d="m 0,0 c -0.01,0.002 -0.02,0.004 -0.03,0.007 -0.199,0.053 -0.319,0.258 -0.265,0.458 6.063,22.744 30.026,26.032 35.633,25.626 0.203,-0.016 0.36,-0.194 0.347,-0.4 C 35.67,25.485 35.49,25.33 35.284,25.345 29.8,25.741 6.36,22.525 0.428,0.271 0.378,0.082 0.189,-0.035 0,0" /></g><g
           transform="translate(461.3301,138.0059)"
           id="g504"><path
             id="path506"
             style="fill:#ffffff;fill-opacity:1;fill-rule:nonzero;stroke:none"
             d="m 0,0 c -0.073,0.014 -0.143,0.048 -0.198,0.105 -0.06,0.061 -6.171,6.086 -16.308,4.594 -0.204,-0.028 -0.395,0.111 -0.426,0.316 -0.03,0.204 0.113,0.395 0.317,0.424 C -6.088,6.987 0.271,0.695 0.334,0.631 0.479,0.484 0.478,0.248 0.331,0.102 0.241,0.013 0.116,-0.021 0,0" /></g></g></g><g
       id="g508"><g
         clip-path="url(#clipPath514)"
         id="g510"><g
           transform="translate(377.1152,419.9941)"
           id="g516"><path
             id="path518"
             style="fill:#e7e7e7;fill-opacity:1;fill-rule:nonzero;stroke:none"
             d="m 0,0 3.183,-1.224 v 7.011 c 0,5.558 4.432,6.89 9.246,4.111 4.812,-2.778 8.715,-9.537 8.715,-15.094 v -1.018 c 1.091,0.435 2.502,0.266 4.043,-0.624 3.464,-2 6.272,-6.863 6.272,-10.862 v -0.463 l 4.437,-2.562 c 2.282,-1.317 4.13,-4.519 4.13,-7.153 0,-2.634 -1.848,-3.701 -4.13,-2.384 L 0,-9.538 c -2.281,1.317 -4.13,4.52 -4.13,7.154 C -4.13,0.25 -2.281,1.317 0,0" /></g><g
           transform="translate(419.7061,425.5361)"
           id="g520"><path
             id="path522"
             style="fill:#e7e7e7;fill-opacity:1;fill-rule:nonzero;stroke:none"
             d="m 0,0 5.77,-3.331 c -0.03,0.258 -0.049,0.514 -0.049,0.764 v 1.671 c 0,2.975 2.088,4.18 4.664,2.693 1.043,-0.602 2.003,-1.557 2.779,-2.673 0.422,3.74 3.357,5.133 6.921,3.075 3.853,-2.224 6.977,-7.636 6.977,-12.085 v -2.501 c 0,-1.152 -0.212,-2.123 -0.59,-2.896 l 4.792,-2.767 c 1.428,-0.825 2.587,-2.831 2.587,-4.481 0,-1.65 -1.159,-2.319 -2.587,-1.493 L 0,-5.975 c -1.429,0.825 -2.587,2.831 -2.587,4.481 0,1.65 1.158,2.319 2.587,1.494" /></g></g></g><g
       id="g524"><g
         clip-path="url(#clipPath530)"
         id="g526"><g
           transform="translate(397.3682,273.7681)"
           id="g532"><path
             id="path534"
             style="fill:#ffaaa8;fill-opacity:1;fill-rule:nonzero;stroke:none"
             d="m 0,0 c -4.2,-7.101 -8.241,-13.27 -11.078,-16.227 -5.388,-2.506 -18.046,-6.357 -22.998,-7.002 -0.878,-0.115 -1.761,0.109 -2.486,0.585 -1.947,1.276 -3.453,1.483 -5.505,2.193 -1.609,0.557 -2.289,1.324 -2.591,1.032 -0.388,-0.375 -0.811,-1.442 0.168,-2.546 0.492,-0.556 1.388,-1.162 2.544,-1.904 0,0 -3.542,-0.944 -6.705,-0.114 -4.287,1.125 -6.311,-0.936 -3.412,-5.591 1.039,-1.667 5.125,-4.336 13.41,-3.615 2.386,0.207 5.831,0.407 8.801,1.041 7.946,1.695 16.778,3.338 22.208,4.961 1.371,0.409 3.818,1.994 5.275,3.655 C 6.765,-13.121 9.789,-5.703 13.794,1.04 L 13.447,12.057 C 6.976,12.257 3.514,5.942 0,0" /></g><g
           transform="translate(411.9336,286.0249)"
           id="g536"><path
             id="path538"
             style="fill:#375a64;fill-opacity:1;fill-rule:nonzero;stroke:none"
             d="m 0,0 c 0,0 -5.652,1.203 -9.901,-4.234 -4.447,-5.688 -12.307,-19.352 -12.307,-19.352 0,0 2.579,-6.851 9.518,-7.977 l 11.147,15.058 c 0,0 5.279,10.423 1.543,16.505" /></g><path
           id="path540"
           style="fill:#ffaaa8;fill-opacity:1;fill-rule:nonzero;stroke:none"
           d="m 436.036,119.506 h -7.267 v 12.958 h 7.267 z" /><g
           transform="translate(410.8389,133.1553)"
           id="g542"><path
             id="path544"
             style="fill:#ffaaa8;fill-opacity:1;fill-rule:nonzero;stroke:none"
             d="M 0,0 -7.263,-0.26 -7.627,13.453 0,13.713 Z" /></g><g
           transform="translate(437.0596,244.6528)"
           id="g546"><path
             id="path548"
             style="fill:#2b454e;fill-opacity:1;fill-rule:nonzero;stroke:none"
             d="m 0,0 c 0,-7.228 -1.064,-65.397 -1.064,-65.397 0.169,-2.081 2.042,-5.915 1.636,-13.903 -0.551,-10.852 -1.284,-39.368 -1.284,-39.368 0,0 -3.528,-2.147 -8.092,-0.166 0,0 -5.891,39.96 -7.194,50.714 -1.137,9.385 -4.047,40.52 -4.047,40.52 l -3.939,-36.742 c 0,0 1.339,-5.597 0.9,-12.029 -0.34,-4.974 -2.677,-30.879 -2.677,-30.879 0,0 -3.421,-2.417 -8.39,-0.668 0,0 -4.134,39.013 -4.219,43.577 -0.096,5.203 2.417,64.419 2.417,64.419 z" /></g><g
           transform="translate(428.7695,123.2422)"
           id="g550"><path
             id="path552"
             style="fill:#1a2e35;fill-opacity:1;fill-rule:nonzero;stroke:none"
             d="m 0,0 v 1.083 c -0.696,-0.316 -2.312,-6.736 -5.195,-9.475 -2.292,-2.178 -5.419,-4.693 -6.215,-7.121 -0.827,-2.526 4.355,-3.919 6.497,-3.524 2.488,0.459 6.801,2.284 7.884,3.975 1.083,1.692 1.59,4.188 2.469,5.428 0.88,1.239 2.909,2.624 3.384,4.059 0.261,0.788 -0.049,2.514 -0.416,3.973 -0.337,1.339 -0.702,2.81 -1.141,2.685 -0.001,-0.164 0,-0.825 0,-0.825 C 6.739,-0.351 5.279,-0.956 3.634,-1.022 2.57,-1.064 -0.009,-0.845 0,0" /></g><g
           transform="translate(403.499,135.2295)"
           id="g554"><path
             id="path556"
             style="fill:#1a2e35;fill-opacity:1;fill-rule:nonzero;stroke:none"
             d="m 0,0 c -0.378,-0.014 -0.685,-0.568 -1.518,-1.507 -1.005,-1.134 -2.65,-2.357 -4.274,-3.203 -2.722,-1.419 -8.013,-3.602 -10.406,-4.725 -1.496,-0.702 -1.426,-2.584 0.12,-3.655 1.546,-1.071 5.279,-1.843 9.762,-0.799 2.442,0.569 5.621,2.918 7.632,2.792 2.013,-0.127 5.778,-0.097 7.263,0.97 1.485,1.065 0.891,3.343 0.471,5.299 -0.458,2.136 -1.031,5.466 -1.71,5.32 V -0.244 C 6.467,-1.622 1.958,-2.183 0.038,-1.168 Z" /></g><g
           transform="translate(417.0146,217.0527)"
           id="g558"><path
             id="path560"
             style="fill:#1a2e35;fill-opacity:1;fill-rule:nonzero;stroke:none"
             d="m 0,0 c 0,0 -5.809,1.704 -10.12,6.043 0,0 1.953,-3.808 7.76,-7.352 l -1.243,-32.81 z" /></g><g
           transform="translate(432.9902,284.9414)"
           id="g562"><path
             id="path564"
             style="fill:#00dfbf;fill-opacity:1;fill-rule:nonzero;stroke:none"
             d="M 0,0 C 0,0 5.976,-1.383 5.571,-12.217 L 4.315,-29.476 4.35,-55.375 c -5.344,-6.055 -29.037,-5.612 -37.148,0.485 0,0 0.919,30.65 1.467,42.444 0.39,8.384 2.318,12.606 10.56,13.529 l 10.133,-0.445 z" /></g><g
           transform="translate(425.3555,307.4648)"
           id="g566"><path
             id="path568"
             style="fill:#1a2e35;fill-opacity:1;fill-rule:nonzero;stroke:none"
             d="m 0,0 c 0,-6.224 -4.845,-11.269 -10.819,-11.269 -5.976,0 -9.513,5.184 -10.821,11.269 -2.391,11.129 4.845,11.269 10.821,11.269 C -4.845,11.269 0,6.224 0,0" /></g><g
           transform="translate(430.875,302.9058)"
           id="g570"><path
             id="path572"
             style="fill:#1a2e35;fill-opacity:1;fill-rule:nonzero;stroke:none"
             d="m 0,0 c 0,0 -1.659,-8.12 -2.324,-9.454 -0.666,-1.335 -2.041,-1.713 -2.041,-1.713 l 0.116,5.712 z" /></g><g
           transform="translate(428.793,314.5391)"
           id="g574"><path
             id="path576"
             style="fill:#1a2e35;fill-opacity:1;fill-rule:nonzero;stroke:none"
             d="M 0,0 C 0,0 1.189,0.298 2.454,-1.677 3.537,-3.37 3.783,-7.173 2.082,-11.633 l -3.126,-0.374 z" /></g><g
           transform="translate(429.9434,312.895)"
           id="g578"><path
             id="path580"
             style="fill:#1a2e35;fill-opacity:1;fill-rule:nonzero;stroke:none"
             d="M 0,0 3.832,-0.071 C 3.926,1.028 3.144,1.936 2.086,1.955 1.027,1.975 0.094,1.1 0,0" /></g><g
           transform="translate(430.4121,313.8032)"
           id="g582"><path
             id="path584"
             style="fill:#1a2e35;fill-opacity:1;fill-rule:nonzero;stroke:none"
             d="M 0,0 2.84,2.731 C 2.139,3.544 0.935,3.591 0.15,2.837 -0.634,2.083 -0.701,0.812 0,0" /></g><g
           transform="translate(426.8115,302.5298)"
           id="g586"><path
             id="path588"
             style="fill:#ffaaa8;fill-opacity:1;fill-rule:nonzero;stroke:none"
             d="M 0,0 C 0.627,-0.39 1.521,0.864 2.295,1.707 3.067,2.549 5.495,3.344 6.754,0.582 8.036,-2.233 5.867,-4.911 4.063,-5.807 0.839,-7.41 -0.186,-5.079 -0.186,-5.079 l -0.261,-12.862 c -4.545,-7.031 -14.84,-6.777 -11.139,0.339 l 0.01,3.915 c 0,0 -3.102,-0.49 -4.615,-0.247 -2.518,0.406 -4.102,2.475 -4.866,5.313 -1.226,4.559 -1.692,8.241 -0.652,17.207 1.142,9.829 12.116,9.931 18.043,6.045 C 2.261,10.746 0,0 0,0" /></g><g
           transform="translate(413.1309,312.6514)"
           id="g590"><path
             id="path592"
             style="fill:#1a2e35;fill-opacity:1;fill-rule:nonzero;stroke:none"
             d="m 0,0 c 2.622,0.262 5.214,0.795 7.842,0.989 0.568,0.042 1.149,0.067 1.7,-0.082 2.013,-0.544 1.753,-2.884 2.072,-4.519 0.551,-2.815 1.008,-7.587 2.067,-7.608 0.315,-0.007 1.514,2.065 2.295,2.805 0.504,0.479 0.59,1.512 0.7,2.15 0.199,1.167 0.307,2.35 0.397,3.529 0.075,0.998 0.176,2.014 0.172,3.016 -0.005,1.124 0.017,2.268 -0.263,3.366 -0.253,0.997 -0.72,1.743 -1.402,2.52 -0.065,0.075 -0.132,0.149 -0.2,0.222 -1.293,1.394 -2.942,2.439 -4.693,3.161 -2.513,1.036 -5.237,1.45 -7.94,1.726 -2.704,0.277 -5.43,0.428 -8.093,0.975 -0.155,0.032 -0.32,0.064 -0.468,0.008 -0.232,-0.089 -0.333,-0.358 -0.379,-0.602 -0.236,-1.234 0.32,-2.583 1.356,-3.294 -1.811,-0.144 -3.892,0.8 -5.639,1.272 -0.294,0.08 -0.627,0.155 -0.888,-0.003 -0.18,-0.108 -0.286,-0.308 -0.35,-0.508 -0.148,-0.465 -0.115,-0.966 -0.05,-1.449 0.196,-1.427 0.682,-2.836 1.562,-3.977 C -8.937,2.056 -6.853,0.576 -4.798,0.165 -3.174,-0.161 -1.658,-0.166 0,0" /></g><g
           transform="translate(415.2354,288.8428)"
           id="g594"><path
             id="path596"
             style="fill:#ff9090;fill-opacity:1;fill-rule:nonzero;stroke:none"
             d="m 0,0 c 0,0 5.62,1.179 7.585,2.267 1.315,0.728 2.398,1.99 2.717,2.799 0,0 -0.368,-1.737 -1.543,-3.301 C 7.321,-0.148 0,-1.558 0,-1.558 Z" /></g><g
           transform="translate(416.5859,303.9932)"
           id="g598"><path
             id="path600"
             style="fill:#1a2e35;fill-opacity:1;fill-rule:nonzero;stroke:none"
             d="m 0,0 c 0,-0.673 0.505,-1.217 1.126,-1.215 0.623,0.001 1.127,0.548 1.127,1.221 0,0.674 -0.504,1.218 -1.127,1.216 C 0.505,1.22 0,0.673 0,0" /></g><g
           transform="translate(418.3945,308.8496)"
           id="g602"><path
             id="path604"
             style="fill:#1a2e35;fill-opacity:1;fill-rule:nonzero;stroke:none"
             d="M 0,0 2.41,-1.385 C 2.765,-0.664 2.514,0.23 1.849,0.613 1.183,0.996 0.355,0.721 0,0" /></g><g
           transform="translate(415.7441,295.8896)"
           id="g606"><path
             id="path608"
             style="fill:#ff9090;fill-opacity:1;fill-rule:nonzero;stroke:none"
             d="m 0,0 -2.571,-1.005 c 0.255,-0.767 1.037,-1.164 1.747,-0.887 C -0.114,-1.615 0.255,-0.768 0,0" /></g><g
           transform="translate(406.2539,307.8174)"
           id="g610"><path
             id="path612"
             style="fill:#1a2e35;fill-opacity:1;fill-rule:nonzero;stroke:none"
             d="M 0,0 2.197,1.763 C 1.749,2.418 0.894,2.554 0.287,2.068 -0.319,1.581 -0.448,0.655 0,0" /></g><g
           transform="translate(407.2187,304.3271)"
           id="g614"><path
             id="path616"
             style="fill:#1a2e35;fill-opacity:1;fill-rule:nonzero;stroke:none"
             d="m 0,0 c 0,-0.673 0.505,-1.217 1.127,-1.215 0.622,0.001 1.126,0.548 1.126,1.221 0,0.674 -0.504,1.218 -1.126,1.216 C 0.505,1.22 0,0.673 0,0" /></g><g
           transform="translate(413.2461,305.269)"
           id="g618"><path
             id="path620"
             style="fill:#ff9090;fill-opacity:1;fill-rule:nonzero;stroke:none"
             d="m 0,0 -0.131,-7.114 -4.037,0.927 z" /></g><g
           transform="translate(317.3135,245.7241)"
           id="g622"><path
             id="path624"
             style="fill:#00dfbf;fill-opacity:1;fill-rule:nonzero;stroke:none"
             d="M 0,0 6.265,3.616 8.747,6.623 2.483,3.006 Z" /></g><g
           id="g626"><g
             id="g628" /><g
             id="g640"><g
               style="opacity:0.39999402"
               id="g638"
               clip-path="url(#clipPath632)"><g
                 id="g636"
                 transform="translate(317.3135,245.7241)"><path
                   id="path634"
                   style="fill:#000000;fill-opacity:1;fill-rule:nonzero;stroke:none"
                   d="M 0,0 6.265,3.616 8.747,6.623 2.483,3.006 Z" /></g></g></g></g><g
           transform="translate(334.3613,235.8818)"
           id="g642"><path
             id="path644"
             style="fill:#00dfbf;fill-opacity:1;fill-rule:nonzero;stroke:none"
             d="M 0,0 6.264,3.616 11.499,8.25 5.235,4.634 Z" /></g><g
           id="g646"><g
             id="g648" /><g
             id="g660"><g
               style="opacity:0.39999402"
               id="g658"
               clip-path="url(#clipPath652)"><g
                 id="g656"
                 transform="translate(334.3613,235.8818)"><path
                   id="path654"
                   style="fill:#000000;fill-opacity:1;fill-rule:nonzero;stroke:none"
                   d="M 0,0 6.264,3.616 11.499,8.25 5.235,4.634 Z" /></g></g></g></g><g
           transform="translate(402.1855,223.1958)"
           id="g662"><path
             id="path664"
             style="fill:#00dfbf;fill-opacity:1;fill-rule:nonzero;stroke:none"
             d="m 0,0 c -2.107,14.352 -9.817,28.549 -19.009,33.854 -4.41,2.549 -8.491,2.642 -11.761,0.729 -0.956,-0.555 -4.502,-2.601 -5.9,-3.402 -0.113,-0.062 -0.226,-0.124 -0.329,-0.196 -0.257,-0.144 -0.515,-0.308 -0.761,-0.483 -0.473,-0.329 -0.926,-0.699 -1.357,-1.121 -0.062,-0.051 -0.123,-0.123 -0.196,-0.185 -0.184,-0.185 -0.37,-0.39 -0.544,-0.596 -0.216,-0.246 -0.432,-0.504 -0.627,-0.771 -0.412,-0.545 -0.802,-1.131 -1.152,-1.768 -0.175,-0.309 -0.349,-0.638 -0.513,-0.977 l -51.516,29.742 -6.261,-3.609 v -3.988 l 0.534,-0.309 0.495,-0.288 v -0.843 l -1.029,-0.596 V 42.87 l 7.567,-16.017 7.484,-4.329 2.487,3.013 6.601,-3.948 3.793,-6.498 4.174,-2.405 5.232,4.636 6.426,-3.711 2.159,-8.903 10.764,-6.209 c 0.545,-2.282 1.233,-4.513 2.035,-6.693 0.072,-0.226 0.154,-0.452 0.247,-0.699 3.577,-9.406 9.272,-17.456 15.687,-21.167 0.824,-0.473 1.625,-0.864 2.416,-1.162 0.453,-0.185 0.906,-0.329 1.347,-0.452 0.402,-0.114 0.802,-0.206 1.203,-0.268 1.326,-0.236 2.612,-0.226 3.815,0.01 0.174,0.042 0.349,0.083 0.523,0.124 0.247,0.051 0.494,0.123 0.731,0.216 0.184,0.072 0.37,0.144 0.554,0.216 0.196,0.072 0.391,0.164 0.577,0.267 0.184,0.082 0.359,0.175 0.534,0.277 0.092,0.052 0.185,0.103 0.267,0.155 0.041,0.01 0.082,0.041 0.123,0.072 1.43,0.822 4.955,2.858 5.912,3.402 4.759,2.756 7.844,9.736 7.844,19.605 C 0.576,-5.089 0.381,-2.54 0,0 m -14.563,0.189 c 1.374,-1.747 2.375,-4.313 2.589,-6.817 -1.373,1.748 -2.374,4.314 -2.589,6.817" /></g><g
           transform="translate(395.9248,219.5869)"
           id="g666"><path
             id="path668"
             style="fill:#00dfbf;fill-opacity:1;fill-rule:nonzero;stroke:none"
             d="m 0,0 c -2.107,14.341 -9.817,28.539 -19.009,33.844 -4.256,2.457 -8.193,2.642 -11.4,0.946 -0.113,-0.062 -0.227,-0.124 -0.329,-0.196 -0.257,-0.144 -0.515,-0.308 -0.761,-0.483 -0.474,-0.329 -0.926,-0.699 -1.357,-1.121 -0.062,-0.051 -0.123,-0.123 -0.196,-0.185 -0.184,-0.185 -0.37,-0.39 -0.545,-0.596 -0.216,-0.247 -0.431,-0.504 -0.627,-0.771 -0.411,-0.545 -0.801,-1.131 -1.151,-1.768 -0.175,-0.309 -0.35,-0.638 -0.514,-0.977 -0.853,-1.748 -1.532,-3.783 -1.984,-6.086 l -55.792,32.219 v -3.989 l 0.534,-0.308 0.494,-0.288 v -0.843 l -1.028,-0.596 v -2.323 l 7.566,-16.018 7.485,-4.328 2.487,3.013 6.601,-3.948 3.793,-6.498 4.173,-2.405 5.233,4.636 6.426,-3.711 2.159,-8.903 10.763,-6.209 c 0.545,-2.282 1.234,-4.513 2.036,-6.693 0.072,-0.226 0.154,-0.452 0.247,-0.699 3.577,-9.406 9.272,-17.456 15.687,-21.167 0.823,-0.473 1.625,-0.864 2.416,-1.162 0.452,-0.185 0.905,-0.329 1.347,-0.452 0.401,-0.114 0.802,-0.206 1.203,-0.268 1.326,-0.236 2.611,-0.226 3.814,0.01 0.174,0.042 0.35,0.083 0.524,0.124 0.247,0.051 0.494,0.123 0.73,0.216 0.185,0.072 0.371,0.144 0.555,0.215 0.195,0.073 0.391,0.165 0.576,0.268 0.185,0.082 0.36,0.175 0.534,0.277 0.093,0.052 0.186,0.103 0.268,0.155 0.041,0.01 0.082,0.041 0.123,0.072 4.565,2.878 7.495,9.756 7.495,19.389 C 0.576,-5.099 0.37,-2.549 0,0 m -10.14,-8.308 c -2.47,1.427 -4.474,5.668 -4.474,9.473 0,3.805 2.004,5.733 4.474,4.306 2.472,-1.427 4.476,-5.668 4.476,-9.473 0,-3.805 -2.004,-5.733 -4.476,-4.306" /></g><g
           id="g670"><g
             id="g672" /><g
             id="g684"><g
               style="opacity:0.39999402"
               id="g682"
               clip-path="url(#clipPath676)"><g
                 id="g680"
                 transform="translate(390.2607,215.5879)"><path
                   id="path678"
                   style="fill:#000000;fill-opacity:1;fill-rule:nonzero;stroke:none"
                   d="m 0,0 c 0,-3.804 -2.005,-5.736 -4.473,-4.308 -2.477,1.43 -4.482,5.665 -4.482,9.469 0,3.804 2.005,5.736 4.482,4.307 0.659,-0.38 1.285,-0.956 1.83,-1.676 C -2.427,5.294 -1.419,2.725 -0.052,0.977 -0.011,0.648 0,0.319 0,0" /></g></g></g></g><g
           id="g686"><g
             id="g688" /><g
             id="g700"><g
               style="opacity:0.39999402"
               id="g698"
               clip-path="url(#clipPath692)"><g
                 id="g696"
                 transform="translate(402.7617,215.5981)"><path
                   id="path694"
                   style="fill:#ffffff;fill-opacity:1;fill-rule:nonzero;stroke:none"
                   d="m 0,0 c 0,-9.869 -3.085,-16.85 -7.844,-19.605 -0.957,-0.544 -4.482,-2.58 -5.912,-3.402 4.565,2.878 7.495,9.756 7.495,19.388 0,2.509 -0.206,5.058 -0.576,7.608 -2.107,14.341 -9.817,28.539 -19.009,33.844 -4.256,2.457 -8.193,2.642 -11.4,0.945 1.397,0.802 4.944,2.848 5.9,3.403 3.27,1.912 7.351,1.819 11.761,-0.73 C -10.394,36.146 -2.684,21.949 -0.576,7.598 -0.195,5.058 0,2.509 0,0" /></g></g></g></g><g
           transform="translate(396.501,211.9795)"
           id="g702"><path
             id="path704"
             style="fill:#00dfbf;fill-opacity:1;fill-rule:nonzero;stroke:none"
             d="m 0,0 c 0,-9.633 -2.931,-16.51 -7.495,-19.389 1.43,0.823 4.955,2.858 5.912,3.403 4.759,2.755 7.844,9.736 7.844,19.605 0,0.364 -0.014,0.731 -0.022,1.097 C 4.089,3.474 1.913,2.218 -0.022,1.101 -0.014,0.733 0,0.366 0,0" /></g><g
           id="g706"><g
             id="g708" /><g
             id="g720"><g
               style="opacity:0.10000598"
               id="g718"
               clip-path="url(#clipPath712)"><g
                 id="g716"
                 transform="translate(396.501,211.9795)"><path
                   id="path714"
                   style="fill:#000000;fill-opacity:1;fill-rule:nonzero;stroke:none"
                   d="m 0,0 c 0,-9.633 -2.931,-16.51 -7.495,-19.389 1.43,0.823 4.955,2.858 5.912,3.403 4.759,2.755 7.844,9.736 7.844,19.605 0,0.364 -0.014,0.731 -0.022,1.097 C 4.089,3.474 1.913,2.218 -0.022,1.101 -0.014,0.733 0,0.366 0,0" /></g></g></g></g><g
           id="g722"><g
             id="g724" /><g
             id="g736"><g
               style="opacity:0.14999402"
               id="g734"
               clip-path="url(#clipPath728)"><g
                 id="g732"
                 transform="translate(358.2773,238.0815)"><path
                   id="path730"
                   style="fill:#000000;fill-opacity:1;fill-rule:nonzero;stroke:none"
                   d="m 0,0 v -2.035 l -56.018,32.342 1.029,0.596 v 0.843 z" /></g></g></g></g><g
           id="g738"><g
             id="g740" /><g
             id="g752"><g
               style="opacity:0.14999402"
               id="g750"
               clip-path="url(#clipPath744)"><g
                 id="g748"
                 transform="translate(358.2773,237.2388)"><path
                   id="path746"
                   style="fill:#000000;fill-opacity:1;fill-rule:nonzero;stroke:none"
                   d="m 0,0 v -1.192 l -56.018,32.342 1.029,0.596 v 0.01 z" /></g></g></g></g><g
           id="g754"><g
             id="g756" /><g
             id="g768"><g
               style="opacity:0.14999402"
               id="g766"
               clip-path="url(#clipPath760)"><g
                 id="g764"
                 transform="translate(360.6084,232.7041)"><path
                   id="path762"
                   style="fill:none;stroke:#000000;stroke-width:1;stroke-linecap:butt;stroke-linejoin:miter;stroke-miterlimit:10;stroke-dasharray:none;stroke-opacity:1"
                   d="m 0,0 c 0,-13.865 7.301,-29.321 16.307,-34.52 9.005,-5.2 16.306,1.825 16.306,15.691 0,13.866 -7.301,29.321 -16.306,34.52 C 7.301,20.891 0,13.866 0,0 Z" /></g></g></g></g><g
           id="g770"><g
             id="g772" /><g
             id="g784"><g
               style="opacity:0.39999402"
               id="g782"
               clip-path="url(#clipPath776)"><g
                 id="g780"
                 transform="translate(360.0361,248.2798)"><path
                   id="path778"
                   style="fill:#ffffff;fill-opacity:1;fill-rule:nonzero;stroke:none"
                   d="m 0,0 c -0.854,-1.748 -1.532,-3.783 -1.984,-6.086 l -55.792,32.219 6.26,3.609 z" /></g></g></g></g><g
           transform="translate(432.5059,245.147)"
           id="g786"><path
             id="path788"
             style="fill:#ffaaa8;fill-opacity:1;fill-rule:nonzero;stroke:none"
             d="M 0,0 C 2.927,5.533 6.261,17.953 7.922,24.221 10.281,33.124 6.463,38.726 2.129,38.952 -0.589,38.538 -9.513,6.062 -9.513,6.062 c -0.989,-0.791 -14.572,-7.674 -18.936,-9.404 -0.773,-0.306 -1.635,-0.295 -2.416,-0.01 -2.096,0.766 -3.523,0.62 -5.574,0.827 -1.607,0.161 -2.419,0.732 -2.623,0.388 -0.259,-0.443 -0.38,-1.545 0.789,-2.367 0.588,-0.413 1.558,-0.783 2.797,-1.222 0,0 -2.319,-0.804 -5.414,-0.735 -4.194,0.092 -5.705,-1.73 -2.451,-5.983 2.039,-2.664 5.318,-3.504 12.7,-0.95 2.128,0.735 5.01,2.165 7.692,3.14 5.546,2.015 6.97,2.233 11.226,3.666 C -5.579,-4.52 -1.299,-2.455 0,0" /></g><g
           transform="translate(432.9902,284.9414)"
           id="g790"><path
             id="path792"
             style="fill:#375a64;fill-opacity:1;fill-rule:nonzero;stroke:none"
             d="m 0,0 c 2.553,-0.349 5.026,-0.926 6.511,-2.988 1.484,-2.062 2.721,-4.97 1.237,-12.958 -1.484,-7.989 -4.537,-16.475 -4.537,-16.475 0,0 -5.937,-2.537 -12.251,3.9 l 4.335,16.779 c 0,0 0.742,10.899 4.705,11.742" /></g></g></g></g></svg>