<?xml version="1.0"?>
<svg xmlns="http://www.w3.org/2000/svg" xmlns:xlink="http://www.w3.org/1999/xlink" xmlns:svgjs="http://svgjs.com/svgjs" version="1.1" width="512" height="512" x="0" y="0" viewBox="0 0 475.429 475.429" style="enable-background:new 0 0 512 512" xml:space="preserve" class=""><g>
<path xmlns="http://www.w3.org/2000/svg" style="" d="M472.294,228.31c-1.045-1.045-26.122-35.527-67.396-70.531  c-55.38-47.02-113.371-71.576-167.184-71.576c-129.045,0-230.4,136.359-234.58,142.106c-4.18,5.747-4.18,13.061,0,18.286  c1.045,1.567,26.122,36.049,67.396,71.053c55.38,47.02,113.371,71.576,167.184,71.576c129.045,0,230.4-136.359,234.58-142.106  C476.473,241.371,476.473,234.057,472.294,228.31z" fill="#0071bc" data-original="#4dcfe0" class=""/>
<path xmlns="http://www.w3.org/2000/svg" style="" d="M237.714,331.755c51.722,0,94.041-42.318,94.041-94.041s-42.318-94.041-94.041-94.041  s-94.041,42.318-94.041,94.041S185.992,331.755,237.714,331.755z" fill="#ffffff" data-original="#d4e1f4" class=""/>
<g xmlns="http://www.w3.org/2000/svg">
</g>
<g xmlns="http://www.w3.org/2000/svg">
</g>
<g xmlns="http://www.w3.org/2000/svg">
</g>
<g xmlns="http://www.w3.org/2000/svg">
</g>
<g xmlns="http://www.w3.org/2000/svg">
</g>
<g xmlns="http://www.w3.org/2000/svg">
</g>
<g xmlns="http://www.w3.org/2000/svg">
</g>
<g xmlns="http://www.w3.org/2000/svg">
</g>
<g xmlns="http://www.w3.org/2000/svg">
</g>
<g xmlns="http://www.w3.org/2000/svg">
</g>
<g xmlns="http://www.w3.org/2000/svg">
</g>
<g xmlns="http://www.w3.org/2000/svg">
</g>
<g xmlns="http://www.w3.org/2000/svg">
</g>
<g xmlns="http://www.w3.org/2000/svg">
</g>
<g xmlns="http://www.w3.org/2000/svg">
</g>
</g></svg>
